999
dxfrw 0.6.3
  0
SECTION
  2
HEADER
  9
$ACADVER
  1
AC1021
  9
$DWGCODEPAGE
  3
ANSI_1252
  9
$INSBASE
 10
0
 20
0
 30
0
  9
$EXTMIN
 10
0.19705955
 20
0.19981545
 30
0
  9
$EXTMAX
 10
69.96488590853866
 20
37.190426
 30
0
  9
$LIMMIN
 10
0
 20
0
  9
$LIMMAX
 10
420
 20
297
  9
$ORTHOMODE
 70
    0
  9
$REGENMODE
 70
    1
  9
$FILLMODE
 70
    0
  9
$QTEXTMODE
 70
    0
  9
$MIRRTEXT
 70
    0
  9
$LTSCALE
 40
1
  9
$ATTMODE
 70
    0
  9
$TEXTSIZE
 40
2.5
  9
$TRACEWID
 40
15.68
  9
$TEXTSTYLE
  7
STANDARD
  9
$CLAYER
  8
0
  9
$CELTYPE
  6
BYLAYER
  9
$CECOLOR
 62
  256
  9
$CELTSCALE
 40
1
  9
$DISPSILH
 70
    0
  9
$DIMSCALE
 40
2.5
  9
$DIMASZ
 40
2.5
  9
$DIMEXO
 40
0.625
  9
$DIMDLI
 40
3.75
  9
$DIMRND
 40
0
  9
$DIMDLE
 40
0
  9
$DIMEXE
 40
1.25
  9
$DIMTP
 40
0
  9
$DIMTM
 40
0
  9
$DIMTXT
 40
2.5
  9
$DIMCEN
 40
2.5
  9
$DIMTSZ
 40
0
  9
$DIMTOL
 70
    0
  9
$DIMLIM
 70
    0
  9
$DIMTIH
 70
    0
  9
$DIMTOH
 70
    0
  9
$DIMSE1
 70
    0
  9
$DIMSE2
 70
    0
  9
$DIMTAD
 70
    1
  9
$DIMZIN
 70
    8
  9
$DIMBLK
  1

  9
$DIMASO
 70
    1
  9
$DIMSHO
 70
    1
  9
$DIMPOST
  1

  9
$DIMAPOST
  1

  9
$DIMALT
 70
    0
  9
$DIMALTD
 70
    3
  9
$DIMALTF
 40
0.03937
  9
$DIMLFAC
 40
1
  9
$DIMTOFL
 70
    1
  9
$DIMTVP
 40
0
  9
$DIMTIX
 70
    0
  9
$DIMSOXD
 70
    0
  9
$DIMSAH
 70
    0
  9
$DIMBLK1
  1

  9
$DIMBLK2
  1

  9
$DIMSTYLE
  2
Standard
  9
$DIMCLRD
 70
    0
  9
$DIMCLRE
 70
    0
  9
$DIMCLRT
 70
    0
  9
$DIMTFAC
 40
1
  9
$DIMGAP
 40
0.625
  9
$DIMJUST
 70
    0
  9
$DIMSD1
 70
    0
  9
$DIMSD2
 70
    0
  9
$DIMTOLJ
 70
    0
  9
$DIMTZIN
 70
    8
  9
$DIMALTZ
 70
    0
  9
$DIMALTTZ
 70
    0
  9
$DIMUPT
 70
    0
  9
$DIMDEC
 70
    2
  9
$DIMTDEC
 70
    2
  9
$DIMALTU
 70
    2
  9
$DIMALTTD
 70
    3
  9
$DIMTXSTY
  7
STANDARD
  9
$DIMAUNIT
 70
    0
  9
$DIMADEC
 70
    0
  9
$DIMALTRND
 40
0
  9
$DIMAZIN
 70
    0
  9
$DIMDSEP
 70
   44
  9
$DIMATFIT
 70
    3
  9
$DIMFRAC
 70
    0
  9
$DIMLDRBLK
  1
STANDARD
  9
$DIMLUNIT
 70
    2
  9
$DIMLWD
 70
   -2
  9
$DIMLWE
 70
   -2
  9
$DIMTMOVE
 70
    0
  9
$DIMFXL
 40
1
  9
$DIMFXLON
 70
    0
  9
$DIMJOGANG
 40
0.7854
  9
$DIMTFILL
 70
    0
  9
$DIMTFILLCLR
 70
    0
  9
$DIMARCSYM
 70
    0
  9
$DIMLTYPE
  6

  9
$DIMLTEX1
  6

  9
$DIMLTEX2
  6

  9
$LUNITS
 70
    2
  9
$LUPREC
 70
    4
  9
$SKETCHINC
 40
1
  9
$FILLETRAD
 40
0
  9
$AUNITS
 70
    0
  9
$AUPREC
 70
    2
  9
$MENU
  1
.
  9
$ELEVATION
 40
0
  9
$PELEVATION
 40
0
  9
$THICKNESS
 40
0
  9
$LIMCHECK
 70
    0
  9
$CHAMFERA
 40
0
  9
$CHAMFERB
 40
0
  9
$CHAMFERC
 40
0
  9
$CHAMFERD
 40
0
  9
$SKPOLY
 70
    0
  9
$USRTIMER
 70
    1
  9
$ANGBASE
 50
0
  9
$ANGDIR
 70
    0
  9
$PDMODE
 70
   34
  9
$PDSIZE
 40
0
  9
$PLINEWID
 40
0
  9
$SPLFRAME
 70
    1
  9
$SPLINETYPE
 70
    2
  9
$SPLINESEGS
 70
    8
  9
$HANDSEED
  5
20000
  9
$SURFTAB1
 70
    6
  9
$SURFTAB2
 70
    6
  9
$SURFTYPE
 70
    6
  9
$SURFU
 70
    6
  9
$SURFV
 70
    6
  9
$UCSBASE
  2

  9
$UCSNAME
  2

  9
$UCSORG
 10
0
 20
0
 30
0
  9
$UCSXDIR
 10
1
 20
0
 30
0
  9
$UCSYDIR
 10
0
 20
1
 30
0
  9
$UCSORTHOREF
  2

  9
$UCSORTHOVIEW
 70
    0
  9
$UCSORGTOP
 10
0
 20
0
 30
0
  9
$UCSORGBOTTOM
 10
0
 20
0
 30
0
  9
$UCSORGLEFT
 10
0
 20
0
 30
0
  9
$UCSORGRIGHT
 10
0
 20
0
 30
0
  9
$UCSORGFRONT
 10
0
 20
0
 30
0
  9
$UCSORGBACK
 10
0
 20
0
 30
0
  9
$PUCSBASE
  2

  9
$PUCSNAME
  2

  9
$PUCSORG
 10
0
 20
0
 30
0
  9
$PUCSXDIR
 10
1
 20
0
 30
0
  9
$PUCSYDIR
 10
0
 20
1
 30
0
  9
$PUCSORTHOREF
  2

  9
$PUCSORTHOVIEW
 70
    0
  9
$PUCSORGTOP
 10
0
 20
0
 30
0
  9
$PUCSORGBOTTOM
 10
0
 20
0
 30
0
  9
$PUCSORGLEFT
 10
0
 20
0
 30
0
  9
$PUCSORGRIGHT
 10
0
 20
0
 30
0
  9
$PUCSORGFRONT
 10
0
 20
0
 30
0
  9
$PUCSORGBACK
 10
0
 20
0
 30
0
  9
$USERI1
 70
    0
  9
$USERI2
 70
    0
  9
$USERI3
 70
    0
  9
$USERI4
 70
    0
  9
$USERI5
 70
    0
  9
$USERR1
 40
0
  9
$USERR2
 40
0
  9
$USERR3
 40
0
  9
$USERR4
 40
0
  9
$USERR5
 40
0
  9
$WORLDVIEW
 70
    1
  9
$SHADEDGE
 70
    3
  9
$SHADEDIF
 70
   70
  9
$TILEMODE
 70
    1
  9
$MAXACTVP
 70
   64
  9
$PINSBASE
 10
0
 20
0
 30
0
  9
$PLIMCHECK
 70
    0
  9
$PEXTMIN
 10
0
 20
0
 30
0
  9
$PEXTMAX
 10
0
 20
0
 30
0
  9
$GRIDMODE
 70
    1
  9
$SNAPSTYLE
 70
    0
  9
$PLIMMIN
 10
0
 20
0
  9
$PLIMMAX
 10
2.642760571031714e-05
 20
2.042133168524506e-05
  9
$UNITMODE
 70
    0
  9
$VISRETAIN
 70
    1
  9
$PLINEGEN
 70
    0
  9
$PSLTSCALE
 70
    1
  9
$TREEDEPTH
 70
 3020
  9
$CMLSTYLE
  2
Standard
  9
$CMLJUST
 70
    0
  9
$CMLSCALE
 40
20
  9
$PROXYGRAPHICS
 70
    1
  9
$MEASUREMENT
 70
    1
  9
$CELWEIGHT
370
   -1
  9
$ENDCAPS
280
    0
  9
$JOINSTYLE
280
    0
  9
$LWDISPLAY
290
    0
  9
$INSUNITS
 70
    4
  9
$HYPERLINKBASE
  1

  9
$STYLESHEET
  1

  9
$XEDIT
290
    1
  9
$CEPSNTYPE
380
    0
  9
$PSTYLEMODE
290
    1
  9
$EXTNAMES
290
    1
  9
$PSVPSCALE
 40
1
  9
$OLESTARTUP
290
    0
  9
$SORTENTS
280
  127
  9
$INDEXCTL
280
    0
  9
$HIDETEXT
280
    1
  9
$XCLIPFRAME
290
    0
  9
$HALOGAP
280
    0
  9
$OBSCOLOR
 70
  257
  9
$OBSLTYPE
280
    0
  9
$INTERSECTIONDISPLAY
280
    0
  9
$INTERSECTIONCOLOR
 70
  257
  9
$DIMASSOC
280
    1
  9
$PROJECTNAME
  1

  9
$CAMERADISPLAY
290
    0
  9
$LENSLENGTH
 40
50
  9
$CAMERAHEIGHT
 40
0
  9
$STEPSPERSEC
 40
2
  9
$STEPSIZE
 40
50
  9
$3DDWFPREC
 40
2
  9
$PSOLWIDTH
 40
5
  9
$PSOLHEIGHT
 40
80
  9
$LOFTANG1
 40
1.570796326794897
  9
$LOFTANG2
 40
1.570796326794897
  9
$LOFTMAG1
 40
0
  9
$LOFTMAG2
 40
0
  9
$LOFTPARAM
 70
    7
  9
$LOFTNORMALS
280
    1
  9
$LATITUDE
 40
1
  9
$LONGITUDE
 40
1
  9
$NORTHDIRECTION
 40
0
  9
$TIMEZONE
 70
-8000
  9
$LIGHTGLYPHDISPLAY
280
    1
  9
$TILEMODELIGHTSYNCH
280
    1
  9
$SOLIDHIST
280
    1
  9
$SHOWHIST
280
    1
  9
$DWFFRAME
280
    2
  9
$DGNFRAME
280
    0
  9
$REALWORLDSCALE
290
    1
  9
$INTERFERECOLOR
 62
    1
  9
$CSHADOW
280
    0
  9
$SHADOWPLANELOCATION
 40
0
  0
ENDSEC
  0
SECTION
  2
CLASSES
  0
ENDSEC
  0
SECTION
  2
TABLES
  0
TABLE
  2
VPORT
  5
8
330
0
100
AcDbSymbolTable
 70
    1
  0
VPORT
  5
31
330
2
100
AcDbSymbolTableRecord
100
AcDbViewportTableRecord
  2
*ACTIVE
 70
    0
 10
0
 20
0
 11
1
 21
1
 12
95.94629872116826
 22
52.66880575612063
 13
0
 23
0
 14
10
 24
10
 15
10
 25
10
 16
0
 26
0
 36
1
 17
0
 27
0
 37
0
 40
152.1973578099662
 41
1.952926208651399
 42
50
 43
0
 44
0
 50
0
 51
0
 71
    0
 72
  100
 73
    1
 74
    3
 75
    0
 76
    1
 77
    0
 78
    0
281
    0
 65
    1
110
0
120
0
130
0
111
1
121
0
131
0
112
0
122
1
132
0
 79
    0
146
0
348
10020
 60
    7
 61
    5
292
1
282
    1
141
0
142
0
 63
  250
421
3358443
  0
ENDTAB
  0
TABLE
  2
LTYPE
  5
5
330
0
100
AcDbSymbolTable
 70
    4
  0
LTYPE
  5
14
330
5
100
AcDbSymbolTableRecord
100
AcDbLinetypeTableRecord
  2
ByBlock
 70
    0
  3

 72
   65
 73
    0
 40
0
  0
LTYPE
  5
15
330
5
100
AcDbSymbolTableRecord
100
AcDbLinetypeTableRecord
  2
ByLayer
 70
    0
  3

 72
   65
 73
    0
 40
0
  0
LTYPE
  5
16
330
5
100
AcDbSymbolTableRecord
100
AcDbLinetypeTableRecord
  2
Continuous
 70
    0
  3
Solid line
 72
   65
 73
    0
 40
0
  0
LTYPE
  5
32
330
5
100
AcDbSymbolTableRecord
100
AcDbLinetypeTableRecord
  2
DOT
 70
    0
  3
Dot . . . . . . . . . . . . . . . . . . . . . .
 72
   65
 73
    2
 40
6.35
 49
0
 74
    0
 49
-6.35
 74
    0
  0
LTYPE
  5
33
330
5
100
AcDbSymbolTableRecord
100
AcDbLinetypeTableRecord
  2
DOTTINY
 70
    0
  3
Dot (.15x) .....................................
 72
   65
 73
    2
 40
0.9525
 49
0
 74
    0
 49
-0.9525
 74
    0
  0
LTYPE
  5
34
330
5
100
AcDbSymbolTableRecord
100
AcDbLinetypeTableRecord
  2
DOT2
 70
    0
  3
Dot (.5x) .....................................
 72
   65
 73
    2
 40
3.175
 49
0
 74
    0
 49
-3.175
 74
    0
  0
LTYPE
  5
35
330
5
100
AcDbSymbolTableRecord
100
AcDbLinetypeTableRecord
  2
DOTX2
 70
    0
  3
Dot (2x) .  .  .  .  .  .  .  .  .  .  .  .  .
 72
   65
 73
    2
 40
12.7
 49
0
 74
    0
 49
-12.7
 74
    0
  0
LTYPE
  5
36
330
5
100
AcDbSymbolTableRecord
100
AcDbLinetypeTableRecord
  2
DASHED
 70
    0
  3
Dashed _ _ _ _ _ _ _ _ _ _ _ _ _ _ _ _ _
 72
   65
 73
    2
 40
19.05
 49
12.7
 74
    0
 49
-6.35
 74
    0
  0
LTYPE
  5
37
330
5
100
AcDbSymbolTableRecord
100
AcDbLinetypeTableRecord
  2
DASHEDTINY
 70
    0
  3
Dashed (.15x) _ _ _ _ _ _ _ _ _ _ _ _ _ _ _ _ _
 72
   65
 73
    2
 40
2.8575
 49
1.905
 74
    0
 49
-0.9525
 74
    0
  0
LTYPE
  5
38
330
5
100
AcDbSymbolTableRecord
100
AcDbLinetypeTableRecord
  2
DASHED2
 70
    0
  3
Dashed (.5x) _ _ _ _ _ _ _ _ _ _ _ _ _ _ _ _ _
 72
   65
 73
    2
 40
9.524999999999999
 49
6.35
 74
    0
 49
-3.175
 74
    0
  0
LTYPE
  5
39
330
5
100
AcDbSymbolTableRecord
100
AcDbLinetypeTableRecord
  2
DASHEDX2
 70
    0
  3
Dashed (2x) ____  ____  ____  ____  ____  ___
 72
   65
 73
    2
 40
38.09999999999999
 49
25.4
 74
    0
 49
-12.7
 74
    0
  0
LTYPE
  5
3A
330
5
100
AcDbSymbolTableRecord
100
AcDbLinetypeTableRecord
  2
DASHDOT
 70
    0
  3
Dash dot __ . __ . __ . __ . __ . __ . __ . __
 72
   65
 73
    4
 40
25.4
 49
12.7
 74
    0
 49
-6.35
 74
    0
 49
0
 74
    0
 49
-6.35
 74
    0
  0
LTYPE
  5
3B
330
5
100
AcDbSymbolTableRecord
100
AcDbLinetypeTableRecord
  2
DASHDOTTINY
 70
    0
  3
Dash dot (.15x) _._._._._._._._._._._._._._._.
 72
   65
 73
    4
 40
3.81
 49
1.905
 74
    0
 49
-0.9525
 74
    0
 49
0
 74
    0
 49
-0.9525
 74
    0
  0
LTYPE
  5
3C
330
5
100
AcDbSymbolTableRecord
100
AcDbLinetypeTableRecord
  2
DASHDOT2
 70
    0
  3
Dash dot (.5x) _._._._._._._._._._._._._._._.
 72
   65
 73
    4
 40
12.7
 49
6.35
 74
    0
 49
-3.175
 74
    0
 49
0
 74
    0
 49
-3.175
 74
    0
  0
LTYPE
  5
3D
330
5
100
AcDbSymbolTableRecord
100
AcDbLinetypeTableRecord
  2
DASHDOTX2
 70
    0
  3
Dash dot (2x) ____  .  ____  .  ____  .  ___
 72
   65
 73
    4
 40
50.8
 49
25.4
 74
    0
 49
-12.7
 74
    0
 49
0
 74
    0
 49
-12.7
 74
    0
  0
LTYPE
  5
3E
330
5
100
AcDbSymbolTableRecord
100
AcDbLinetypeTableRecord
  2
DIVIDE
 70
    0
  3
Divide ____ . . ____ . . ____ . . ____ . . ____
 72
   65
 73
    6
 40
31.75
 49
12.7
 74
    0
 49
-6.35
 74
    0
 49
0
 74
    0
 49
-6.35
 74
    0
 49
0
 74
    0
 49
-6.35
 74
    0
  0
LTYPE
  5
3F
330
5
100
AcDbSymbolTableRecord
100
AcDbLinetypeTableRecord
  2
DIVIDETINY
 70
    0
  3
Divide (.15x) __..__..__..__..__..__..__..__.._
 72
   65
 73
    6
 40
4.7625
 49
1.905
 74
    0
 49
-0.9525
 74
    0
 49
0
 74
    0
 49
-0.9525
 74
    0
 49
0
 74
    0
 49
-0.9525
 74
    0
  0
LTYPE
  5
40
330
5
100
AcDbSymbolTableRecord
100
AcDbLinetypeTableRecord
  2
DIVIDE2
 70
    0
  3
Divide (.5x) __..__..__..__..__..__..__..__.._
 72
   65
 73
    6
 40
15.875
 49
6.35
 74
    0
 49
-3.175
 74
    0
 49
0
 74
    0
 49
-3.175
 74
    0
 49
0
 74
    0
 49
-3.175
 74
    0
  0
LTYPE
  5
41
330
5
100
AcDbSymbolTableRecord
100
AcDbLinetypeTableRecord
  2
DIVIDEX2
 70
    0
  3
Divide (2x) ________  .  .  ________  .  .  _
 72
   65
 73
    6
 40
63.5
 49
25.4
 74
    0
 49
-12.7
 74
    0
 49
0
 74
    0
 49
-12.7
 74
    0
 49
0
 74
    0
 49
-12.7
 74
    0
  0
LTYPE
  5
42
330
5
100
AcDbSymbolTableRecord
100
AcDbLinetypeTableRecord
  2
BORDER
 70
    0
  3
Border __ __ . __ __ . __ __ . __ __ . __ __ .
 72
   65
 73
    6
 40
44.45
 49
12.7
 74
    0
 49
-6.35
 74
    0
 49
12.7
 74
    0
 49
-6.35
 74
    0
 49
0
 74
    0
 49
-6.35
 74
    0
  0
LTYPE
  5
43
330
5
100
AcDbSymbolTableRecord
100
AcDbLinetypeTableRecord
  2
BORDERTINY
 70
    0
  3
Border (.15x) __.__.__.__.__.__.__.__.__.__.__.
 72
   65
 73
    6
 40
6.6675
 49
1.905
 74
    0
 49
-0.9525
 74
    0
 49
1.905
 74
    0
 49
-0.9525
 74
    0
 49
0
 74
    0
 49
-0.9525
 74
    0
  0
LTYPE
  5
44
330
5
100
AcDbSymbolTableRecord
100
AcDbLinetypeTableRecord
  2
BORDER2
 70
    0
  3
Border (.5x) __.__.__.__.__.__.__.__.__.__.__.
 72
   65
 73
    6
 40
22.225
 49
6.35
 74
    0
 49
-3.175
 74
    0
 49
6.35
 74
    0
 49
-3.175
 74
    0
 49
0
 74
    0
 49
-3.175
 74
    0
  0
LTYPE
  5
45
330
5
100
AcDbSymbolTableRecord
100
AcDbLinetypeTableRecord
  2
BORDERX2
 70
    0
  3
Border (2x) ____  ____  .  ____  ____  .  ___
 72
   65
 73
    6
 40
88.89999999999999
 49
25.4
 74
    0
 49
-12.7
 74
    0
 49
25.4
 74
    0
 49
-12.7
 74
    0
 49
0
 74
    0
 49
-12.7
 74
    0
  0
LTYPE
  5
46
330
5
100
AcDbSymbolTableRecord
100
AcDbLinetypeTableRecord
  2
CENTER
 70
    0
  3
Center ____ _ ____ _ ____ _ ____ _ ____ _ ____
 72
   65
 73
    4
 40
50.8
 49
31.75
 74
    0
 49
-6.35
 74
    0
 49
6.35
 74
    0
 49
-6.35
 74
    0
  0
LTYPE
  5
47
330
5
100
AcDbSymbolTableRecord
100
AcDbLinetypeTableRecord
  2
CENTERTINY
 70
    0
  3
Center (.15x) ___ _ ___ _ ___ _ ___ _ ___ _ ___
 72
   65
 73
    4
 40
7.619999999999999
 49
4.7625
 74
    0
 49
-0.9525
 74
    0
 49
0.9525
 74
    0
 49
-0.9525
 74
    0
  0
LTYPE
  5
48
330
5
100
AcDbSymbolTableRecord
100
AcDbLinetypeTableRecord
  2
CENTER2
 70
    0
  3
Center (.5x) ___ _ ___ _ ___ _ ___ _ ___ _ ___
 72
   65
 73
    4
 40
28.575
 49
19.05
 74
    0
 49
-3.175
 74
    0
 49
3.175
 74
    0
 49
-3.175
 74
    0
  0
LTYPE
  5
49
330
5
100
AcDbSymbolTableRecord
100
AcDbLinetypeTableRecord
  2
CENTERX2
 70
    0
  3
Center (2x) ________  __  ________  __  _____
 72
   65
 73
    4
 40
101.6
 49
63.5
 74
    0
 49
-12.7
 74
    0
 49
12.7
 74
    0
 49
-12.7
 74
    0
  0
ENDTAB
  0
TABLE
  2
LAYER
  5
2
330
0
100
AcDbSymbolTable
 70
    1
  0
LAYER
  5
10
330
2
100
AcDbSymbolTableRecord
100
AcDbLayerTableRecord
  2
0
 70
    0
 62
    7
  6
CONTINUOUS
370
   -3
390
F
  0
ENDTAB
  0
TABLE
  2
STYLE
  5
3
330
0
100
AcDbSymbolTable
 70
    3
  0
STYLE
  5
4A
330
2
100
AcDbSymbolTableRecord
100
AcDbTextStyleTableRecord
  2
Standard
 70
    0
 40
0
 41
1
 50
0
 71
    0
 42
1
  3
txt
  4

  0
ENDTAB
  0
TABLE
  2
VIEW
  5
6
330
0
100
AcDbSymbolTable
 70
    0
  0
ENDTAB
  0
TABLE
  2
UCS
  5
7
330
0
100
AcDbSymbolTable
 70
    0
  0
ENDTAB
  0
TABLE
  2
APPID
  5
9
330
0
100
AcDbSymbolTable
 70
    1
  0
APPID
  5
12
330
9
100
AcDbSymbolTableRecord
100
AcDbRegAppTableRecord
  2
ACAD
 70
    0
  0
APPID
  5
4B
330
9
100
AcDbSymbolTableRecord
100
AcDbRegAppTableRecord
  2
LibreCad
 70
    0
  0
ENDTAB
  0
TABLE
  2
DIMSTYLE
  5
A
330
0
100
AcDbSymbolTable
 70
    1
100
AcDbDimStyleTable
 71
    1
  0
DIMSTYLE
105
4C
330
A
100
AcDbSymbolTableRecord
100
AcDbDimStyleTableRecord
  2
Standard
 70
    0
 40
2.5
 41
2.5
 42
0.625
 43
0.38
 44
1.25
 45
0
 46
0
 47
0
 48
0
 49
1
140
2.5
141
0.09
142
0
143
25.4
144
1
145
0
146
1
147
0.625
148
0
 71
    0
 72
    0
 73
    0
 74
    1
 75
    0
 76
    0
 77
    0
 78
    8
 79
    0
170
    0
171
    2
172
    0
173
    0
174
    0
175
    0
176
    0
177
    0
178
    0
179
    0
271
    2
272
    4
273
    2
274
    2
275
    0
276
    0
277
    2
278
   44
279
    0
280
    0
281
    0
282
    0
283
    1
284
    0
285
    0
286
    0
288
    0
289
    3
340
STANDARD
341

371
   -2
372
   -2
  0
ENDTAB
  0
TABLE
  2
BLOCK_RECORD
  5
1
330
0
100
AcDbSymbolTable
 70
    2
  0
BLOCK_RECORD
  5
1F
330
1
100
AcDbSymbolTableRecord
100
AcDbBlockTableRecord
  2
*Model_Space
 70
    0
280
    1
281
    0
  0
BLOCK_RECORD
  5
1E
330
1
100
AcDbSymbolTableRecord
100
AcDbBlockTableRecord
  2
*Paper_Space
 70
    0
280
    1
281
    0
  0
BLOCK_RECORD
  5
4D
330
1
100
AcDbSymbolTableRecord
100
AcDbBlockTableRecord
  2
LunAero_acetal_gear_metric_6tooth
 70
    0
280
    1
281
    0
  0
ENDTAB
  0
ENDSEC
  0
SECTION
  2
BLOCKS
  0
BLOCK
  5
20
330
1F
100
AcDbEntity
  8
0
100
AcDbBlockBegin
  2
*Model_Space
 70
    0
 10
0
 20
0
 30
0
  3
*Model_Space
  1

  0
ENDBLK
  5
21
330
1F
100
AcDbEntity
  8
0
100
AcDbBlockEnd
  0
BLOCK
  5
1C
330
1B
100
AcDbEntity
  8
0
100
AcDbBlockBegin
  2
*Paper_Space
 70
    0
 10
0
 20
0
 30
0
  3
*Paper_Space
  1

  0
ENDBLK
  5
1D
330
1F
100
AcDbEntity
  8
0
100
AcDbBlockEnd
  0
BLOCK
  5
4E
330
4D
100
AcDbEntity
  8
0
100
AcDbBlockBegin
  2
LunAero_acetal_gear_metric_6tooth
 70
    0
 10
0
 20
0
  3
LunAero_acetal_gear_metric_6tooth
  1

  0
LWPOLYLINE
  5
50
100
AcDbEntity
  8
0
  6
ByLayer
 62
    1
370
   -1
100
AcDbPolyline
 90
  420
 70
    1
 43
0
 10
15.18639163650427
 20
10.37595450894843
 10
17.31042092399321
 20
10.52992251671504
 10
17.31231009052841
 20
10.53008829433701
 10
17.31796633973283
 20
10.53070011385579
 10
17.32736840616766
 20
10.53192922592464
 10
17.34048918834593
 20
10.53394610025348
 10
17.3572957742626
 20
10.53692024885886
 10
17.37774947194235
 20
10.54102005009403
 10
17.40180584498223
 20
10.54641257359598
 10
17.42941475306264
 20
10.5532634062854
 10
17.46052039739682
 20
10.56173647955513
 10
17.495061371085
 20
10.57199389778127
 10
17.53297071433629
 20
10.58419576829085
 10
17.57417597451737
 20
10.59850003291849
 10
17.61859927098395
 20
10.6150623012834
 10
17.66615736464712
 20
10.6340356859172
 10
17.71676173222367
 20
10.65557063937134
 10
17.77031864511562
 20
10.67981479343173
 10
17.87178565226094
 20
10.72967836075416
 10
17.98156436770964
 20
10.78920930429779
 10
18.09902530992065
 20
10.85914648287086
 10
18.2234934454641
 20
10.9401931298144
 10
18.35425006113988
 20
11.03301440229839
 10
18.49053475878073
 20
11.13823502455016
 10
18.63154756817394
 20
11.25643703088761
 10
18.77645117326421
 20
11.38815761421294
 10
18.9243732465366
 20
11.53388708539347
 10
19.07440888622762
 20
11.69406694871531
 10
19.22562315077121
 20
11.8690880983426
 10
19.37705368465789
 20
12.05928914045232
 10
19.52771342966824
 20
12.26495484544041
 10
19.67659341523799
 20
12.48631473431164
 10
19.82266562152097
 20
12.72354180307262
 10
19.96488590853866
 20
12.9767513886463
 10
19.77280325617345
 20
13.55700949058696
 10
19.54696438628969
 20
14.12498133412944
 10
19.27525734146039
 20
14.22753369176158
 10
19.01087291906136
 20
14.31536676522506
 10
18.75453683957601
 20
14.38924006796976
 10
18.50692541220532
 20
14.44994692104485
 10
18.26866401998528
 20
14.49831170151786
 10
18.04032574649783
 20
14.53518702496165
 10
17.82243014697816
 20
14.56145086895413
 10
17.61544216629218
 20
14.57800364465201
 10
17.41977120592269
 20
14.58576522360183
 10
17.23577034176461
 20
14.5856719270371
 10
17.06373569418774
 20
14.57867348498118
 10
16.90390595148021
 20
14.56572997252983
 10
16.75646204743983
 20
14.54780873072625
 10
16.62152699353236
 20
14.52588127946422
 10
16.49916586568736
 20
14.50092022986171
 10
16.38938594545414
 20
14.47389620353816
 10
16.33277512810531
 20
14.45804258301424
 10
16.28016753227024
 20
14.44201145396638
 10
16.23154006233781
 20
14.42597615648527
 10
16.1868638220413
 20
14.41010884558151
 10
16.14610415738399
 20
14.3945803173141
 10
16.10922070446549
 20
14.37955983628034
 10
16.0761674421686
 20
14.36521496459995
 10
16.04689274966303
 20
14.35171139252504
 10
16.02133946867863
 20
14.33921277080645
 10
15.99944497049785
 20
14.32788054494547
 10
15.98114122761288
 20
14.31787379145874
 10
15.96635488999071
 20
14.30934905628254
 10
15.95500736588481
 20
14.30246019544103
 10
15.94701490712981
 20
14.29735821810158
 10
15.94228869885183
 20
14.29419113213824
 10
15.94073495352404
 20
14.29310379232287
 10
14.21466539314068
 20
13.04575042048137
 10
13.34249557037
 20
13.98343110421868
 10
12.26760966283548
 20
14.67952416566205
 10
13.19628410048399
 20
16.59597149089295
 10
13.1970851161196
 20
16.5976904459154
 10
13.19938338947601
 20
16.60289481117596
 10
13.20301998041771
 20
16.61165179559101
 10
13.20783370710183
 20
16.62402316343933
 10
13.21366131181327
 20
16.64006516809674
 10
13.22033762863302
 20
16.65982849050632
 10
13.22769575280977
 20
16.68335818243274
 10
13.23556721170385
 20
16.71069361454585
 10
13.24378213717124
 20
16.74186842937519
 10
13.25216943925425
 20
16.77691049917367
 10
13.2605569810449
 20
16.81584188872486
 10
13.26877175458546
 20
16.85867882312505
 10
13.27664005767043
 20
16.90543166056741
 10
13.28398767141337
 20
16.95610487015218
 10
13.29064003844104
 20
17.01069701474298
 10
13.29642244157746
 20
17.06920073888587
 10
13.30397282912558
 20
17.18200552838092
 10
13.30730687742989
 20
17.30684215652612
 10
13.30546997522211
 20
17.44353490571985
 10
13.29751558784918
 20
17.59185079653393
 10
13.28250831570435
 20
17.75149998366403
 10
13.25952693265272
 20
17.92213630509397
 10
13.22766739708281
 20
18.10335798345623
 10
13.18604582826691
 20
18.29470847822702
 10
13.13380144078069
 20
18.49567748705164
 10
13.07009942981476
 20
18.70570209415803
 10
12.99413380030977
 20
18.92416806348101
 10
12.90513013295983
 20
19.15041127379037
 10
12.80234828025807
 20
19.38371929279107
 10
12.68508498590155
 20
19.62333308684514
 10
12.55267642103072
 20
19.86844886265354
 10
12.40450063095103
 20
20.1182200369312
 10
11.80594104773608
 20
20.24200063132697
 10
11.20114356765212
 20
20.3304043546169
 10
10.97647709831006
 20
20.1463753302236
 10
10.76821921419869
 20
19.9613282407929
 10
10.57607501761765
 20
19.77627133542443
 10
10.39969562698548
 20
19.59218697559164
 10
10.23867980233737
 20
19.41002894742454
 10
10.09257569871855
 20
19.23071986365003
 10
9.960882742860207
 20
19.0551486610894
 10
9.84305362825971
 20
18.88416819938624
 10
9.738496423530933
 20
18.71859296639825
 10
9.646576788647039
 20
18.55919689543671
 10
9.566620293465945
 20
18.40671129927608
 10
9.497914832709242
 20
18.26182292558536
 10
9.439713131358317
 20
18.12517213815144
 10
9.391235334237749
 20
17.99735122797553
 10
9.351671673376146
 20
17.87890285802479
 10
9.320185206568269
 20
17.77031864511562
 10
9.305609436009519
 20
17.71336542890057
 10
9.293189003098789
 20
17.65979034995145
 10
9.282762243108451
 20
17.60966007692765
 10
9.274165617292596
 20
17.5630356624334
 10
9.267233884926895
 20
17.51997249325673
 10
9.261800276619951
 20
17.48052024553314
 10
9.257696668760758
 20
17.4447228448659
 10
9.254753758966672
 20
17.41261843143064
 10
9.252801242395066
 20
17.38423933008882
 10
9.251667988781705
 20
17.35961202553066
 10
9.251182220068145
 20
17.33875714246458
 10
9.251171688480184
 20
17.32168943086674
 10
9.251463854919109
 20
17.30841775630022
 10
9.25188606752711
 20
17.29894509530996
 10
9.252265740288337
 20
17.29326853589598
 10
9.252430531527096
 20
17.29137928306342
 10
9.469635458846341
 20
15.17288250915163
 10
8.221495254706525
 20
14.88640162808672
 10
7.081218026331229
 20
14.30356965671362
 10
5.885863176490787
 20
16.06604897417791
 10
5.884775025591182
 20
16.0676021515784
 10
5.881417049743177
 20
16.07219469732016
 10
5.875651574250043
 20
16.07972256966637
 10
5.8673445187559
 20
16.09007706318585
 10
5.856365537550673
 20
16.10314491923788
 10
5.842588156690667
 20
16.11880844041229
 10
5.825889907827531
 20
16.13694560883677
 10
5.806152458641208
 20
16.15743020826045
 10
5.783261739774403
 20
16.18013194982006
 10
5.757108068169245
 20
16.20491660139241
 10
5.727586266708613
 20
16.23164612043401
 10
5.694595780068084
 20
16.26017879020656
 10
5.658040786686485
 20
16.29036935928401
 10
5.617830306766251
 20
16.32206918423497
 10
5.573878306217381
 20
16.35512637537164
 10
5.52610379646184
 20
16.38938594545414
 10
5.43218717686463
 20
16.45232716762675
 10
5.325742509720257
 20
16.51763285222833
 10
5.206444665301461
 20
16.584388422849
 10
5.07402214238509
 20
16.65165766671953
 10
4.928258254564454
 20
16.71848558136565
 10
4.768992173871993
 20
16.78390128054381
 10
4.596119828908868
 20
16.84692095256862
 10
4.409594655002692
 20
16.90655086401408
 10
4.209428194244083
 20
16.96179040165817
 10
3.995690543587145
 20
17.01163514544272
 10
3.768510649538555
 20
17.0550799651384
 10
3.528076448301924
 20
17.09112213333805
 10
3.27463485058982
 20
17.11876444735065
 10
3.008491570663573
 20
17.1370183525335
 10
2.730010799509749
 20
17.14490705958091
 10
2.439614722412372
 20
17.14146864828491
 10
2.033137791562631
 20
16.68499114074001
 10
1.654179181362437
 20
16.20542302048746
 10
1.701219756849667
 20
15.91884163846202
 10
1.757346295137346
 20
15.64596147556784
 10
1.821538178041656
 20
15.38703126745468
 10
1.892770214780157
 20
15.14224005454679
 10
1.970015782352093
 20
14.91171724590669
 10
2.05224995222072
 20
14.69553283868837
 10
2.138452595882043
 20
14.49369779213526
 10
2.22761146196752
 20
14.30616455473423
 10
2.318725217608254
 20
14.13282774279643
 10
2.410806446882432
 20
13.97352496839961
 10
2.502884599278204
 20
13.8280378142949
 10
2.594008881229037
 20
13.69609295305553
 10
2.683251083918492
 20
13.57736340742519
 10
2.769708340705392
 20
13.47146994851131
 10
2.852505807688786
 20
13.37798262816308
 10
2.930799261114132
 20
13.29642244157746
 10
2.972834307904222
 20
13.25532284588633
 10
3.013021470828548
 20
13.21777889598507
 10
3.051222180770644
 20
13.18368392044238
 10
3.0873017952513
 20
13.1529268168519
 10
3.121129727542922
 20
13.12539217594263
 10
3.152579572154465
 20
13.1009604092528
 10
3.181529226592154
 20
13.07950788026595
 10
3.207861009303649
 20
13.0609070389056
 10
3.231461773716433
 20
13.04502655928237
 10
3.252223018283857
 20
13.03173148058519
 10
3.27004099245525
 20
13.02088335100583
 10
3.284816798489466
 20
13.0123403745842
 10
3.296456489034298
 20
13.00595756085919
 10
3.304871160397298
 20
13.00158687720838
 10
3.309977041436511
 20
12.99907740375774
 10
3.311695578003061
 20
12.99827549074055
 10
5.254970065705663
 20
12.12713208867027
 10
4.87899968433652
 20
10.90297052386804
 10
4.813608363495732
 20
9.624045491051572
 10
2.689579076006794
 20
9.470077483284957
 10
2.68768990947158
 20
9.469911705662994
 10
2.682033660267166
 20
9.469299886144206
 10
2.672631593832335
 20
9.468070774075361
 10
2.659510811654073
 20
9.466053899746523
 10
2.642704225737404
 20
9.463079751141144
 10
2.622250528057648
 20
9.45897994990597
 10
2.598194155017765
 20
9.453587426404027
 10
2.570585246937348
 20
9.446736593714597
 10
2.53947960260318
 20
9.43826352044487
 10
2.504938628914999
 20
9.428006102218738
 10
2.467029285663706
 20
9.415804231709153
 10
2.425824025482619
 20
9.401499967081513
 10
2.381400729016043
 20
9.384937698716602
 10
2.333842635352873
 20
9.365964314082795
 10
2.283238267776326
 20
9.344429360628659
 10
2.229681354884384
 20
9.320185206568269
 10
2.12821434773906
 20
9.270321639245836
 10
2.018435632290362
 20
9.210790695702215
 10
1.900974690079344
 20
9.140853517129145
 10
1.776506554535906
 20
9.059806870185604
 10
1.645749938860114
 20
8.966985597701616
 10
1.509465241219274
 20
8.861764975449841
 10
1.368452431826057
 20
8.743562969112386
 10
1.223548826735787
 20
8.611842385787067
 10
1.075626753463396
 20
8.46611291460653
 10
0.9255911137723842
 20
8.30593305128469
 10
0.774376849228787
 20
8.130911901657399
 10
0.6229463153421051
 20
7.940710859547682
 10
0.4722865703317609
 20
7.735045154559586
 10
0.3234065847620116
 20
7.513685265688363
 10
0.1773343784790313
 20
7.276458196927376
 10
0.03511409146134525
 20
7.023248611353704
 10
0.2271967438265534
 20
6.442990509413047
 10
0.4530356137103126
 20
5.875018665870558
 10
0.7247426585396113
 20
5.772466308238418
 10
0.9891270809386441
 20
5.684633234774939
 10
1.245463160423995
 20
5.610759932030245
 10
1.493074587794688
 20
5.550053078955152
 10
1.73133598001472
 20
5.501688298482142
 10
1.959674253502172
 20
5.464812975038345
 10
2.177569853021836
 20
5.438549131045871
 10
2.384557833707809
 20
5.421996355347991
 10
2.580228794077321
 20
5.414234776398175
 10
2.764229658235394
 20
5.414328072962903
 10
2.936264305812259
 20
5.421326515018819
 10
3.096094048519788
 20
5.43427002747017
 10
3.243537952560168
 20
5.452191269273754
 10
3.378473006467644
 20
5.474118720535785
 10
3.50083413431264
 20
5.499079770138287
 10
3.610614054545863
 20
5.526103796461841
 10
3.667224871894696
 20
5.541957416985761
 10
3.719832467729752
 20
5.557988546033622
 10
3.768459937662186
 20
5.574023843514732
 10
3.813136177958704
 20
5.589891154418492
 10
3.853895842616019
 20
5.605419682685902
 10
3.890779295534514
 20
5.620440163719659
 10
3.923832557831396
 20
5.634785035400052
 10
3.95310725033697
 20
5.64828860747496
 10
3.97866053132136
 20
5.66078722919355
 10
4.000555029502152
 20
5.67211945505453
 10
4.018858772387119
 20
5.682126208541256
 10
4.033645110009275
 20
5.690650943717461
 10
4.044992634115189
 20
5.69753980455897
 10
4.052985092870188
 20
5.70264178189842
 10
4.057711301148174
 20
5.705808867861759
 10
4.059265046475957
 20
5.706896207677127
 10
5.785334606859323
 20
6.954249579518635
 10
6.657504429629995
 20
6.016568895781315
 10
7.732390337164517
 20
5.320475834337948
 10
6.803715899516007
 20
3.404028509107054
 10
6.802914883880405
 20
3.402309554084599
 10
6.800616610523988
 20
3.397105188824046
 10
6.796980019582293
 20
3.388348204408992
 10
6.792166292898173
 20
3.375976836560675
 10
6.786338688186731
 20
3.359934831903267
 10
6.779662371366982
 20
3.340171509493681
 10
6.77230424719022
 20
3.316641817567255
 10
6.764432788296148
 20
3.28930638545415
 10
6.756217862828763
 20
3.258131570624812
 10
6.747830560745754
 20
3.223089500826333
 10
6.7394430189551
 20
3.184158111275138
 10
6.731228245414542
 20
3.141321176874952
 10
6.723359942329566
 20
3.094568339432593
 10
6.716012328586629
 20
3.043895129847824
 10
6.709359961558945
 20
2.989302985257021
 10
6.703577558422538
 20
2.930799261114132
 10
6.696027170874416
 20
2.817994471619086
 10
6.692693122570105
 20
2.693157843473884
 10
6.69453002477789
 20
2.556465094280153
 10
6.702484412150824
 20
2.408149203466074
 10
6.717491684295652
 20
2.248500016335967
 10
6.740473067347267
 20
2.077863694906032
 10
6.772332602917189
 20
1.896642016543765
 10
6.813954171733087
 20
1.705291521772983
 10
6.866198559219313
 20
1.50432251294836
 10
6.929900570185239
 20
1.294297905841974
 10
7.005866199690232
 20
1.075831936518997
 10
7.094869867040174
 20
0.84958872620963
 10
7.197651719741927
 20
0.6162807072089347
 10
7.314915014098432
 20
0.3766669131548674
 10
7.447323578969275
 20
0.1315511373464648
 10
7.595499369048966
 20
-0.1182200369312003
 10
8.194058952263916
 20
-0.2420006313269631
 10
8.798856432347876
 20
-0.3304043546169027
 10
9.023522901689944
 20
-0.1463753302236004
 10
9.231780785801305
 20
0.03867175920709798
 10
9.423924982382331
 20
0.2237286645755692
 10
9.600304373014524
 20
0.4078130244083642
 10
9.761320197662627
 20
0.5899710525754553
 10
9.907424301281452
 20
0.7692801363499733
 10
10.03911725713979
 20
0.9448513389106044
 10
10.15694637174029
 20
1.115831800613762
 10
10.26150357646907
 20
1.281407033601745
 10
10.35342321135296
 20
1.440803104563292
 10
10.43337970653405
 20
1.593288700723917
 10
10.50208516729074
 20
1.738177074414645
 10
10.56028686864167
 20
1.874827861848562
 10
10.60876466576225
 20
2.002648772024472
 10
10.64832832662385
 20
2.121097141975209
 10
10.67981479343173
 20
2.229681354884384
 10
10.69439056399047
 20
2.286634571099434
 10
10.70681099690121
 20
2.34020965004855
 10
10.71723775689154
 20
2.390339923072354
 10
10.72583438270739
 20
2.436964337566597
 10
10.73276611507309
 20
2.480027506743271
 10
10.73819972338005
 20
2.519479754466857
 10
10.74230333123924
 20
2.555277155134103
 10
10.74524624103333
 20
2.587381568569363
 10
10.74719875760492
 20
2.615760669911179
 10
10.7483320112183
 20
2.640387974469345
 10
10.74881777993185
 20
2.661242857535424
 10
10.74882831151982
 20
2.678310569133259
 10
10.74853614508089
 20
2.691582243699782
 10
10.74811393247289
 20
2.701054904690043
 10
10.74773425971166
 20
2.706731464104021
 10
10.7475694684729
 20
2.708620716936577
 10
10.53036454115366
 20
4.827117490848369
 10
11.77850474529347
 20
5.113598371913275
 10
12.91878197366877
 20
5.696430343286373
 10
14.11413682350921
 20
3.933951025822092
 10
14.11522497440882
 20
3.932397848421601
 10
14.11858295025682
 20
3.927805302679836
 10
14.12434842574996
 20
3.920277430333625
 10
14.1326554812441
 20
3.909922936814144
 10
14.14363446244933
 20
3.896855080762117
 10
14.15741184330933
 20
3.881191559587705
 10
14.17411009217246
 20
3.863054391163224
 10
14.19384754135879
 20
3.842569791739551
 10
14.21673826022558
 20
3.819868050179938
 10
14.24289193183075
 20
3.795083398607591
 10
14.27241373329139
 20
3.768353879565982
 10
14.30540421993192
 20
3.739821209793433
 10
14.34195921331352
 20
3.709630640715986
 10
14.38216969323375
 20
3.677930815765027
 10
14.42612169378262
 20
3.644873624628358
 10
14.47389620353816
 20
3.610614054545859
 10
14.56781282313536
 20
3.547672832373244
 10
14.67425749027974
 20
3.482367147771665
 10
14.79355533469854
 20
3.415611577151003
 10
14.92597785761491
 20
3.348342333280467
 10
15.07174174543553
 20
3.281514418634348
 10
15.23100782612801
 20
3.216098719456184
 10
15.40388017109113
 20
3.153079047431373
 10
15.59040534499731
 20
3.093449135985914
 10
15.79057180575592
 20
3.038209598341826
 10
16.00430945641286
 20
2.988364854557279
 10
16.23148935046144
 20
2.944920034861592
 10
16.47192355169807
 20
2.908877866661941
 10
16.72536514941018
 20
2.881235552649343
 10
16.99150842933642
 20
2.862981647466498
 10
17.26998920049024
 20
2.855092940419084
 10
17.56038527758763
 20
2.85853135171509
 10
17.96686220843736
 20
3.315008859259983
 10
18.34582081863756
 20
3.794576979512533
 10
18.29878024315033
 20
4.081158361537977
 10
18.24265370486265
 20
4.354038524432152
 10
18.17846182195834
 20
4.612968732545315
 10
18.10722978521984
 20
4.857759945453207
 10
18.02998421764791
 20
5.088282754093306
 10
17.94775004777928
 20
5.304467161311623
 10
17.86154740411796
 20
5.506302207864728
 10
17.77238853803247
 20
5.693835445265766
 10
17.68127478239174
 20
5.867172257203567
 10
17.58919355311757
 20
6.026475031600384
 10
17.4971154007218
 20
6.171962185705095
 10
17.40599111877097
 20
6.30390704694447
 10
17.31674891608151
 20
6.422636592574804
 10
17.23029165929461
 20
6.52853005148868
 10
17.14749419231121
 20
6.622017371836918
 10
17.06920073888587
 20
6.703577558422538
 10
17.02716569209578
 20
6.744677154113667
 10
16.98697852917145
 20
6.782221104014923
 10
16.94877781922936
 20
6.816316079557616
 10
16.91269820474869
 20
6.847073183148098
 10
16.87887027245708
 20
6.874607824057364
 10
16.84742042784553
 20
6.899039590747194
 10
16.81847077340784
 20
6.920492119734046
 10
16.79213899069634
 20
6.939092961094396
 10
16.76853822628357
 20
6.954973440717623
 10
16.74777698171614
 20
6.96826851941481
 10
16.72995900754475
 20
6.979116648994165
 10
16.71518320151053
 20
6.987659625415795
 10
16.7035435109657
 20
6.994042439140809
 10
16.6951288396027
 20
6.998413122791618
 10
16.69002295856349
 20
7.000922596242258
 10
16.68830442199695
 20
7.001724509259446
 10
14.74502993429434
 20
7.872867911329731
 10
15.12100031566348
 20
9.097029476131958
  0
ARC
  5
51
100
AcDbEntity
  8
0
  6
ByLayer
 62
    1
370
   -1
100
AcDbCircle
 10
10
 20
10
 40
2.77186393400253
100
AcDbArc
 50
228.155133422237
 51
131.8829361591032
  0
LINE
  5
52
100
AcDbEntity
  8
0
  6
ByLayer
 62
    1
370
   -1
100
AcDbLine
 10
8.150845149524685
 20
7.935089346342654
 11
8.149473549524686
 21
12.06368154634265
  0
ENDBLK
  5
4F
330
4D
100
AcDbEntity
  8
0
100
AcDbBlockEnd
  0
ENDSEC
  0
SECTION
  2
ENTITIES
  0
LWPOLYLINE
  5
53
100
AcDbEntity
  8
0
  6
ByLayer
 62
    1
370
   -1
100
AcDbPolyline
 90
  548
 70
    1
 43
0
 10
31.763716
 20
19.3200782
 10
31.953962
 20
19.3297556
 10
32.878522
 20
19.3779648
 10
33.778444
 20
19.5584826
 10
33.957514
 20
19.6329046
 10
34.140902
 20
19.7114668
 10
35.808412
 20
20.8083912
 10
35.957256
 20
20.9393028
 10
36.06876199999999
 20
21.0385152
 10
36.407852
 20
21.3306406
 10
36.863782
 20
21.7950796
 10
37.154612
 20
22.3200722
 10
37.165788
 20
22.770719
 10
37.11041599999999
 20
22.8933502
 10
37.073332
 20
22.9746556
 10
36.670996
 20
23.2612946
 10
36.18865
 20
23.4459272
 10
36.111434
 20
23.4762548
 10
36.01643799999999
 20
23.5148628
 10
35.046412
 20
23.8359188
 10
34.947098
 20
23.8607346
 10
34.759646
 20
23.9103154
 10
33.800542
 20
24.079835
 10
32.828992
 20
24.1129312
 10
32.635952
 20
24.0922556
 10
32.557466
 20
24.0839752
 10
31.844996
 20
23.8841534
 10
31.772098
 20
23.8552228
 10
31.71012199999999
 20
23.831804
 10
31.030672
 20
23.5479082
 10
30.965902
 20
23.5382816
 10
30.936946
 20
23.5354876
 10
30.850078
 20
23.534116
 10
30.799278
 20
23.6306106
 10
30.784038
 20
23.6622844
 10
30.717744
 20
23.7918244
 10
30.059122
 20
25.07615
 10
29.994352
 20
25.2043184
 10
29.979112
 20
25.233249
 10
29.830522
 20
25.467564
 10
29.715968
 20
25.710134
 10
29.71876199999999
 20
25.741884
 10
29.720032
 20
25.766522
 10
29.959808
 20
25.944322
 10
29.9847
 20
25.959562
 10
30.15691199999999
 20
26.071068
 10
30.916372
 20
26.618184
 10
31.55696
 20
27.290776
 10
31.671514
 20
27.465782
 10
31.780226
 20
27.6352
 10
32.590486
 20
29.474922
 10
32.647128
 20
29.666438
 10
32.67329
 20
29.760164
 10
32.91992399999999
 20
30.772862
 10
32.92398799999999
 20
30.870906
 10
32.926782
 20
30.963108
 10
32.718756
 20
31.38627199999999
 10
32.319214
 20
31.6357
 10
32.22828199999999
 20
31.641034
 10
32.128968
 20
31.647892
 10
31.089854
 20
31.503366
 10
30.993588
 20
31.485332
 10
30.89275
 20
31.467552
 10
29.90215
 20
31.2166
 10
29.80563
 20
31.185104
 10
29.62783
 20
31.128462
 10
28.73908399999999
 20
30.76067
 10
27.930094
 20
30.250638
 10
27.792172
 20
30.121098
 10
27.720544
 20
30.055058
 10
27.104594
 20
29.28747
 10
27.045412
 20
29.211778
 10
27.024838
 20
29.186886
 10
26.820622
 20
28.972002
 10
26.79446
 20
28.973272
 10
26.757376
 20
28.977336
 10
26.521664
 20
29.120592
 10
26.298398
 20
29.294328
 10
26.269442
 20
29.313632
 10
26.148284
 20
29.392118
 10
24.9438668
 20
30.169358
 10
24.8253504
 20
30.247844
 10
24.7950482
 20
30.267148
 10
24.7096026
 20
30.329378
 10
24.73579
 20
30.42031
 10
24.7454166
 20
30.449012
 10
24.7660922
 20
30.516576
 10
25.113361
 20
31.16707
 10
25.1464572
 20
31.229046
 10
25.27046
 20
31.471616
 10
25.494996
 20
32.275018
 10
25.568148
 20
33.38703
 10
25.439878
 20
34.51148799999999
 10
25.2594618
 20
35.322002
 10
25.1836428
 20
35.586416
 10
25.160224
 20
35.668966
 10
25.0238006
 20
36.155376
 10
24.7785128
 20
36.570412
 10
24.7013222
 20
36.614354
 10
24.586946
 20
36.680648
 10
24.1060224
 20
36.716462
 10
23.6650276
 20
36.485068
 10
23.572724
 20
36.416234
 10
23.4101132
 20
36.297616
 10
21.9356178
 20
34.920936
 10
21.808821
 20
34.76371
 10
21.7027252
 20
34.635694
 10
21.2052662
 20
33.92043
 10
20.8497424
 20
33.130744
 10
20.8166462
 20
32.96539
 10
20.804251
 20
32.906208
 10
20.7174338
 20
32.30524399999999
 10
20.7091534
 20
32.244792
 10
20.7050132
 20
32.2199
 10
20.6871062
 20
31.934658
 10
20.6388716
 20
31.665926
 10
20.6195676
 20
31.649416
 10
20.6071978
 20
31.639764
 10
20.4170026
 20
31.643828
 10
20.2226926
 20
31.66999
 10
20.2075796
 20
31.66999
 10
20.1317606
 20
31.674308
 10
19.382105
 20
31.71266199999999
 10
19.3077084
 20
31.715456
 10
19.233261
 20
31.719774
 10
18.4987946
 20
31.758382
 10
18.4257696
 20
31.760922
 10
18.4092088
 20
31.762446
 10
18.2383176
 20
31.758382
 10
18.0757322
 20
31.773368
 10
18.0646832
 20
31.78302
 10
18.0454046
 20
31.802324
 10
18.0205888
 20
32.12211
 10
18.0316378
 20
32.456882
 10
18.0316378
 20
32.483044
 10
18.0288946
 20
32.536892
 10
18.0054504
 20
33.065974
 10
18.0013102
 20
33.118298
 10
17.9834032
 20
33.290764
 10
17.6981612
 20
34.125662
 10
17.2626782
 20
34.898838
 10
17.1689776
 20
35.0393
 10
17.0546268
 20
35.210242
 10
15.6958538
 20
36.742624
 10
15.542895
 20
36.877752
 10
15.4615896
 20
36.95065
 10
15.0509478
 20
37.190426
 10
14.5810224
 20
37.17670999999999
 10
14.4721326
 20
37.121846
 10
14.3922496
 20
37.082984
 10
14.1056106
 20
36.65702599999999
 10
13.9195556
 20
36.155376
 10
13.8892534
 20
36.077144
 10
13.7872724
 20
35.81781
 10
13.5323326
 20
35.019996
 10
13.3118606
 20
33.91763599999999
 10
13.2953252
 20
32.80968799999999
 10
13.4523988
 20
31.984188
 10
13.5530082
 20
31.727902
 10
13.5723122
 20
31.678372
 10
13.7376662
 20
31.3436
 10
13.8616944
 20
31.001716
 10
13.8603228
 20
30.946598
 10
13.8589512
 20
30.921706
 10
13.8231118
 20
30.847284
 10
13.7211054
 20
30.799278
 10
13.68806
 20
30.781244
 10
12.1267474
 20
29.981906
 10
12.10056
 20
29.96946
 10
11.8855744
 20
29.833062
 10
11.6637054
 20
29.727144
 10
11.6347748
 20
29.729684
 10
11.611356
 20
29.732478
 10
11.50112
 20
29.862018
 10
11.4060224
 20
30.03169
 10
11.3922556
 20
30.053534
 10
11.3412524
 20
30.133544
 10
10.8148628
 20
30.935676
 10
10.7514644
 20
31.00577999999999
 10
10.6219244
 20
31.14929
 10
9.846106799999999
 20
31.743142
 10
8.979281
 20
32.200596
 10
8.804275000000001
 20
32.275018
 10
8.714714599999999
 20
32.313626
 10
7.803819799999999
 20
32.638746
 10
7.7115162
 20
32.665162
 10
7.6191872
 20
32.692594
 10
7.099655599999999
 20
32.849566
 10
6.571869
 20
32.94888
 10
6.4753998
 20
32.94761
 10
6.378930599999999
 20
32.946086
 10
5.966917199999999
 20
32.70504
 10
5.7478168
 20
32.281876
 10
5.7491884
 20
32.189674
 10
5.7491884
 20
32.091884
 10
5.8856118
 20
31.091378
 10
5.9035188
 20
30.993588
 10
5.9407044
 20
30.792166
 10
6.5856612
 20
28.847796
 10
6.682105
 20
28.665932
 10
6.778548799999999
 20
28.484068
 10
7.355992399999999
 20
27.76194599999999
 10
8.060156600000001
 20
27.151584
 10
8.219998800000001
 20
27.024838
 10
8.251672599999999
 20
26.999946
 10
8.4046568
 20
26.822146
 10
8.399144999999999
 20
26.790396
 10
8.389518399999998
 20
26.747724
 10
8.2406744
 20
26.50109
 10
8.0615282
 20
26.269442
 10
8.0381094
 20
26.232358
 10
7.9636874
 20
26.118058
 10
7.207148399999999
 20
24.9149362
 10
7.1189596
 20
24.8115582
 10
7.098284
 20
24.7881394
 10
7.0307454
 20
24.7192546
 10
6.927392799999999
 20
24.7647206
 10
6.894347399999999
 20
24.781256
 10
6.8281804
 20
24.8157238
 10
6.1694822
 20
25.1560838
 10
6.1047122
 20
25.1891546
 10
6.0399422
 20
25.2236224
 10
5.3922676
 20
25.4635
 10
5.320588799999999
 20
25.477216
 10
5.1277012
 20
25.51582399999999
 10
4.1478962
 20
25.575006
 10
3.1681166
 20
25.49652
 10
2.9765752
 20
25.46477
 10
2.870454
 20
25.44826
 10
1.83554878
 20
25.2112018
 10
1.73357032
 20
25.1808996
 10
1.64951156
 20
25.1560838
 10
1.1796014
 20
25.0182888
 10
0.7978851199999999
 20
24.7605804
 10
0.75792076
 20
24.6751348
 10
0.701421
 20
24.5580154
 10
0.6807530199999999
 20
24.0867184
 10
0.91501722
 20
23.6595412
 10
0.9866782399999999
 20
23.5630974
 10
1.04730804
 20
23.4817666
 10
1.70187874
 20
22.6935284
 10
1.772158
 20
22.6191318
 10
1.90858394
 20
22.4744026
 10
2.6444448
 20
21.8019376
 10
3.461638999999999
 20
21.2314282
 10
3.6380166
 20
21.1377276
 10
3.7000434
 20
21.1046568
 10
4.366996599999999
 20
20.8428082
 10
4.437278399999999
 20
20.8290668
 10
4.497908199999999
 20
20.8180178
 10
5.112537399999999
 20
20.7284574
 10
5.1745388
 20
20.7188054
 10
5.1979576
 20
20.7160622
 10
5.468061199999999
 20
20.6995268
 10
5.7202324
 20
20.6526638
 10
5.735396199999999
 20
20.6333852
 10
5.746445199999999
 20
20.6195676
 10
5.7422796
 20
20.4060044
 10
5.711977399999999
 20
20.186904
 10
5.711977399999999
 20
20.1689716
 10
5.707837199999999
 20
20.0931526
 10
5.669254599999999
 20
19.3311272
 10
5.6651144
 20
19.2539366
 10
5.660999599999999
 20
19.1822832
 10
5.6251602
 20
18.4643268
 10
5.622391599999999
 20
18.3913018
 10
5.62102
 20
18.3733694
 10
5.600344399999999
 20
18.089499
 10
5.5879238
 20
18.0784754
 10
5.560364799999999
 20
18.0564282
 10
5.2214018
 20
18.0302662
 10
4.867249599999999
 20
18.0454046
 10
4.832781799999999
 20
18.042636
 10
4.7845472
 20
18.0412644
 10
4.2994834
 20
18.0205888
 10
4.2526204
 20
18.0151024
 10
4.1740582
 20
18.0068474
 10
3.4161476
 20
17.7711862
 10
3.3444942
 20
17.7395124
 10
3.1598362
 20
17.6595532
 10
1.48828252
 20
16.5336982
 10
1.33945376
 20
16.3986718
 10
1.23058682
 20
16.3021772
 10
0.9026143999999999
 20
16.0141666
 10
0.4644009
 20
15.5553156
 10
0.19705955
 20
15.0385272
 10
0.208083912
 20
14.5948146
 10
0.27009598
 20
14.4762982
 10
0.31143702
 20
14.397736
 10
0.74827384
 20
14.1111224
 10
1.2581509
 20
13.9237212
 10
1.33669532
 20
13.8933682
 10
1.42765018
 20
13.8575796
 10
2.3647146
 20
13.5544052
 10
2.4597995
 20
13.5295894
 10
2.6499566
 20
13.4813294
 10
3.62839
 20
13.3146038
 10
4.6191932
 20
13.2925566
 10
4.816221
 20
13.3173724
 10
4.8975518
 20
13.328396
 10
5.6416956
 20
13.5640318
 10
5.7188354
 20
13.5929878
 10
5.7574434
 20
13.6094978
 10
6.088176799999999
 20
13.7748772
 10
6.423025
 20
13.8947398
 10
6.465747799999999
 20
13.8865102
 10
6.4864234
 20
13.8837416
 10
6.611823199999999
 20
13.6894316
 10
6.624218399999999
 20
13.6646412
 10
6.69036
 20
13.5337296
 10
7.3628504
 20
12.2218196
 10
7.430388999999999
 20
12.089511
 10
7.4400156
 20
12.0702324
 10
7.5668124
 20
11.869039
 10
7.666024800000001
 20
11.6609622
 10
7.661909999999999
 20
11.6375434
 10
7.657744399999999
 20
11.6168678
 10
7.4937874
 20
11.4928396
 10
7.2967088
 20
11.3867184
 10
7.2760332
 20
11.3729516
 10
7.106539
 20
11.2640872
 10
6.378930599999999
 20
10.7183682
 10
5.7684924
 20
10.0459032
 10
5.659602599999999
 20
9.872268800000001
 10
5.552135199999999
 20
9.704146199999999
 10
4.762499999999999
 20
7.875473199999999
 10
4.708779
 20
7.6839572
 10
4.682566199999999
 20
7.592974399999999
 10
4.5310044
 20
7.087235000000001
 10
4.4345352
 20
6.573240599999999
 10
4.4359068
 20
6.4767968
 10
4.4359068
 20
6.374790399999999
 10
4.705984999999999
 20
5.9572398
 10
5.1634898
 20
5.7629298
 10
5.2586128
 20
5.769864
 10
5.462549399999999
 20
5.786374
 10
7.470343199999999
 20
6.183249
 10
7.6646532
 20
6.248019
 10
7.835519
 20
6.3059056
 10
8.703690999999999
 20
6.676593199999999
 10
9.490532199999999
 20
7.1919846
 10
9.620072199999999
 20
7.321524599999999
 10
9.691751
 20
7.393152600000001
 10
10.3311706
 20
8.200694799999999
 10
10.3945182
 20
8.2792824
 10
10.420731
 20
8.3123278
 10
10.4992678
 20
8.414308800000001
 10
10.5888282
 20
8.407399999999999
 10
10.6178096
 20
8.399144999999999
 10
10.6660188
 20
8.3853528
 10
11.1648494
 20
8.044992799999999
 10
11.2075722
 20
8.017433799999999
 10
11.2737138
 20
7.974710999999999
 10
11.9420894
 20
7.5433682
 10
12.0096026
 20
7.499273799999999
 10
12.0509538
 20
7.4731118
 10
12.5663452
 20
7.1575422
 10
12.5993906
 20
7.117562599999999
 10
12.6172976
 20
7.0955154
 10
12.6600204
 20
7.0155816
 10
12.5993906
 20
6.903974
 10
12.5801374
 20
6.865365999999999
 10
12.5470412
 20
6.802018399999999
 10
12.2149362
 20
6.1584332
 10
12.1818654
 20
6.0936632
 10
12.1033032
 20
5.9434984
 10
11.8773194
 20
5.1483768
 10
11.8111778
 20
4.3173904
 10
11.813921
 20
4.1478962
 10
11.8166896
 20
3.9398194
 10
12.1611898
 20
1.8892901
 10
12.2218196
 20
1.68947338
 10
12.2480324
 20
1.6012795
 10
12.3926854
 20
1.14652806
 10
12.6683262
 20
0.79512922
 10
12.7606552
 20
0.75654154
 10
12.8805178
 20
0.7083120199999999
 10
13.3490462
 20
0.7152004999999999
 10
13.7707624
 20
0.9646284999999999
 10
13.8672062
 20
1.03628444
 10
14.0297916
 20
1.15893088
 10
15.5097988
 20
2.5700482
 10
15.6365956
 20
2.7298904
 10
15.7358334
 20
2.8566872
 10
16.2015932
 20
3.552570999999999
 10
16.5295834
 20
4.3173904
 10
16.5598856
 20
4.4786296
 10
16.5709346
 20
4.5433996
 10
16.6660068
 20
5.1924712
 10
16.6756334
 20
5.2571904
 10
16.6783766
 20
5.2792376
 10
16.696309
 20
5.5204106
 10
16.741775
 20
5.739510999999999
 10
16.7597074
 20
5.750559999999999
 10
16.778986
 20
5.7643268
 10
17.0105324
 20
5.7601866
 10
17.248886
 20
5.7257696
 10
17.2723048
 20
5.7243726
 10
17.3494954
 20
5.721629399999999
 10
18.1225952
 20
5.6816498
 10
18.2011574
 20
5.677535
 10
18.2521352
 20
5.674741
 10
18.79092
 20
5.6830468
 10
19.281521
 20
5.62102
 10
19.3077084
 20
5.5824374
 10
19.3311272
 20
5.547995
 10
19.3586862
 20
5.1924712
 10
19.3421254
 20
4.823129799999999
 10
19.344894
 20
4.7804324
 10
19.3462656
 20
4.7377096
 10
19.3655696
 20
4.2994834
 10
19.3711068
 20
4.255388999999999
 10
19.39036
 20
4.0831262
 10
19.686651
 20
3.23977
 10
20.1345038
 20
2.45842028
 10
20.2309984
 20
2.31648254
 10
20.3453746
 20
2.14560404
 10
21.7233754
 20
0.61185044
 10
21.8791028
 20
0.4754245
 10
21.9590366
 20
0.40514524
 10
22.3752156
 20
0.19981545
 10
22.8327204
 20
0.250803156
 10
22.934676
 20
0.30868112
 10
23.0091234
 20
0.3527780599999999
 10
23.2847134
 20
0.7896148799999999
 10
23.4679744
 20
1.29259838
 10
23.4983274
 20
1.36839452
 10
23.5713524
 20
1.55856178
 10
24.0564162
 20
3.5277806
 10
24.0743232
 20
3.7303456
 10
24.090884
 20
3.9191438
 10
24.0481612
 20
4.7872904
 10
23.8345472
 20
5.6237632
 10
23.767034
 20
5.7973976
 10
23.7532418
 20
5.8304684
 10
23.5947712
 20
6.147435
 10
23.480395
 20
6.467119399999999
 10
23.4900216
 20
6.501587199999999
 10
23.4941872
 20
6.518122599999999
 10
23.7436152
 20
6.6518028
 10
23.7615222
 20
6.660057800000001
 10
23.8910622
 20
6.727571
 10
25.1891546
 20
7.391781
 10
25.3200662
 20
7.4579226
 10
25.3379732
 20
7.467599999999999
 10
25.533604
 20
7.591602799999999
 10
25.734772
 20
7.686700399999999
 10
25.7556
 20
7.681163199999999
 10
25.776174
 20
7.6770484
 10
25.916636
 20
7.4799952
 10
26.036778
 20
7.2553576
 10
26.04897
 20
7.236078999999999
 10
26.09723
 20
7.1602854
 10
26.608532
 20
6.405143399999999
 10
26.67203199999999
 20
6.3390018
 10
26.804112
 20
6.201155999999999
 10
27.577288
 20
5.6265318
 10
28.435808
 20
5.1800506
 10
28.610814
 20
5.105653999999999
 10
28.70327
 20
5.067045999999999
 10
29.66085
 20
4.734941
 10
29.75864
 20
4.707407399999999
 10
29.845508
 20
4.6839378
 10
30.337506
 20
4.5392594
 10
30.836362
 20
4.4510706
 10
30.927294
 20
4.4551854
 10
31.04032399999999
 20
4.460697199999999
 10
31.451042
 20
4.754245
 10
31.61919
 20
5.2365656
 10
31.610808
 20
5.3371496
 10
31.601156
 20
5.4363874
 10
31.464758
 20
6.409258199999999
 10
31.446724
 20
6.5057274
 10
31.406846
 20
6.705523799999999
 10
30.743906
 20
8.633434599999999
 10
30.646116
 20
8.8111838
 10
30.545532
 20
8.991701599999999
 10
29.946092
 20
9.706889399999998
 10
29.225494
 20
10.3146352
 10
29.066998
 20
10.4414066
 10
29.036772
 20
10.4648254
 10
28.952698
 20
10.540619
 10
28.988512
 20
10.6301794
 10
29.002228
 20
10.65911
 10
29.02712
 20
10.7128818
 10
29.37002
 20
11.2282478
 10
29.403294
 20
11.2778794
 10
29.44596599999999
 20
11.3453926
 10
29.877258
 20
12.0137428
 10
29.921454
 20
12.0798844
 10
29.944822
 20
12.1170954
 10
30.246574
 20
12.6131828
 10
30.282388
 20
12.6379732
 10
30.305756
 20
12.6559056
 10
30.409134
 20
12.6614174
 10
30.531816
 20
12.589764
 10
30.5689
 20
12.57046
 10
30.6324
 20
12.5374146
 10
31.273242
 20
12.2066812
 10
31.338012
 20
12.173585
 10
31.401258
 20
12.1405396
 10
32.068262
 20
11.9214138
 10
32.13988999999999
 20
11.9076216
 10
32.335724
 20
11.8732046
 10
34.32556
 20
11.9227854
 10
34.52114
 20
11.9572278
 10
34.623248
 20
11.9765318
 10
35.64001
 20
12.2204226
 10
35.741102
 20
12.2507756
 10
35.83305
 20
12.2797062
 10
36.2839
 20
12.432665
 10
36.614354
 20
12.7330962
 10
36.647628
 20
12.8336548
 10
36.664138
 20
12.8860296
 10
36.712144
 20
13.3504432
 10
36.69029999999999
 20
13.4027926
 10
36.669472
 20
13.448284
 10
36.35120999999999
 20
13.8809984
 10
36.322254
 20
13.9195556
 10
36.260278
 20
14.000861
 10
35.601656
 20
14.7794472
 10
35.531552
 20
14.8524976
 10
35.3949
 20
14.9958044
 10
34.656268
 20
15.6545026
 10
33.836356
 20
16.2098482
 10
33.66135
 20
16.299434
 10
33.602168
 20
16.3297616
 10
32.986218
 20
16.5612572
 10
32.921448
 20
16.5723062
 10
32.857948
 20
16.584676
 10
32.223964
 20
16.677005
 10
32.160718
 20
16.6866824
 10
32.13988999999999
 20
16.6907972
 10
31.886398
 20
16.7073326
 10
31.646622
 20
16.7514524
 10
31.634176
 20
16.7679878
 10
31.623254
 20
16.7817546
 10
31.627318
 20
16.981551
 10
31.65500399999999
 20
17.1882816
 10
31.656274
 20
17.2047916
 10
31.659068
 20
17.2750988
 10
31.694882
 20
17.9737512
 10
31.698946
 20
18.042636
 10
31.698946
 20
18.0633116
 10
31.708598
 20
18.2769256
 10
31.729426
 20
18.7123832
 10
31.75
 20
19.1327024
 10
31.759652
 20
19.3200782
  0
LWPOLYLINE
  5
54
100
AcDbEntity
  8
0
  6
ByLayer
 62
    1
370
   -1
100
AcDbPolyline
 90
   21
 70
    1
 43
0
 10
16.843756
 20
20.7642968
 10
16.9664126
 20
20.8745328
 10
17.684369
 20
21.2837776
 10
18.439511
 20
21.4712296
 10
18.6917076
 20
21.4712296
 10
18.9604396
 20
21.4712296
 10
19.7693534
 20
21.2548724
 10
20.6512922
 20
20.6609188
 10
21.2452204
 20
19.7803516
 10
21.4629238
 20
18.9714378
 10
21.4629238
 20
18.7013596
 10
21.4629238
 20
18.4326276
 10
21.2452204
 20
17.6237138
 10
20.6512922
 20
16.741775
 10
19.7693534
 20
16.1478468
 10
18.9604396
 20
15.9301434
 10
18.6917076
 20
15.9301434
 10
18.439511
 20
15.9301434
 10
17.6857406
 20
16.1189162
 10
16.9678096
 20
16.5268148
 10
16.8451276
 20
16.6357046
  0
INSERT
  5
55
100
AcDbEntity
  8
0
  6
ByLayer
 62
    1
370
   -1
100
AcDbBlockReference
  2
LunAero_acetal_gear_metric_6tooth
 10
50
 20
10
 30
0
 41
1
 42
1
 43
0
 50
0
 70
    1
 71
    1
 44
0
 45
0
  0
ENDSEC
  0
SECTION
  2
OBJECTS
  0
DICTIONARY
  5
C
330
0
100
AcDbDictionary
281
    1
  3
ACAD_GROUP
350
D
  0
DICTIONARY
  5
D
330
C
100
AcDbDictionary
281
    1
  0
ENDSEC
  0
EOF
