999
dxfrw 0.6.3
  0
SECTION
  2
HEADER
  9
$ACADVER
  1
AC1021
  9
$DWGCODEPAGE
  3
ANSI_1252
  9
$INSBASE
 10
0
 20
0
 30
0
  9
$EXTMIN
 10
-7.105427357601002e-15
 20
-18.303428224
 30
0
  9
$EXTMAX
 10
600.6718999999999
 20
316.1741704
 30
0
  9
$LIMMIN
 10
0
 20
0
  9
$LIMMAX
 10
420
 20
297
  9
$ORTHOMODE
 70
    0
  9
$REGENMODE
 70
    1
  9
$FILLMODE
 70
    0
  9
$QTEXTMODE
 70
    0
  9
$MIRRTEXT
 70
    0
  9
$LTSCALE
 40
1
  9
$ATTMODE
 70
    0
  9
$TEXTSIZE
 40
2.5
  9
$TRACEWID
 40
15.68
  9
$TEXTSTYLE
  7
STANDARD
  9
$CLAYER
  8
red
  9
$CELTYPE
  6
BYLAYER
  9
$CECOLOR
 62
  256
  9
$CELTSCALE
 40
1
  9
$DISPSILH
 70
    0
  9
$DIMSCALE
 40
2.5
  9
$DIMASZ
 40
2.5
  9
$DIMEXO
 40
0.625
  9
$DIMDLI
 40
3.75
  9
$DIMRND
 40
0
  9
$DIMDLE
 40
0
  9
$DIMEXE
 40
1.25
  9
$DIMTP
 40
0
  9
$DIMTM
 40
0
  9
$DIMTXT
 40
2.5
  9
$DIMCEN
 40
2.5
  9
$DIMTSZ
 40
0
  9
$DIMTOL
 70
    0
  9
$DIMLIM
 70
    0
  9
$DIMTIH
 70
    0
  9
$DIMTOH
 70
    0
  9
$DIMSE1
 70
    0
  9
$DIMSE2
 70
    0
  9
$DIMTAD
 70
    1
  9
$DIMZIN
 70
    8
  9
$DIMBLK
  1

  9
$DIMASO
 70
    1
  9
$DIMSHO
 70
    1
  9
$DIMPOST
  1

  9
$DIMAPOST
  1

  9
$DIMALT
 70
    0
  9
$DIMALTD
 70
    3
  9
$DIMALTF
 40
0.03937
  9
$DIMLFAC
 40
1
  9
$DIMTOFL
 70
    1
  9
$DIMTVP
 40
0
  9
$DIMTIX
 70
    0
  9
$DIMSOXD
 70
    0
  9
$DIMSAH
 70
    0
  9
$DIMBLK1
  1

  9
$DIMBLK2
  1

  9
$DIMSTYLE
  2
Standard
  9
$DIMCLRD
 70
    0
  9
$DIMCLRE
 70
    0
  9
$DIMCLRT
 70
    0
  9
$DIMTFAC
 40
1
  9
$DIMGAP
 40
0.625
  9
$DIMJUST
 70
    0
  9
$DIMSD1
 70
    0
  9
$DIMSD2
 70
    0
  9
$DIMTOLJ
 70
    0
  9
$DIMTZIN
 70
    8
  9
$DIMALTZ
 70
    0
  9
$DIMALTTZ
 70
    0
  9
$DIMUPT
 70
    0
  9
$DIMDEC
 70
    2
  9
$DIMTDEC
 70
    2
  9
$DIMALTU
 70
    2
  9
$DIMALTTD
 70
    3
  9
$DIMTXSTY
  7
STANDARD
  9
$DIMAUNIT
 70
    0
  9
$DIMADEC
 70
    0
  9
$DIMALTRND
 40
0
  9
$DIMAZIN
 70
    0
  9
$DIMDSEP
 70
   44
  9
$DIMATFIT
 70
    3
  9
$DIMFRAC
 70
    0
  9
$DIMLDRBLK
  1
STANDARD
  9
$DIMLUNIT
 70
    2
  9
$DIMLWD
 70
   -2
  9
$DIMLWE
 70
   -2
  9
$DIMTMOVE
 70
    0
  9
$DIMFXL
 40
1
  9
$DIMFXLON
 70
    0
  9
$DIMJOGANG
 40
0.7854
  9
$DIMTFILL
 70
    0
  9
$DIMTFILLCLR
 70
    0
  9
$DIMARCSYM
 70
    0
  9
$DIMLTYPE
  6

  9
$DIMLTEX1
  6

  9
$DIMLTEX2
  6

  9
$LUNITS
 70
    2
  9
$LUPREC
 70
    4
  9
$SKETCHINC
 40
1
  9
$FILLETRAD
 40
0
  9
$AUNITS
 70
    0
  9
$AUPREC
 70
    2
  9
$MENU
  1
.
  9
$ELEVATION
 40
0
  9
$PELEVATION
 40
0
  9
$THICKNESS
 40
0
  9
$LIMCHECK
 70
    0
  9
$CHAMFERA
 40
0
  9
$CHAMFERB
 40
0
  9
$CHAMFERC
 40
0
  9
$CHAMFERD
 40
0
  9
$SKPOLY
 70
    0
  9
$USRTIMER
 70
    1
  9
$ANGBASE
 50
0
  9
$ANGDIR
 70
    0
  9
$PDMODE
 70
   34
  9
$PDSIZE
 40
0
  9
$PLINEWID
 40
0
  9
$SPLFRAME
 70
    1
  9
$SPLINETYPE
 70
    2
  9
$SPLINESEGS
 70
    8
  9
$HANDSEED
  5
20000
  9
$SURFTAB1
 70
    6
  9
$SURFTAB2
 70
    6
  9
$SURFTYPE
 70
    6
  9
$SURFU
 70
    6
  9
$SURFV
 70
    6
  9
$UCSBASE
  2

  9
$UCSNAME
  2

  9
$UCSORG
 10
0
 20
0
 30
0
  9
$UCSXDIR
 10
1
 20
0
 30
0
  9
$UCSYDIR
 10
0
 20
1
 30
0
  9
$UCSORTHOREF
  2

  9
$UCSORTHOVIEW
 70
    0
  9
$UCSORGTOP
 10
0
 20
0
 30
0
  9
$UCSORGBOTTOM
 10
0
 20
0
 30
0
  9
$UCSORGLEFT
 10
0
 20
0
 30
0
  9
$UCSORGRIGHT
 10
0
 20
0
 30
0
  9
$UCSORGFRONT
 10
0
 20
0
 30
0
  9
$UCSORGBACK
 10
0
 20
0
 30
0
  9
$PUCSBASE
  2

  9
$PUCSNAME
  2

  9
$PUCSORG
 10
0
 20
0
 30
0
  9
$PUCSXDIR
 10
1
 20
0
 30
0
  9
$PUCSYDIR
 10
0
 20
1
 30
0
  9
$PUCSORTHOREF
  2

  9
$PUCSORTHOVIEW
 70
    0
  9
$PUCSORGTOP
 10
0
 20
0
 30
0
  9
$PUCSORGBOTTOM
 10
0
 20
0
 30
0
  9
$PUCSORGLEFT
 10
0
 20
0
 30
0
  9
$PUCSORGRIGHT
 10
0
 20
0
 30
0
  9
$PUCSORGFRONT
 10
0
 20
0
 30
0
  9
$PUCSORGBACK
 10
0
 20
0
 30
0
  9
$USERI1
 70
    0
  9
$USERI2
 70
    0
  9
$USERI3
 70
    0
  9
$USERI4
 70
    0
  9
$USERI5
 70
    0
  9
$USERR1
 40
0
  9
$USERR2
 40
0
  9
$USERR3
 40
0
  9
$USERR4
 40
0
  9
$USERR5
 40
0
  9
$WORLDVIEW
 70
    1
  9
$SHADEDGE
 70
    3
  9
$SHADEDIF
 70
   70
  9
$TILEMODE
 70
    1
  9
$MAXACTVP
 70
   64
  9
$PINSBASE
 10
0
 20
0
 30
0
  9
$PLIMCHECK
 70
    0
  9
$PEXTMIN
 10
0
 20
0
 30
0
  9
$PEXTMAX
 10
0
 20
0
 30
0
  9
$GRIDMODE
 70
    1
  9
$SNAPSTYLE
 70
    0
  9
$PLIMMIN
 10
0
 20
0
  9
$PLIMMAX
 10
2.642760571031714e-05
 20
2.042133168524506e-05
  9
$UNITMODE
 70
    0
  9
$VISRETAIN
 70
    1
  9
$PLINEGEN
 70
    0
  9
$PSLTSCALE
 70
    1
  9
$TREEDEPTH
 70
 3020
  9
$CMLSTYLE
  2
Standard
  9
$CMLJUST
 70
    0
  9
$CMLSCALE
 40
20
  9
$PROXYGRAPHICS
 70
    1
  9
$MEASUREMENT
 70
    1
  9
$CELWEIGHT
370
   -1
  9
$ENDCAPS
280
    0
  9
$JOINSTYLE
280
    0
  9
$LWDISPLAY
290
    0
  9
$INSUNITS
 70
    4
  9
$HYPERLINKBASE
  1

  9
$STYLESHEET
  1

  9
$XEDIT
290
    1
  9
$CEPSNTYPE
380
    0
  9
$PSTYLEMODE
290
    1
  9
$EXTNAMES
290
    1
  9
$PSVPSCALE
 40
1
  9
$OLESTARTUP
290
    0
  9
$SORTENTS
280
  127
  9
$INDEXCTL
280
    0
  9
$HIDETEXT
280
    1
  9
$XCLIPFRAME
290
    0
  9
$HALOGAP
280
    0
  9
$OBSCOLOR
 70
  257
  9
$OBSLTYPE
280
    0
  9
$INTERSECTIONDISPLAY
280
    0
  9
$INTERSECTIONCOLOR
 70
  257
  9
$DIMASSOC
280
    1
  9
$PROJECTNAME
  1

  9
$CAMERADISPLAY
290
    0
  9
$LENSLENGTH
 40
50
  9
$CAMERAHEIGHT
 40
0
  9
$STEPSPERSEC
 40
2
  9
$STEPSIZE
 40
50
  9
$3DDWFPREC
 40
2
  9
$PSOLWIDTH
 40
5
  9
$PSOLHEIGHT
 40
80
  9
$LOFTANG1
 40
1.570796326794897
  9
$LOFTANG2
 40
1.570796326794897
  9
$LOFTMAG1
 40
0
  9
$LOFTMAG2
 40
0
  9
$LOFTPARAM
 70
    7
  9
$LOFTNORMALS
280
    1
  9
$LATITUDE
 40
1
  9
$LONGITUDE
 40
1
  9
$NORTHDIRECTION
 40
0
  9
$TIMEZONE
 70
-8000
  9
$LIGHTGLYPHDISPLAY
280
    1
  9
$TILEMODELIGHTSYNCH
280
    1
  9
$SOLIDHIST
280
    1
  9
$SHOWHIST
280
    1
  9
$DWFFRAME
280
    2
  9
$DGNFRAME
280
    0
  9
$REALWORLDSCALE
290
    1
  9
$INTERFERECOLOR
 62
    1
  9
$CSHADOW
280
    0
  9
$SHADOWPLANELOCATION
 40
0
  0
ENDSEC
  0
SECTION
  2
CLASSES
  0
ENDSEC
  0
SECTION
  2
TABLES
  0
TABLE
  2
VPORT
  5
8
330
0
100
AcDbSymbolTable
 70
    1
  0
VPORT
  5
31
330
2
100
AcDbSymbolTableRecord
100
AcDbViewportTableRecord
  2
*ACTIVE
 70
    0
 10
0
 20
0
 11
1
 21
1
 12
173.3036850899729
 22
192.6209748293011
 13
0
 23
0
 14
10
 24
10
 15
10
 25
10
 16
0
 26
0
 36
1
 17
0
 27
0
 37
0
 40
289.207423525942
 41
1.952926208651399
 42
50
 43
0
 44
0
 50
0
 51
0
 71
    0
 72
  100
 73
    1
 74
    3
 75
    0
 76
    1
 77
    0
 78
    0
281
    0
 65
    1
110
0
120
0
130
0
111
1
121
0
131
0
112
0
122
1
132
0
 79
    0
146
0
348
10020
 60
    7
 61
    5
292
1
282
    1
141
0
142
0
 63
  250
421
3358443
  0
ENDTAB
  0
TABLE
  2
LTYPE
  5
5
330
0
100
AcDbSymbolTable
 70
    4
  0
LTYPE
  5
14
330
5
100
AcDbSymbolTableRecord
100
AcDbLinetypeTableRecord
  2
ByBlock
 70
    0
  3

 72
   65
 73
    0
 40
0
  0
LTYPE
  5
15
330
5
100
AcDbSymbolTableRecord
100
AcDbLinetypeTableRecord
  2
ByLayer
 70
    0
  3

 72
   65
 73
    0
 40
0
  0
LTYPE
  5
16
330
5
100
AcDbSymbolTableRecord
100
AcDbLinetypeTableRecord
  2
Continuous
 70
    0
  3
Solid line
 72
   65
 73
    0
 40
0
  0
LTYPE
  5
32
330
5
100
AcDbSymbolTableRecord
100
AcDbLinetypeTableRecord
  2
DOT
 70
    0
  3
Dot . . . . . . . . . . . . . . . . . . . . . .
 72
   65
 73
    2
 40
6.35
 49
0
 74
    0
 49
-6.35
 74
    0
  0
LTYPE
  5
33
330
5
100
AcDbSymbolTableRecord
100
AcDbLinetypeTableRecord
  2
DOTTINY
 70
    0
  3
Dot (.15x) .....................................
 72
   65
 73
    2
 40
0.9525
 49
0
 74
    0
 49
-0.9525
 74
    0
  0
LTYPE
  5
34
330
5
100
AcDbSymbolTableRecord
100
AcDbLinetypeTableRecord
  2
DOT2
 70
    0
  3
Dot (.5x) .....................................
 72
   65
 73
    2
 40
3.175
 49
0
 74
    0
 49
-3.175
 74
    0
  0
LTYPE
  5
35
330
5
100
AcDbSymbolTableRecord
100
AcDbLinetypeTableRecord
  2
DOTX2
 70
    0
  3
Dot (2x) .  .  .  .  .  .  .  .  .  .  .  .  .
 72
   65
 73
    2
 40
12.7
 49
0
 74
    0
 49
-12.7
 74
    0
  0
LTYPE
  5
36
330
5
100
AcDbSymbolTableRecord
100
AcDbLinetypeTableRecord
  2
DASHED
 70
    0
  3
Dashed _ _ _ _ _ _ _ _ _ _ _ _ _ _ _ _ _
 72
   65
 73
    2
 40
19.05
 49
12.7
 74
    0
 49
-6.35
 74
    0
  0
LTYPE
  5
37
330
5
100
AcDbSymbolTableRecord
100
AcDbLinetypeTableRecord
  2
DASHEDTINY
 70
    0
  3
Dashed (.15x) _ _ _ _ _ _ _ _ _ _ _ _ _ _ _ _ _
 72
   65
 73
    2
 40
2.8575
 49
1.905
 74
    0
 49
-0.9525
 74
    0
  0
LTYPE
  5
38
330
5
100
AcDbSymbolTableRecord
100
AcDbLinetypeTableRecord
  2
DASHED2
 70
    0
  3
Dashed (.5x) _ _ _ _ _ _ _ _ _ _ _ _ _ _ _ _ _
 72
   65
 73
    2
 40
9.524999999999999
 49
6.35
 74
    0
 49
-3.175
 74
    0
  0
LTYPE
  5
39
330
5
100
AcDbSymbolTableRecord
100
AcDbLinetypeTableRecord
  2
DASHEDX2
 70
    0
  3
Dashed (2x) ____  ____  ____  ____  ____  ___
 72
   65
 73
    2
 40
38.09999999999999
 49
25.4
 74
    0
 49
-12.7
 74
    0
  0
LTYPE
  5
3A
330
5
100
AcDbSymbolTableRecord
100
AcDbLinetypeTableRecord
  2
DASHDOT
 70
    0
  3
Dash dot __ . __ . __ . __ . __ . __ . __ . __
 72
   65
 73
    4
 40
25.4
 49
12.7
 74
    0
 49
-6.35
 74
    0
 49
0
 74
    0
 49
-6.35
 74
    0
  0
LTYPE
  5
3B
330
5
100
AcDbSymbolTableRecord
100
AcDbLinetypeTableRecord
  2
DASHDOTTINY
 70
    0
  3
Dash dot (.15x) _._._._._._._._._._._._._._._.
 72
   65
 73
    4
 40
3.81
 49
1.905
 74
    0
 49
-0.9525
 74
    0
 49
0
 74
    0
 49
-0.9525
 74
    0
  0
LTYPE
  5
3C
330
5
100
AcDbSymbolTableRecord
100
AcDbLinetypeTableRecord
  2
DASHDOT2
 70
    0
  3
Dash dot (.5x) _._._._._._._._._._._._._._._.
 72
   65
 73
    4
 40
12.7
 49
6.35
 74
    0
 49
-3.175
 74
    0
 49
0
 74
    0
 49
-3.175
 74
    0
  0
LTYPE
  5
3D
330
5
100
AcDbSymbolTableRecord
100
AcDbLinetypeTableRecord
  2
DASHDOTX2
 70
    0
  3
Dash dot (2x) ____  .  ____  .  ____  .  ___
 72
   65
 73
    4
 40
50.8
 49
25.4
 74
    0
 49
-12.7
 74
    0
 49
0
 74
    0
 49
-12.7
 74
    0
  0
LTYPE
  5
3E
330
5
100
AcDbSymbolTableRecord
100
AcDbLinetypeTableRecord
  2
DIVIDE
 70
    0
  3
Divide ____ . . ____ . . ____ . . ____ . . ____
 72
   65
 73
    6
 40
31.75
 49
12.7
 74
    0
 49
-6.35
 74
    0
 49
0
 74
    0
 49
-6.35
 74
    0
 49
0
 74
    0
 49
-6.35
 74
    0
  0
LTYPE
  5
3F
330
5
100
AcDbSymbolTableRecord
100
AcDbLinetypeTableRecord
  2
DIVIDETINY
 70
    0
  3
Divide (.15x) __..__..__..__..__..__..__..__.._
 72
   65
 73
    6
 40
4.7625
 49
1.905
 74
    0
 49
-0.9525
 74
    0
 49
0
 74
    0
 49
-0.9525
 74
    0
 49
0
 74
    0
 49
-0.9525
 74
    0
  0
LTYPE
  5
40
330
5
100
AcDbSymbolTableRecord
100
AcDbLinetypeTableRecord
  2
DIVIDE2
 70
    0
  3
Divide (.5x) __..__..__..__..__..__..__..__.._
 72
   65
 73
    6
 40
15.875
 49
6.35
 74
    0
 49
-3.175
 74
    0
 49
0
 74
    0
 49
-3.175
 74
    0
 49
0
 74
    0
 49
-3.175
 74
    0
  0
LTYPE
  5
41
330
5
100
AcDbSymbolTableRecord
100
AcDbLinetypeTableRecord
  2
DIVIDEX2
 70
    0
  3
Divide (2x) ________  .  .  ________  .  .  _
 72
   65
 73
    6
 40
63.5
 49
25.4
 74
    0
 49
-12.7
 74
    0
 49
0
 74
    0
 49
-12.7
 74
    0
 49
0
 74
    0
 49
-12.7
 74
    0
  0
LTYPE
  5
42
330
5
100
AcDbSymbolTableRecord
100
AcDbLinetypeTableRecord
  2
BORDER
 70
    0
  3
Border __ __ . __ __ . __ __ . __ __ . __ __ .
 72
   65
 73
    6
 40
44.45
 49
12.7
 74
    0
 49
-6.35
 74
    0
 49
12.7
 74
    0
 49
-6.35
 74
    0
 49
0
 74
    0
 49
-6.35
 74
    0
  0
LTYPE
  5
43
330
5
100
AcDbSymbolTableRecord
100
AcDbLinetypeTableRecord
  2
BORDERTINY
 70
    0
  3
Border (.15x) __.__.__.__.__.__.__.__.__.__.__.
 72
   65
 73
    6
 40
6.6675
 49
1.905
 74
    0
 49
-0.9525
 74
    0
 49
1.905
 74
    0
 49
-0.9525
 74
    0
 49
0
 74
    0
 49
-0.9525
 74
    0
  0
LTYPE
  5
44
330
5
100
AcDbSymbolTableRecord
100
AcDbLinetypeTableRecord
  2
BORDER2
 70
    0
  3
Border (.5x) __.__.__.__.__.__.__.__.__.__.__.
 72
   65
 73
    6
 40
22.225
 49
6.35
 74
    0
 49
-3.175
 74
    0
 49
6.35
 74
    0
 49
-3.175
 74
    0
 49
0
 74
    0
 49
-3.175
 74
    0
  0
LTYPE
  5
45
330
5
100
AcDbSymbolTableRecord
100
AcDbLinetypeTableRecord
  2
BORDERX2
 70
    0
  3
Border (2x) ____  ____  .  ____  ____  .  ___
 72
   65
 73
    6
 40
88.89999999999999
 49
25.4
 74
    0
 49
-12.7
 74
    0
 49
25.4
 74
    0
 49
-12.7
 74
    0
 49
0
 74
    0
 49
-12.7
 74
    0
  0
LTYPE
  5
46
330
5
100
AcDbSymbolTableRecord
100
AcDbLinetypeTableRecord
  2
CENTER
 70
    0
  3
Center ____ _ ____ _ ____ _ ____ _ ____ _ ____
 72
   65
 73
    4
 40
50.8
 49
31.75
 74
    0
 49
-6.35
 74
    0
 49
6.35
 74
    0
 49
-6.35
 74
    0
  0
LTYPE
  5
47
330
5
100
AcDbSymbolTableRecord
100
AcDbLinetypeTableRecord
  2
CENTERTINY
 70
    0
  3
Center (.15x) ___ _ ___ _ ___ _ ___ _ ___ _ ___
 72
   65
 73
    4
 40
7.619999999999999
 49
4.7625
 74
    0
 49
-0.9525
 74
    0
 49
0.9525
 74
    0
 49
-0.9525
 74
    0
  0
LTYPE
  5
48
330
5
100
AcDbSymbolTableRecord
100
AcDbLinetypeTableRecord
  2
CENTER2
 70
    0
  3
Center (.5x) ___ _ ___ _ ___ _ ___ _ ___ _ ___
 72
   65
 73
    4
 40
28.575
 49
19.05
 74
    0
 49
-3.175
 74
    0
 49
3.175
 74
    0
 49
-3.175
 74
    0
  0
LTYPE
  5
49
330
5
100
AcDbSymbolTableRecord
100
AcDbLinetypeTableRecord
  2
CENTERX2
 70
    0
  3
Center (2x) ________  __  ________  __  _____
 72
   65
 73
    4
 40
101.6
 49
63.5
 74
    0
 49
-12.7
 74
    0
 49
12.7
 74
    0
 49
-12.7
 74
    0
  0
ENDTAB
  0
TABLE
  2
LAYER
  5
2
330
0
100
AcDbSymbolTable
 70
    1
  0
LAYER
  5
10
330
2
100
AcDbSymbolTableRecord
100
AcDbLayerTableRecord
  2
0
 70
    1
 62
    7
  6
CONTINUOUS
370
   -3
390
F
  0
LAYER
  5
4A
330
2
100
AcDbSymbolTableRecord
100
AcDbLayerTableRecord
  2
blue
 70
    1
 62
    5
  6
CONTINUOUS
370
    0
390
F
  0
LAYER
  5
4B
330
2
100
AcDbSymbolTableRecord
100
AcDbLayerTableRecord
  2
green
 70
    1
 62
    3
  6
CONTINUOUS
370
    0
390
F
  0
LAYER
  5
4C
330
2
100
AcDbSymbolTableRecord
100
AcDbLayerTableRecord
  2
red
 70
    0
 62
    1
  6
CONTINUOUS
290
0
370
    0
390
F
  0
ENDTAB
  0
TABLE
  2
STYLE
  5
3
330
0
100
AcDbSymbolTable
 70
    3
  0
STYLE
  5
4D
330
2
100
AcDbSymbolTableRecord
100
AcDbTextStyleTableRecord
  2
Standard
 70
    0
 40
0
 41
1
 50
0
 71
    0
 42
1
  3
txt
  4

  0
ENDTAB
  0
TABLE
  2
VIEW
  5
6
330
0
100
AcDbSymbolTable
 70
    0
  0
ENDTAB
  0
TABLE
  2
UCS
  5
7
330
0
100
AcDbSymbolTable
 70
    0
  0
ENDTAB
  0
TABLE
  2
APPID
  5
9
330
0
100
AcDbSymbolTable
 70
    1
  0
APPID
  5
12
330
9
100
AcDbSymbolTableRecord
100
AcDbRegAppTableRecord
  2
ACAD
 70
    0
  0
APPID
  5
4E
330
9
100
AcDbSymbolTableRecord
100
AcDbRegAppTableRecord
  2
LibreCad
 70
    0
  0
ENDTAB
  0
TABLE
  2
DIMSTYLE
  5
A
330
0
100
AcDbSymbolTable
 70
    1
100
AcDbDimStyleTable
 71
    1
  0
DIMSTYLE
105
4F
330
A
100
AcDbSymbolTableRecord
100
AcDbDimStyleTableRecord
  2
Standard
 70
    0
 40
2.5
 41
2.5
 42
0.625
 43
0.38
 44
1.25
 45
0
 46
0
 47
0
 48
0
 49
1
140
2.5
141
0.09
142
0
143
25.4
144
1
145
0
146
1
147
0.625
148
0
 71
    0
 72
    0
 73
    0
 74
    1
 75
    0
 76
    0
 77
    0
 78
    8
 79
    0
170
    0
171
    2
172
    0
173
    0
174
    0
175
    0
176
    0
177
    0
178
    0
179
    0
271
    2
272
    4
273
    2
274
    2
275
    0
276
    0
277
    2
278
   44
279
    0
280
    0
281
    0
282
    0
283
    1
284
    0
285
    0
286
    0
288
    0
289
    3
340
STANDARD
341

371
   -2
372
   -2
  0
ENDTAB
  0
TABLE
  2
BLOCK_RECORD
  5
1
330
0
100
AcDbSymbolTable
 70
    2
  0
BLOCK_RECORD
  5
1F
330
1
100
AcDbSymbolTableRecord
100
AcDbBlockTableRecord
  2
*Model_Space
 70
    0
280
    1
281
    0
  0
BLOCK_RECORD
  5
1E
330
1
100
AcDbSymbolTableRecord
100
AcDbBlockTableRecord
  2
*Paper_Space
 70
    0
280
    1
281
    0
  0
ENDTAB
  0
ENDSEC
  0
SECTION
  2
BLOCKS
  0
BLOCK
  5
20
330
1F
100
AcDbEntity
  8
0
100
AcDbBlockBegin
  2
*Model_Space
 70
    0
 10
0
 20
0
 30
0
  3
*Model_Space
  1

  0
ENDBLK
  5
21
330
1F
100
AcDbEntity
  8
0
100
AcDbBlockEnd
  0
BLOCK
  5
1C
330
1B
100
AcDbEntity
  8
0
100
AcDbBlockBegin
  2
*Paper_Space
 70
    0
 10
0
 20
0
 30
0
  3
*Paper_Space
  1

  0
ENDBLK
  5
1D
330
1F
100
AcDbEntity
  8
0
100
AcDbBlockEnd
  0
ENDSEC
  0
SECTION
  2
ENTITIES
  0
LWPOLYLINE
  5
50
100
AcDbEntity
  8
green
  6
ByLayer
 62
    3
370
   -1
100
AcDbPolyline
 90
   12
 70
    0
 43
0
 10
291.7215399999999
 20
278.79548
 10
299.6590399999999
 20
278.79548
 10
299.6590399999999
 20
276.606
 10
302.83404
 20
276.606
 10
302.83404
 20
278.79548
 10
306.6668999999999
 20
278.79548
 10
306.6668999999999
 20
282.35148
 10
302.83404
 20
282.35402
 10
302.83404
 20
284.5435
 10
299.6590399999999
 20
284.5435
 10
299.6590399999999
 20
282.35148
 10
291.7215399999999
 20
282.35148
  0
LWPOLYLINE
  5
51
100
AcDbEntity
  8
blue
  6
ByLayer
 62
    5
370
   -1
100
AcDbPolyline
 90
   14
 70
    1
 43
0
 10
489.8771
 20
138.423904
 10
488.7594999999999
 20
138.423904
 10
482.93782
 20
143.081756
 10
482.83368
 20
143.164306
 10
481.93198
 20
143.949928
 10
481.85832
 20
144.02435
 10
481.85832
 20
138.951716
 10
480.78644
 20
138.951716
 10
480.78644
 20
145.463006
 10
481.85832
 20
145.463006
 10
488.1626
 20
140.358622
 10
488.80522
 20
139.807696
 10
488.80522
 20
145.61185
 10
489.8771
 20
145.61185
  0
LWPOLYLINE
  5
52
100
AcDbEntity
  8
blue
  6
ByLayer
 62
    5
370
   -1
100
AcDbPolyline
 90
   24
 70
    1
 43
0
 10
469.43772
 20
186.134502
 10
474.17482
 20
182.618888
 10
478.52838
 20
185.719466
 10
478.52838
 20
184.286652
 10
476.19412
 20
182.636922
 10
476.0747399999999
 20
182.551578
 10
475.1425599999999
 20
181.942232
 10
475.07906
 20
181.905402
 10
475.16034
 20
181.855618
 10
476.02394
 20
181.256178
 10
476.11538
 20
181.186074
 10
478.52838
 20
179.357274
 10
478.52838
 20
178.047904
 10
474.2434
 20
181.242462
 10
469.43772
 20
177.8
 10
469.43772
 20
179.28844
 10
472.67876
 20
181.577234
 10
472.72702
 20
181.610254
 10
473.23248
 20
181.940962
 10
473.2858199999999
 20
181.973982
 10
473.20454
 20
182.02529
 10
472.63304
 20
182.387494
 10
472.6051
 20
182.408322
 10
469.43772
 20
184.690004
  0
LWPOLYLINE
  5
53
100
AcDbEntity
  8
blue
  6
ByLayer
 62
    5
370
   -1
100
AcDbPolyline
 90
   33
 70
    1
 43
0
 10
542.8818199999999
 20
137.515854
 10
540.4688200000001
 20
146.606768
 10
541.7032599999999
 20
146.606768
 10
543.0875599999999
 20
140.646912
 10
543.1256599999999
 20
140.490956
 10
543.4431599999999
 20
138.942318
 10
543.4711
 20
138.787632
 10
543.52698
 20
139.030456
 10
543.7479599999999
 20
139.935712
 10
543.86988
 20
140.43025
 10
543.88004
 20
140.467588
 10
545.61232
 20
146.606768
 10
547.0626599999999
 20
146.606768
 10
548.36568
 20
142.005304
 10
548.44696
 20
141.720316
 10
549.03624
 20
139.038584
 10
549.07434
 20
138.787632
 10
549.1022800000001
 20
138.930888
 10
549.4756599999999
 20
140.579094
 10
549.5264599999999
 20
140.765276
 10
550.9513999999999
 20
146.606768
 10
552.16044
 20
146.606768
 10
549.66616
 20
137.515854
 10
548.5053799999999
 20
137.515854
 10
546.59022
 20
144.441672
 10
546.5521199999999
 20
144.586706
 10
546.39972
 20
145.143474
 10
546.3159000000001
 20
145.475452
 10
546.30828
 20
145.508472
 10
546.28288
 20
145.405094
 10
546.0618999999999
 20
144.516094
 10
546.0390399999999
 20
144.441672
 10
544.11118
 20
137.515854
  0
LWPOLYLINE
  5
54
100
AcDbEntity
  8
blue
  6
ByLayer
 62
    5
370
   -1
100
AcDbPolyline
 90
   13
 70
    1
 43
0
 10
411.70352
 20
271.99844
 10
415.2265
 20
262.90524
 10
413.92094
 20
262.90524
 10
411.56128
 20
269.51178
 10
411.51048
 20
269.64386
 10
411.11424
 20
270.88338
 10
411.08122
 20
271.00022
 10
411.04566
 20
270.87576
 10
410.6392599999999
 20
269.63624
 10
410.59354
 20
269.51178
 10
408.1399
 20
262.90524
 10
406.91054
 20
262.90524
 10
410.47162
 20
271.99844
  0
LWPOLYLINE
  5
55
100
AcDbEntity
  8
blue
  6
ByLayer
 62
    5
370
   -1
100
AcDbPolyline
 90
   13
 70
    1
 43
0
 10
249.30481
 20
270.23822
 10
252.827282
 20
261.14756
 10
251.525024
 20
261.14756
 10
249.163078
 20
267.75156
 10
249.114818
 20
267.88364
 10
248.716546
 20
269.12316
 10
248.68505
 20
269.24
 10
248.648982
 20
269.11554
 10
248.241312
 20
267.87602
 10
248.195846
 20
267.75156
 10
245.740174
 20
261.14756
 10
244.512084
 20
261.14756
 10
248.07164
 20
270.23822
  0
LWPOLYLINE
  5
56
100
AcDbEntity
  8
blue
  6
ByLayer
 62
    5
370
   -1
100
AcDbPolyline
 90
   48
 70
    1
 43
0
 10
363.24032
 20
274.60194
 10
362.0389
 20
274.60194
 10
362.0389
 20
279.85466
 10
362.0389
 20
280.162
 10
362.11256
 20
281.08402
 10
362.29544
 20
281.89682
 10
362.34878
 20
282.03144
 10
362.3970399999999
 20
282.16606
 10
362.78312
 20
282.76296
 10
363.32922
 20
283.25826
 10
363.46638
 20
283.34208
 10
363.6009999999999
 20
283.4259
 10
364.4011
 20
283.72054
 10
365.2901
 20
283.84754
 10
365.58982
 20
283.84754
 10
365.87938
 20
283.84754
 10
366.7506
 20
283.73832
 10
367.54562
 20
283.48178
 10
367.68024
 20
283.40812
 10
367.8174
 20
283.33446
 10
368.37366
 20
282.8696399999999
 10
368.78006
 20
282.2727399999999
 10
368.84102
 20
282.13304
 10
368.8969
 20
281.99588
 10
369.1000999999999
 20
281.14752
 10
369.18646
 20
280.17978
 10
369.18646
 20
279.85466
 10
369.18646
 20
274.60194
 10
367.9825
 20
274.60194
 10
367.9825
 20
279.84704
 10
367.9825
 20
280.10612
 10
367.92916
 20
280.87828
 10
367.7996199999999
 20
281.50058
 10
367.76406
 20
281.5945599999999
 10
367.7284999999999
 20
281.68854
 10
367.09604
 20
282.40736
 10
367.0096799999999
 20
282.45816
 10
366.91824
 20
282.50896
 10
365.9987599999999
 20
282.76296
 10
365.6965
 20
282.76296
 10
365.41202
 20
282.76296
 10
364.55604
 20
282.6131
 10
363.89818
 20
282.26258
 10
363.80674
 20
282.16098
 10
363.71022
 20
282.06192
 10
363.38002
 20
281.28214
 10
363.24032
 20
280.20772
 10
363.24032
 20
279.84704
  0
LWPOLYLINE
  5
57
100
AcDbEntity
  8
blue
  6
ByLayer
 62
    5
370
   -1
100
AcDbPolyline
 90
  110
 70
    1
 43
0
 10
297.95978
 20
271.96796
 10
298.06138
 20
270.83512
 10
297.94454
 20
270.82242
 10
297.01236
 20
270.50746
 10
296.9387
 20
270.45666
 10
296.86758
 20
270.41094
 10
296.27576
 20
269.6464
 10
296.23258
 20
269.5448
 10
296.18686
 20
269.44066
 10
295.96334
 20
268.47292
 10
295.96334
 20
268.1478
 10
295.96334
 20
267.84554
 10
296.13352
 20
267.02004
 10
296.16908
 20
266.93368
 10
296.2021
 20
266.84732
 10
296.66946
 20
266.192
 10
296.73042
 20
266.14882
 10
296.78884
 20
266.10564
 10
297.32732
 20
265.89228
 10
297.50766
 20
265.89228
 10
297.69308
 20
265.89228
 10
298.20108
 20
266.09802
 10
298.25442
 20
266.13866
 10
298.30776
 20
266.1793
 10
298.7548
 20
266.86256
 10
298.7929
 20
266.95654
 10
298.81576
 20
267.02004
 10
298.97324
 20
267.54582
 10
299.18406
 20
268.36878
 10
299.23486
 20
268.57706
 10
299.28312
 20
268.78534
 10
299.52696
 20
269.64132
 10
299.7555599999999
 20
270.24838
 10
299.80128
 20
270.3322
 10
299.85716
 20
270.43888
 10
300.56328
 20
271.24914
 10
300.6471
 20
271.30248
 10
300.73092
 20
271.3558199999999
 10
301.51832
 20
271.61998
 10
301.77994
 20
271.61998
 10
302.10252
 20
271.61998
 10
302.96612
 20
271.2974
 10
303.06772
 20
271.23136
 10
303.16678
 20
271.16532
 10
303.9237
 20
270.21536
 10
303.97704
 20
270.0909
 10
304.02784
 20
269.96644
 10
304.28692
 20
268.8082
 10
304.28692
 20
268.42212
 10
304.28692
 20
267.97508
 10
304.0126
 20
266.76858
 10
303.95926
 20
266.63904
 10
303.90338
 20
266.51204
 10
303.1058199999999
 20
265.52144
 10
303.00168
 20
265.45032
 10
302.895
 20
265.38174
 10
301.7012
 20
265.0109
 10
301.56912
 20
265.00582
 10
301.48276
 20
266.15898
 10
301.62754
 20
266.17422
 10
302.23968
 20
266.36218
 10
302.71212
 20
266.69746
 10
302.78578
 20
266.7863599999999
 10
302.85944
 20
266.87526
 10
303.11598
 20
267.45184
 10
303.2252
 20
268.14272
 10
303.2252
 20
268.37132
 10
303.2252
 20
268.60754
 10
303.1236
 20
269.3162
 10
302.89246
 20
269.88008
 10
302.82388
 20
269.96136
 10
302.75784
 20
270.04518
 10
302.08474
 20
270.46174
 10
301.8612199999999
 20
270.46174
 10
301.65802
 20
270.46174
 10
301.10684
 20
270.1671
 10
301.0535
 20
270.10868
 10
301.00016
 20
270.05026
 10
300.736
 20
269.4813
 10
300.46168
 20
268.53896
 10
300.4058
 20
268.2951199999999
 10
300.35246
 20
268.05128
 10
300.09592
 20
267.05814
 10
299.8673199999999
 20
266.37234
 10
299.82668
 20
266.28344
 10
299.76572
 20
266.14882
 10
298.99356
 20
265.17346
 10
298.89958
 20
265.10996
 10
298.8056
 20
265.04646
 10
297.90644
 20
264.7315
 10
297.6067199999999
 20
264.7315
 10
297.26382
 20
264.7315
 10
296.3468799999999
 20
265.07694
 10
296.2402
 20
265.14806
 10
296.13098
 20
265.21664
 10
295.3004
 20
266.20978
 10
295.23944
 20
266.33932
 10
295.18102
 20
266.4714
 10
294.88638
 20
267.68806
 10
294.88638
 20
268.09192
 10
294.88638
 20
268.3764
 10
294.97528
 20
269.2273
 10
295.1835599999999
 20
270.02232
 10
295.24452
 20
270.15948
 10
295.30294
 20
270.29918
 10
295.6941
 20
270.90624
 10
296.20464
 20
271.39138
 10
296.32656
 20
271.47012
 10
296.44594
 20
271.54886
 10
297.80738
 20
271.96542
  0
LWPOLYLINE
  5
58
100
AcDbEntity
  8
blue
  6
ByLayer
 62
    5
370
   -1
100
AcDbPolyline
 90
   39
 70
    1
 43
0
 10
210.13039
 20
251.759212
 10
210.16595
 20
251.890276
 10
210.707478
 20
252.963934
 10
210.780376
 20
253.047754
 10
210.659472
 20
253.181612
 10
209.872326
 20
253.6444
 10
208.91754
 20
253.843028
 10
208.599278
 20
253.843028
 10
208.236566
 20
253.843028
 10
207.255618
 20
253.60884
 10
207.15351
 20
253.56185
 10
207.050132
 20
253.51486
 10
206.249778
 20
252.830076
 10
206.192882
 20
252.739144
 10
206.135224
 20
252.649482
 10
205.851506
 20
251.804678
 10
205.851506
 20
251.522484
 10
205.851506
 20
251.292106
 10
206.023718
 20
250.60021
 10
206.426054
 20
249.959622
 10
206.541878
 20
249.847862
 10
206.656178
 20
249.737626
 10
207.401668
 20
249.349006
 10
208.30286
 20
249.182382
 10
208.604612
 20
249.182382
 10
208.897982
 20
249.182382
 10
209.7786
 20
249.34799
 10
210.527138
 20
249.732038
 10
210.645248
 20
249.841004
 10
210.763866
 20
249.95124
 10
211.178902
 20
250.590812
 10
211.357972
 20
251.289312
 10
211.357972
 20
251.522484
 10
211.357972
 20
251.751084
 10
211.206334
 20
252.362716
 10
211.175854
 20
252.433328
 10
211.129372
 20
252.362716
 10
210.805522
 20
251.61875
 10
210.786218
 20
251.54001
  0
LWPOLYLINE
  5
59
100
AcDbEntity
  8
blue
  6
ByLayer
 62
    5
370
   -1
100
AcDbPolyline
 90
   46
 70
    1
 43
0
 10
211.28355
 20
253.744984
 10
211.355178
 20
253.849632
 10
211.881466
 20
254.81534
 10
211.91601
 20
254.90424
 10
212.542882
 20
254.63754
 10
212.49894
 20
254.51562
 10
211.80171
 20
253.295912
 10
211.70646
 20
253.172976
 10
211.777072
 20
253.047754
 10
212.129878
 20
251.886212
 10
212.129878
 20
251.498862
 10
212.129878
 20
251.080016
 10
211.757768
 20
249.945906
 10
211.683346
 20
249.820176
 10
211.608924
 20
249.694954
 10
211.145628
 20
249.153426
 10
210.561428
 20
248.729246
 10
210.427824
 20
248.659904
 10
210.292696
 20
248.592594
 10
209.026506
 20
248.252234
 10
208.604612
 20
248.252234
 10
208.144618
 20
248.252234
 10
206.905606
 20
248.594118
 10
206.767684
 20
248.661428
 10
206.628746
 20
248.730516
 10
206.037434
 20
249.15749
 10
205.578456
 20
249.701812
 10
205.506828
 20
249.827288
 10
205.433676
 20
249.954034
 10
205.074266
 20
251.128022
 10
205.074266
 20
251.518166
 10
205.074266
 20
251.944124
 10
205.447646
 20
253.094744
 10
205.523338
 20
253.219966
 10
205.59776
 20
253.346712
 10
206.060802
 20
253.888494
 10
206.643732
 20
254.30988
 10
206.77886
 20
254.37592
 10
206.91221
 20
254.44196
 10
208.177384
 20
254.77216
 10
208.599278
 20
254.77216
 10
208.976722
 20
254.77216
 10
210.000596
 20
254.5588
 10
210.113626
 20
254.51562
 10
210.225132
 20
254.47498
 10
211.199476
 20
253.831852
  0
LWPOLYLINE
  5
5A
100
AcDbEntity
  8
blue
  6
ByLayer
 62
    5
370
   -1
100
AcDbPolyline
 90
   39
 70
    1
 43
0
 10
185.066432
 20
266.38504
 10
185.029094
 20
266.2555
 10
184.486296
 20
265.18362
 10
184.414668
 20
265.0972599999999
 10
184.534556
 20
264.96518
 10
185.322718
 20
264.5029
 10
186.277504
 20
264.30224
 10
186.596274
 20
264.30224
 10
186.956954
 20
264.30224
 10
187.939426
 20
264.53592
 10
188.042804
 20
264.58418
 10
188.144912
 20
264.6299
 10
188.945774
 20
265.31824
 10
189.003432
 20
265.40714
 10
189.060074
 20
265.49858
 10
189.345316
 20
266.34186
 10
189.345316
 20
266.6238
 10
189.345316
 20
266.85494
 10
189.171326
 20
267.54582
 10
188.767974
 20
268.1859
 10
188.653674
 20
268.29766
 10
188.53785
 20
268.40942
 10
187.792106
 20
268.79804
 10
186.891168
 20
268.96314
 10
186.591956
 20
268.96314
 10
186.297062
 20
268.96314
 10
185.415174
 20
268.79804
 10
184.66816
 20
268.4145
 10
184.549796
 20
268.30528
 10
184.431178
 20
268.19606
 10
184.016396
 20
267.55598
 10
183.838596
 20
266.85748
 10
183.838596
 20
266.6238
 10
183.838596
 20
266.3952
 10
183.98871
 20
265.78306
 10
184.01919
 20
265.71194
 10
184.064656
 20
265.78306
 10
184.389776
 20
266.52728
 10
184.41035
 20
266.60348
  0
LWPOLYLINE
  5
5B
100
AcDbEntity
  8
blue
  6
ByLayer
 62
    5
370
   -1
100
AcDbPolyline
 90
   46
 70
    1
 43
0
 10
183.911494
 20
264.39876
 10
183.838596
 20
264.29462
 10
183.313578
 20
263.32942
 10
183.280304
 20
263.24306
 10
182.652162
 20
263.50722
 10
182.696104
 20
263.6291399999999
 10
183.393334
 20
264.85088
 10
183.489854
 20
264.9728
 10
183.418226
 20
265.0998
 10
183.065674
 20
266.2605799999999
 10
183.065674
 20
266.64666
 10
183.065674
 20
267.06576
 10
183.437276
 20
268.1985999999999
 10
183.511698
 20
268.3256
 10
183.586374
 20
268.4526
 10
184.049416
 20
268.99362
 10
184.633616
 20
269.4177999999999
 10
184.768744
 20
269.48638
 10
184.902348
 20
269.5549599999999
 10
186.169046
 20
269.89278
 10
186.591956
 20
269.89278
 10
187.050934
 20
269.89278
 10
188.289438
 20
269.55242
 10
188.428884
 20
269.48384
 10
188.566806
 20
269.41526
 10
189.15634
 20
268.98854
 10
189.615318
 20
268.44498
 10
189.688216
 20
268.31798
 10
189.759844
 20
268.19098
 10
190.121032
 20
267.02004
 10
190.121032
 20
266.62888
 10
190.121032
 20
266.20216
 10
189.746128
 20
265.05154
 10
189.671706
 20
264.92454
 10
189.596268
 20
264.80008
 10
189.132972
 20
264.25906
 10
188.550296
 20
263.83742
 10
188.416438
 20
263.77138
 10
188.28131
 20
263.70534
 10
187.01639
 20
263.3726
 10
186.596274
 20
263.3726
 10
186.217052
 20
263.3726
 10
185.193178
 20
263.58596
 10
185.081672
 20
263.6291399999999
 10
184.968388
 20
263.67232
 10
183.994552
 20
264.31494
  0
LWPOLYLINE
  5
5C
100
AcDbEntity
  8
red
  6
ByLayer
 62
    1
370
   -1
100
AcDbPolyline
 90
   12
 70
    1
 43
0
 10
291.70122
 20
296.27576
 10
329.0697
 20
296.27322
 10
329.0697
 20
267.95476
 10
291.70122
 20
259.87248
 10
291.70122
 20
262.41248
 10
286.36722
 20
262.41248
 10
286.36722
 20
270.79448
 10
291.70122
 20
270.79448
 10
291.70122
 20
285.35376
 10
286.36722
 20
285.35376
 10
286.36722
 20
293.73576
 10
291.70122
 20
293.73576
  0
LWPOLYLINE
  5
5D
100
AcDbEntity
  8
red
  6
ByLayer
 62
    1
370
   -1
100
AcDbPolyline
 90
   12
 70
    0
 43
0
 10
291.7215399999999
 20
278.79548
 10
299.6590399999999
 20
278.79548
 10
299.6590399999999
 20
276.606
 10
302.83404
 20
276.606
 10
302.83404
 20
278.79548
 10
306.6668999999999
 20
278.79548
 10
306.6668999999999
 20
282.35148
 10
302.83404
 20
282.35402
 10
302.83404
 20
284.5435
 10
299.6590399999999
 20
284.5435
 10
299.6590399999999
 20
282.35148
 10
291.7215399999999
 20
282.35148
  0
LWPOLYLINE
  5
5E
100
AcDbEntity
  8
red
  6
ByLayer
 62
    1
370
   -1
100
AcDbPolyline
 90
   24
 70
    1
 43
0
 10
325.10476
 20
280.61666
 10
325.10476
 20
280.44394
 10
324.96252
 20
279.92578
 10
324.58406
 20
279.35936
 10
324.01764
 20
278.9809
 10
323.49948
 20
278.83866
 10
323.32676
 20
278.83866
 10
323.1515
 20
278.83866
 10
322.63334
 20
278.9809
 10
322.06692
 20
279.35936
 10
321.68592
 20
279.92578
 10
321.54622
 20
280.44394
 10
321.54622
 20
280.61666
 10
321.54622
 20
280.78938
 10
321.68592
 20
281.31008
 10
322.06692
 20
281.87396
 10
322.63334
 20
282.25496
 10
323.1515
 20
282.39466
 10
323.32676
 20
282.39466
 10
323.49948
 20
282.39466
 10
324.01764
 20
282.25496
 10
324.58406
 20
281.87396
 10
324.96252
 20
281.31008
 10
325.10476
 20
280.78938
  0
LWPOLYLINE
  5
5F
100
AcDbEntity
  8
red
  6
ByLayer
 62
    1
370
   -1
100
AcDbPolyline
 90
   34
 70
    1
 43
0
 10
566.39968
 20
155.517088
 10
566.7070199999999
 20
155.1686
 10
568.09894
 20
153.321766
 10
569.2775
 20
151.356822
 10
569.47816
 20
150.946104
 10
569.79566
 20
150.305516
 10
570.93612
 20
146.924776
 10
571.44412
 20
143.68526
 10
571.44412
 20
142.604744
 10
571.44412
 20
141.526006
 10
570.93612
 20
138.285982
 10
569.79566
 20
134.904226
 10
569.47816
 20
134.262368
 10
569.2775
 20
133.853174
 10
568.09894
 20
131.887722
 10
566.7070199999999
 20
130.039872
 10
566.39968
 20
129.68986
 10
526.4861199999999
 20
129.68986
 10
526.1762399999999
 20
130.039872
 10
524.7817799999999
 20
131.887722
 10
523.60322
 20
133.853174
 10
523.40256
 20
134.262368
 10
523.0876
 20
134.904226
 10
521.9445999999999
 20
138.285982
 10
521.4366
 20
141.526006
 10
521.4366
 20
142.604744
 10
521.4366
 20
143.68526
 10
521.9445999999999
 20
146.924776
 10
523.0876
 20
150.305516
 10
523.40256
 20
150.946104
 10
523.60322
 20
151.356822
 10
524.7817799999999
 20
153.321766
 10
526.1762399999999
 20
155.167076
 10
526.4861199999999
 20
155.517088
  0
LWPOLYLINE
  5
60
100
AcDbEntity
  8
red
  6
ByLayer
 62
    1
370
   -1
100
AcDbPolyline
 90
   28
 70
    1
 43
0
 10
600.6718999999999
 20
172.785278
 10
600.6718999999999
 20
112.423194
 10
600.6718999999999
 20
112.177576
 10
600.47124
 20
111.437928
 10
599.9226
 20
110.630462
 10
599.11996
 20
110.084616
 10
598.3782799999999
 20
109.883194
 10
598.1319
 20
109.883194
 10
445.8309599999999
 20
109.883194
 10
445.58204
 20
109.883194
 10
444.84544
 20
110.08614
 10
444.03772
 20
110.644178
 10
443.49162
 20
111.483394
 10
443.29096
 20
112.268762
 10
443.29096
 20
112.529112
 10
443.29096
 20
172.889926
 10
443.29096
 20
173.121574
 10
443.49162
 20
173.81601
 10
444.03772
 20
174.591726
 10
444.84544
 20
175.12665
 10
445.58204
 20
175.325024
 10
445.8309599999999
 20
175.325024
 10
598.1319
 20
175.325024
 10
598.3782799999999
 20
175.325024
 10
599.11996
 20
175.125126
 10
599.9226
 20
174.579534
 10
600.47124
 20
173.772068
 10
600.6718999999999
 20
173.031912
  0
LWPOLYLINE
  5
61
100
AcDbEntity
  8
red
  6
ByLayer
 62
    1
370
   -1
100
AcDbPolyline
 90
   20
 70
    1
 43
0
 10
560.0319
 20
150.43785
 10
560.0319
 20
134.770622
 10
556.24222
 20
134.770622
 10
556.24222
 20
130.69189
 10
548.61968
 20
130.69189
 10
548.61968
 20
134.770622
 10
543.5422199999999
 20
134.770622
 10
543.5422199999999
 20
130.69189
 10
535.91968
 20
130.69189
 10
535.91968
 20
134.770622
 10
532.8539
 20
134.770622
 10
532.8539
 20
150.43785
 10
536.64612
 20
150.43785
 10
536.64612
 20
154.516582
 10
544.26104
 20
154.516582
 10
544.26104
 20
150.43785
 10
549.3461199999999
 20
150.43785
 10
549.3461199999999
 20
154.516582
 10
556.96104
 20
154.516582
 10
556.96104
 20
150.43785
  0
LWPOLYLINE
  5
62
100
AcDbEntity
  8
red
  6
ByLayer
 62
    1
370
   -1
100
AcDbPolyline
 90
   24
 70
    1
 43
0
 10
502.7472799999999
 20
144.38249
 10
502.91746
 20
144.38249
 10
503.43816
 20
144.243552
 10
504.00204
 20
143.86179
 10
504.38304
 20
143.29664
 10
504.52528
 20
142.778734
 10
504.52528
 20
142.604744
 10
504.52528
 20
142.432532
 10
504.38304
 20
141.913102
 10
504.00204
 20
141.348206
 10
503.43816
 20
140.966444
 10
502.91746
 20
140.825728
 10
502.7472799999999
 20
140.825728
 10
502.56948
 20
140.825728
 10
502.0513199999999
 20
140.966444
 10
501.48744
 20
141.348206
 10
501.10644
 20
141.913102
 10
500.9692799999999
 20
142.432532
 10
500.9692799999999
 20
142.604744
 10
500.9692799999999
 20
142.778734
 10
501.10644
 20
143.29664
 10
501.48744
 20
143.86179
 10
502.0513199999999
 20
144.243552
 10
502.56948
 20
144.38249
  0
LWPOLYLINE
  5
63
100
AcDbEntity
  8
red
  6
ByLayer
 62
    1
370
   -1
100
AcDbPolyline
 90
   24
 70
    1
 43
0
 10
585.04328
 20
144.38249
 10
585.2159999999999
 20
144.38249
 10
585.73416
 20
144.243552
 10
586.2980399999999
 20
143.86179
 10
586.67904
 20
143.29664
 10
586.82128
 20
142.778734
 10
586.82128
 20
142.604744
 10
586.82128
 20
142.432532
 10
586.67904
 20
141.913102
 10
586.2980399999999
 20
141.348206
 10
585.73416
 20
140.966444
 10
585.2159999999999
 20
140.825728
 10
585.04328
 20
140.825728
 10
584.8680199999999
 20
140.825728
 10
584.3524
 20
140.966444
 10
583.7834399999999
 20
141.348206
 10
583.40244
 20
141.913102
 10
583.26528
 20
142.432532
 10
583.26528
 20
142.604744
 10
583.26528
 20
142.778734
 10
583.40244
 20
143.29664
 10
583.7834399999999
 20
143.86179
 10
584.3524
 20
144.243552
 10
584.8680199999999
 20
144.38249
  0
LWPOLYLINE
  5
64
100
AcDbEntity
  8
red
  6
ByLayer
 62
    1
370
   -1
100
AcDbPolyline
 90
   24
 70
    1
 43
0
 10
467.03488
 20
132.548122
 10
467.2076
 20
132.548122
 10
467.72576
 20
132.408676
 10
468.2921799999999
 20
132.027168
 10
468.6731799999999
 20
131.462018
 10
468.81288
 20
130.944112
 10
468.81288
 20
130.770376
 10
468.81288
 20
130.59791
 10
468.6731799999999
 20
130.078734
 10
468.2921799999999
 20
129.513584
 10
467.72576
 20
129.133346
 10
467.2076
 20
128.992376
 10
467.03488
 20
128.992376
 10
466.86216
 20
128.992376
 10
466.34146
 20
129.133346
 10
465.7750399999999
 20
129.513584
 10
465.39404
 20
130.078734
 10
465.25688
 20
130.59791
 10
465.25688
 20
130.770376
 10
465.25688
 20
130.944112
 10
465.39404
 20
131.462018
 10
465.7750399999999
 20
132.027168
 10
466.34146
 20
132.408676
 10
466.86216
 20
132.548122
  0
LWPOLYLINE
  5
65
100
AcDbEntity
  8
red
  6
ByLayer
 62
    1
370
   -1
100
AcDbPolyline
 90
   24
 70
    1
 43
0
 10
467.03488
 20
156.215588
 10
467.2076
 20
156.215588
 10
467.72576
 20
156.07665
 10
468.2921799999999
 20
155.696412
 10
468.6731799999999
 20
155.131262
 10
468.81288
 20
154.611832
 10
468.81288
 20
154.438096
 10
468.81288
 20
154.265884
 10
468.6731799999999
 20
153.7462
 10
468.2921799999999
 20
153.181304
 10
467.72576
 20
152.801066
 10
467.2076
 20
152.66035
 10
467.03488
 20
152.66035
 10
466.86216
 20
152.66035
 10
466.34146
 20
152.801066
 10
465.7750399999999
 20
153.181304
 10
465.39404
 20
153.7462
 10
465.25688
 20
154.265884
 10
465.25688
 20
154.438096
 10
465.25688
 20
154.611832
 10
465.39404
 20
155.131262
 10
465.7750399999999
 20
155.696412
 10
466.34146
 20
156.07665
 10
466.86216
 20
156.215588
  0
LWPOLYLINE
  5
66
100
AcDbEntity
  8
red
  6
ByLayer
 62
    1
370
   -1
100
AcDbPolyline
 90
   24
 70
    1
 43
0
 10
366.45088
 20
222.164656
 10
366.27816
 20
222.164656
 10
365.76
 20
222.305118
 10
365.19612
 20
222.685356
 10
364.81004
 20
223.251776
 10
364.67288
 20
223.77019
 10
364.67288
 20
223.942402
 10
364.67288
 20
224.115884
 10
364.81004
 20
224.635568
 10
365.19612
 20
225.20021
 10
365.76
 20
225.581972
 10
366.27816
 20
225.721418
 10
366.45088
 20
225.721418
 10
366.6236
 20
225.721418
 10
367.14176
 20
225.581972
 10
367.70818
 20
225.20021
 10
368.08918
 20
224.635568
 10
368.2288799999999
 20
224.115884
 10
368.2288799999999
 20
223.942402
 10
368.2288799999999
 20
223.77019
 10
368.08918
 20
223.251776
 10
367.70818
 20
222.685356
 10
367.14176
 20
222.305118
 10
366.6236
 20
222.164656
  0
LWPOLYLINE
  5
67
100
AcDbEntity
  8
red
  6
ByLayer
 62
    1
370
   -1
100
AcDbPolyline
 90
   14
 70
    1
 43
0
 10
379.85954
 20
228.03485
 10
384.95224
 20
223.943672
 10
384.95224
 20
217.720418
 10
393.28598
 20
217.720418
 10
393.28598
 20
209.337656
 10
371.71122
 20
209.337656
 10
371.71122
 20
214.895176
 10
361.19054
 20
214.895176
 10
361.19054
 20
209.337656
 10
339.61578
 20
209.337656
 10
339.61578
 20
217.720418
 10
347.94952
 20
217.720418
 10
347.94952
 20
223.943672
 10
353.1616
 20
228.156262
  0
LWPOLYLINE
  5
68
100
AcDbEntity
  8
red
  6
ByLayer
 62
    1
370
   -1
100
AcDbPolyline
 90
   16
 70
    1
 43
0
 10
315.55182
 20
209.104738
 10
315.55182
 20
214.662512
 10
305.03114
 20
214.662512
 10
305.03114
 20
209.104738
 10
283.45638
 20
209.104738
 10
283.45638
 20
217.485976
 10
291.79012
 20
217.485976
 10
291.79012
 20
224.932748
 10
287.45688
 20
224.932748
 10
287.45688
 20
233.31424
 10
333.12608
 20
233.31424
 10
333.12608
 20
224.932748
 10
328.79284
 20
224.932748
 10
328.79284
 20
217.485976
 10
337.12658
 20
217.485976
 10
337.12658
 20
209.104738
  0
LWPOLYLINE
  5
69
100
AcDbEntity
  8
red
  6
ByLayer
 62
    1
370
   -1
100
AcDbPolyline
 90
   42
 70
    0
 43
0
 10
501.90654
 20
175.325024
 10
502.16054
 20
175.325024
 10
502.92762
 20
175.429672
 10
503.88012
 20
175.72609
 10
504.74118
 20
176.19599
 10
505.4930199999999
 20
176.817528
 10
506.1153199999999
 20
177.569876
 10
506.5852199999999
 20
178.43246
 10
506.8824
 20
179.384706
 10
506.98654
 20
180.1495
 10
506.98654
 20
180.404516
 10
506.98654
 20
180.404516
 10
506.75032
 20
180.7464
 10
506.1153199999999
 20
181.647338
 10
505.16282
 20
182.920894
 10
503.9918799999999
 20
184.380124
 10
502.6914
 20
185.840878
 10
501.3477399999999
 20
187.113926
 10
500.05488
 20
188.015372
 10
499.19382
 20
188.355732
 10
498.90426
 20
188.355732
 10
449.16598
 20
188.355732
 10
448.8789599999999
 20
188.355732
 10
448.01282
 20
188.015372
 10
446.7224999999999
 20
187.113926
 10
445.38138
 20
185.840878
 10
444.07582
 20
184.380124
 10
442.90488
 20
182.920894
 10
441.95746
 20
181.647338
 10
441.31738
 20
180.7464
 10
441.08624
 20
180.404516
 10
441.08624
 20
180.404516
 10
441.08624
 20
180.1495
 10
441.1878399999999
 20
179.384706
 10
441.48248
 20
178.43246
 10
441.95746
 20
177.569876
 10
442.57722
 20
176.817528
 10
443.32906
 20
176.19599
 10
444.19266
 20
175.72609
 10
445.14516
 20
175.429672
 10
445.9122399999999
 20
175.325024
 10
446.16624
 20
175.325024
  0
LWPOLYLINE
  5
6A
100
AcDbEntity
  8
red
  6
ByLayer
 62
    1
370
   -1
100
AcDbPolyline
 90
   24
 70
    1
 43
0
 10
492.69904
 20
179.215288
 10
492.5237799999999
 20
179.215288
 10
492.00562
 20
179.35575
 10
491.4417399999999
 20
179.735988
 10
491.06074
 20
180.301138
 10
490.9185
 20
180.820822
 10
490.9185
 20
180.993034
 10
490.9185
 20
181.166516
 10
491.06074
 20
181.684676
 10
491.4417399999999
 20
182.249572
 10
492.00562
 20
182.631334
 10
492.5237799999999
 20
182.770526
 10
492.69904
 20
182.770526
 10
492.8692199999999
 20
182.770526
 10
493.38738
 20
182.631334
 10
493.95634
 20
182.249572
 10
494.33734
 20
181.684676
 10
494.4745
 20
181.166516
 10
494.4745
 20
180.993034
 10
494.4745
 20
180.820822
 10
494.33734
 20
180.301138
 10
493.95634
 20
179.735988
 10
493.38738
 20
179.35575
 10
492.8692199999999
 20
179.215288
  0
LWPOLYLINE
  5
6B
100
AcDbEntity
  8
red
  6
ByLayer
 62
    1
370
   -1
100
AcDbPolyline
 90
   24
 70
    1
 43
0
 10
455.3584999999999
 20
179.215288
 10
455.18578
 20
179.215288
 10
454.6625399999999
 20
179.35575
 10
454.09866
 20
179.735988
 10
453.71766
 20
180.301138
 10
453.5805
 20
180.820822
 10
453.5805
 20
180.993034
 10
453.5805
 20
181.166516
 10
453.71766
 20
181.684676
 10
454.09866
 20
182.249572
 10
454.6625399999999
 20
182.631334
 10
455.18578
 20
182.770526
 10
455.3584999999999
 20
182.770526
 10
455.53122
 20
182.770526
 10
456.0493799999999
 20
182.631334
 10
456.61326
 20
182.249572
 10
456.99426
 20
181.684676
 10
457.1365
 20
181.166516
 10
457.1365
 20
180.993034
 10
457.1365
 20
180.820822
 10
456.99426
 20
180.301138
 10
456.61326
 20
179.735988
 10
456.0493799999999
 20
179.35575
 10
455.53122
 20
179.215288
  0
LWPOLYLINE
  5
6C
100
AcDbEntity
  8
red
  6
ByLayer
 62
    1
370
   -1
100
AcDbPolyline
 90
   24
 70
    1
 43
0
 10
382.89738
 20
262.99668
 10
382.89738
 20
263.17194
 10
383.03454
 20
263.6901
 10
383.41554
 20
264.25398
 10
383.98196
 20
264.63498
 10
384.50012
 20
264.77468
 10
384.67284
 20
264.77468
 10
384.84556
 20
264.77468
 10
385.36626
 20
264.63498
 10
385.93268
 20
264.25398
 10
386.3086
 20
263.6901
 10
386.45084
 20
263.17194
 10
386.45084
 20
262.99668
 10
386.45084
 20
262.82396
 10
386.3086
 20
262.3058
 10
385.93268
 20
261.73938
 10
385.36626
 20
261.35838
 10
384.84556
 20
261.21868
 10
384.67284
 20
261.21868
 10
384.50012
 20
261.21868
 10
383.98196
 20
261.35838
 10
383.41554
 20
261.73938
 10
383.03454
 20
262.3058
 10
382.89738
 20
262.82396
  0
LWPOLYLINE
  5
6D
100
AcDbEntity
  8
red
  6
ByLayer
 62
    1
370
   -1
100
AcDbPolyline
 90
   81
 70
    1
 43
0
 10
403.27834
 20
242.659916
 10
375.10974
 20
257.81
 10
375.10974
 20
284.226
 10
378.1171
 20
284.226
 10
378.1171
 20
284.4292
 10
378.2314
 20
285.04134
 10
378.5488999999999
 20
285.70682
 10
379.01626
 20
286.15386
 10
379.44298
 20
286.31642
 10
379.58776
 20
286.31642
 10
379.73
 20
286.31642
 10
380.15926
 20
286.15386
 10
380.62916
 20
285.70682
 10
380.94412
 20
285.04134
 10
381.06096
 20
284.4292
 10
381.06096
 20
284.226
 10
381.06096
 20
284.4292
 10
381.17272
 20
285.04134
 10
381.49022
 20
285.70682
 10
381.9550399999999
 20
286.15386
 10
382.38684
 20
286.31642
 10
382.53162
 20
286.31642
 10
382.67132
 20
286.31642
 10
383.10312
 20
286.15386
 10
383.57302
 20
285.70682
 10
383.88544
 20
285.04134
 10
384.00228
 20
284.4292
 10
384.00228
 20
284.226
 10
384.00228
 20
284.4292
 10
384.11404
 20
285.04134
 10
384.43154
 20
285.70682
 10
384.8989
 20
286.15386
 10
385.32816
 20
286.31642
 10
385.47294
 20
286.31642
 10
385.61518
 20
286.31642
 10
386.04444
 20
286.15386
 10
386.51434
 20
285.70682
 10
386.82676
 20
285.04134
 10
386.9436
 20
284.4292
 10
386.9436
 20
284.226
 10
386.9436
 20
284.4292
 10
387.0579
 20
285.04134
 10
387.3754
 20
285.70682
 10
387.84022
 20
286.15386
 10
388.2694799999999
 20
286.31642
 10
388.41426
 20
286.31642
 10
388.5565
 20
286.31642
 10
388.98576
 20
286.15386
 10
389.45312
 20
285.70682
 10
389.77062
 20
285.04134
 10
389.88746
 20
284.4292
 10
389.88746
 20
284.226
 10
389.88746
 20
284.4292
 10
389.99922
 20
285.04134
 10
390.31672
 20
285.70682
 10
390.7815399999999
 20
286.15386
 10
391.21334
 20
286.31642
 10
391.35812
 20
286.31642
 10
391.49782
 20
286.31642
 10
391.92962
 20
286.15386
 10
392.39444
 20
285.70682
 10
392.71194
 20
285.04134
 10
392.82878
 20
284.4292
 10
392.82878
 20
284.226
 10
392.82878
 20
284.4292
 10
392.94054
 20
285.04134
 10
393.25804
 20
285.70682
 10
393.7254
 20
286.15386
 10
394.15466
 20
286.31642
 10
394.29944
 20
286.31642
 10
394.44168
 20
286.31642
 10
394.87094
 20
286.15386
 10
395.3357599999999
 20
285.70682
 10
395.65326
 20
285.04134
 10
395.7701
 20
284.4292
 10
395.7701
 20
284.226
 10
397.9290999999999
 20
284.9499
 10
404.2791
 20
284.9499
 10
404.2791
 20
292.00094
 10
420.2811
 20
292.00094
 10
420.2811
 20
242.659916
  0
LWPOLYLINE
  5
6E
100
AcDbEntity
  8
red
  6
ByLayer
 62
    1
370
   -1
100
AcDbPolyline
 90
   24
 70
    1
 43
0
 10
414.00984
 20
248.915174
 10
414.00984
 20
249.039126
 10
414.11144
 20
249.409712
 10
414.3832199999999
 20
249.813572
 10
414.78454
 20
250.084844
 10
415.15538
 20
250.184412
 10
415.2798399999999
 20
250.184412
 10
415.4017599999999
 20
250.184412
 10
415.7726
 20
250.084844
 10
416.1764599999999
 20
249.813572
 10
416.45078
 20
249.409712
 10
416.54984
 20
249.039126
 10
416.54984
 20
248.915174
 10
416.54984
 20
248.792238
 10
416.45078
 20
248.421906
 10
416.1764599999999
 20
248.018046
 10
415.7726
 20
247.74525
 10
415.4017599999999
 20
247.644412
 10
415.2798399999999
 20
247.644412
 10
415.15538
 20
247.644412
 10
414.78454
 20
247.74525
 10
414.3832199999999
 20
248.018046
 10
414.11144
 20
248.421906
 10
414.00984
 20
248.792238
  0
LWPOLYLINE
  5
6F
100
AcDbEntity
  8
red
  6
ByLayer
 62
    1
370
   -1
100
AcDbPolyline
 90
   24
 70
    1
 43
0
 10
414.00984
 20
286.25546
 10
414.00984
 20
286.37738
 10
414.11144
 20
286.74822
 10
414.3832199999999
 20
287.15208
 10
414.78454
 20
287.4264
 10
415.15538
 20
287.52546
 10
415.2798399999999
 20
287.52546
 10
415.4017599999999
 20
287.52546
 10
415.7726
 20
287.4264
 10
416.1764599999999
 20
287.15208
 10
416.45078
 20
286.74822
 10
416.54984
 20
286.37738
 10
416.54984
 20
286.25546
 10
416.54984
 20
286.131
 10
416.45078
 20
285.76016
 10
416.1764599999999
 20
285.3563
 10
415.7726
 20
285.08452
 10
415.4017599999999
 20
284.98546
 10
415.2798399999999
 20
284.98546
 10
415.15538
 20
284.98546
 10
414.78454
 20
285.08452
 10
414.3832199999999
 20
285.3563
 10
414.11144
 20
285.76016
 10
414.00984
 20
286.131
  0
LWPOLYLINE
  5
70
100
AcDbEntity
  8
red
  6
ByLayer
 62
    1
370
   -1
100
AcDbPolyline
 90
   24
 70
    1
 43
0
 10
277.38578
 20
260.6167
 10
277.38578
 20
260.78942
 10
277.24608
 20
261.31012
 10
276.86254
 20
261.874
 10
276.29866
 20
262.255
 10
275.77796
 20
262.3947
 10
275.60524
 20
262.3947
 10
275.43252
 20
262.3947
 10
274.91436
 20
262.255
 10
274.35048
 20
261.874
 10
273.96694
 20
261.31012
 10
273.82978
 20
260.78942
 10
273.82978
 20
260.6167
 10
273.82978
 20
260.44398
 10
273.96694
 20
259.92582
 10
274.35048
 20
259.3594
 10
274.91436
 20
258.9784
 10
275.43252
 20
258.8387
 10
275.60524
 20
258.8387
 10
275.77796
 20
258.8387
 10
276.29866
 20
258.9784
 10
276.86254
 20
259.3594
 10
277.24608
 20
259.92582
 10
277.38578
 20
260.44398
  0
LWPOLYLINE
  5
71
100
AcDbEntity
  8
red
  6
ByLayer
 62
    1
370
   -1
100
AcDbPolyline
 90
   81
 70
    1
 43
0
 10
257.00228
 20
240.28019
 10
285.17088
 20
255.43002
 10
285.17088
 20
281.84602
 10
282.16352
 20
281.84602
 10
282.16352
 20
282.04922
 10
282.04668
 20
282.6613599999999
 10
281.7317199999999
 20
283.32684
 10
281.26182
 20
283.77388
 10
280.83256
 20
283.93898
 10
280.69032
 20
283.93898
 10
280.54808
 20
283.93898
 10
280.11882
 20
283.77388
 10
279.65146
 20
283.32684
 10
279.33396
 20
282.6613599999999
 10
279.21966
 20
282.04922
 10
279.21966
 20
281.84602
 10
279.21966
 20
282.04922
 10
279.10536
 20
282.6613599999999
 10
278.7904
 20
283.32684
 10
278.3205
 20
283.77388
 10
277.89124
 20
283.93898
 10
277.749
 20
283.93898
 10
277.60676
 20
283.93898
 10
277.17496
 20
283.77388
 10
276.7076
 20
283.32684
 10
276.39264
 20
282.6613599999999
 10
276.27834
 20
282.04922
 10
276.27834
 20
281.84602
 10
276.27834
 20
282.04922
 10
276.16404
 20
282.6613599999999
 10
275.8465399999999
 20
283.32684
 10
275.37918
 20
283.77388
 10
274.94992
 20
283.93898
 10
274.80768
 20
283.93898
 10
274.66544
 20
283.93898
 10
274.23618
 20
283.77388
 10
273.76628
 20
283.32684
 10
273.45132
 20
282.6613599999999
 10
273.33702
 20
282.04922
 10
273.33702
 20
281.84602
 10
273.33702
 20
282.04922
 10
273.22018
 20
282.6613599999999
 10
272.90522
 20
283.32684
 10
272.4378599999999
 20
283.77388
 10
272.0086
 20
283.93898
 10
271.86636
 20
283.93898
 10
271.72158
 20
283.93898
 10
271.29232
 20
283.77388
 10
270.82496
 20
283.32684
 10
270.51
 20
282.6613599999999
 10
270.3957
 20
282.04922
 10
270.3957
 20
281.84602
 10
270.3957
 20
282.04922
 10
270.27886
 20
282.6613599999999
 10
269.9639
 20
283.32684
 10
269.494
 20
283.77388
 10
269.06474
 20
283.93898
 10
268.9225
 20
283.93898
 10
268.7802599999999
 20
283.93898
 10
268.34846
 20
283.77388
 10
267.88364
 20
283.32684
 10
267.56614
 20
282.6613599999999
 10
267.45184
 20
282.04922
 10
267.45184
 20
281.84602
 10
267.45184
 20
282.04922
 10
267.33754
 20
282.6613599999999
 10
267.02004
 20
283.32684
 10
266.55522
 20
283.77388
 10
266.12342
 20
283.93898
 10
265.98118
 20
283.93898
 10
265.83894
 20
283.93898
 10
265.40968
 20
283.77388
 10
264.93978
 20
283.32684
 10
264.62482
 20
282.6613599999999
 10
264.51052
 20
282.04922
 10
264.51052
 20
281.84602
 10
262.35152
 20
282.56992
 10
256.00152
 20
282.56992
 10
256.00152
 20
289.62096
 10
239.999266
 20
289.62096
 10
239.999266
 20
240.28019
  0
LWPOLYLINE
  5
72
100
AcDbEntity
  8
red
  6
ByLayer
 62
    1
370
   -1
100
AcDbPolyline
 90
   24
 70
    1
 43
0
 10
246.269256
 20
246.026432
 10
246.269256
 20
246.150638
 10
246.168672
 20
246.521478
 10
245.897146
 20
246.925084
 10
245.49354
 20
247.19661
 10
245.1227
 20
247.295924
 10
245.000018
 20
247.295924
 10
244.876066
 20
247.295924
 10
244.505226
 20
247.19661
 10
244.101366
 20
246.925084
 10
243.828824
 20
246.521478
 10
243.72951
 20
246.150638
 10
243.72951
 20
246.026432
 10
243.72951
 20
245.904004
 10
243.828824
 20
245.533418
 10
244.101366
 20
245.129304
 10
244.505226
 20
244.856762
 10
244.876066
 20
244.756178
 10
245.000018
 20
244.756178
 10
245.1227
 20
244.756178
 10
245.49354
 20
244.856762
 10
245.897146
 20
245.129304
 10
246.168672
 20
245.533418
 10
246.269256
 20
245.904004
  0
LWPOLYLINE
  5
73
100
AcDbEntity
  8
red
  6
ByLayer
 62
    1
370
   -1
100
AcDbPolyline
 90
   24
 70
    1
 43
0
 10
246.269256
 20
283.36494
 10
246.269256
 20
283.4894
 10
246.168672
 20
283.86024
 10
245.897146
 20
284.2641
 10
245.49354
 20
284.53842
 10
245.1227
 20
284.63748
 10
245.000018
 20
284.63748
 10
244.876066
 20
284.63748
 10
244.505226
 20
284.53842
 10
244.101366
 20
284.2641
 10
243.828824
 20
283.86024
 10
243.72951
 20
283.4894
 10
243.72951
 20
283.36494
 10
243.72951
 20
283.24302
 10
243.828824
 20
282.87218
 10
244.101366
 20
282.4683199999999
 10
244.505226
 20
282.19654
 10
244.876066
 20
282.09748
 10
245.000018
 20
282.09748
 10
245.1227
 20
282.09748
 10
245.49354
 20
282.19654
 10
245.897146
 20
282.4683199999999
 10
246.168672
 20
282.87218
 10
246.269256
 20
283.24302
  0
LWPOLYLINE
  5
74
100
AcDbEntity
  8
red
  6
ByLayer
 62
    1
370
   -1
100
AcDbPolyline
 90
   24
 70
    1
 43
0
 10
355.86416
 20
279.146
 10
355.86416
 20
278.97328
 10
356.00132
 20
278.45258
 10
356.3823199999999
 20
277.8887
 10
356.94874
 20
277.5077
 10
357.4669
 20
277.368
 10
357.6421599999999
 20
277.368
 10
357.8123399999999
 20
277.368
 10
358.3305
 20
277.5077
 10
358.89946
 20
277.8887
 10
359.2804599999999
 20
278.45258
 10
359.41762
 20
278.97328
 10
359.41762
 20
279.146
 10
359.41762
 20
279.31872
 10
359.2804599999999
 20
279.83942
 10
358.89946
 20
280.4033
 10
358.3305
 20
280.7843
 10
357.8123399999999
 20
280.92146
 10
357.6421599999999
 20
280.92146
 10
357.4669
 20
280.92146
 10
356.94874
 20
280.7843
 10
356.3823199999999
 20
280.4033
 10
356.00132
 20
279.83942
 10
355.86416
 20
279.31872
  0
LWPOLYLINE
  5
75
100
AcDbEntity
  8
red
  6
ByLayer
 62
    1
370
   -1
100
AcDbPolyline
 90
   24
 70
    1
 43
0
 10
350.01708
 20
270.10614
 10
350.01708
 20
272.00606
 10
356.04704
 20
272.00606
 10
356.04704
 20
270.10614
 10
360.86034
 20
270.10614
 10
360.86034
 20
264.7696
 10
369.24234
 20
264.7696
 10
369.24234
 20
270.10614
 10
372.54434
 20
270.10614
 10
372.54434
 20
288.18586
 10
369.24234
 20
288.18586
 10
369.24234
 20
293.51986
 10
360.86034
 20
293.51986
 10
360.86034
 20
288.18586
 10
356.04704
 20
288.1756999999999
 10
356.04704
 20
286.27324
 10
350.01708
 20
286.27324
 10
350.01708
 20
288.1756999999999
 10
343.03462
 20
288.18586
 10
343.03462
 20
283.30144
 10
337.70316
 20
283.30144
 10
337.70316
 20
274.95246
 10
343.03462
 20
274.95246
 10
343.03462
 20
270.10614
  0
LINE
  5
76
100
AcDbEntity
  8
red
  6
ByLayer
 62
    1
370
   -1
100
AcDbLine
 10
547.40556
 20
166.439596
 11
547.40556
 21
166.439596
  0
LINE
  5
77
100
AcDbEntity
  8
red
  6
ByLayer
 62
    1
370
   -1
100
AcDbLine
 10
547.40556
 20
124.103384
 11
547.40556
 21
124.103384
  0
LWPOLYLINE
  5
78
100
AcDbEntity
  8
red
  6
ByLayer
 62
  256
370
   -1
100
AcDbPolyline
 90
    4
 70
    1
 43
0
 10
256.00152
 20
269.99692
 10
264.38352
 20
269.99692
 10
264.38352
 20
258.56946
 10
256.00152
 20
258.56946
  0
LWPOLYLINE
  5
79
100
AcDbEntity
  8
red
  6
ByLayer
 62
  256
370
   -1
100
AcDbPolyline
 90
    4
 70
    1
 43
0
 10
271.8308
 20
269.8076899999999
 10
280.2128
 20
269.8076899999999
 10
280.2128
 20
264.0926899999999
 10
271.8308
 20
264.0926899999999
  0
LWPOLYLINE
  5
7A
100
AcDbEntity
  8
red
  6
ByLayer
 62
  256
370
   -1
100
AcDbPolyline
 90
    4
 70
    1
 43
0
 10
309.5244
 20
289.14598
 10
317.9064
 20
289.14598
 10
317.9064
 20
272.00098
 10
309.5244
 20
272.00098
  0
LWPOLYLINE
  5
7B
100
AcDbEntity
  8
red
  6
ByLayer
 62
  256
370
   -1
100
AcDbPolyline
 90
    4
 70
    1
 43
0
 10
380.06782
 20
272.1889399999999
 10
388.44982
 20
272.1889399999999
 10
388.44982
 20
266.47394
 10
380.06782
 20
266.47394
  0
LWPOLYLINE
  5
7C
100
AcDbEntity
  8
red
  6
ByLayer
 62
  256
370
   -1
100
AcDbPolyline
 90
    4
 70
    1
 43
0
 10
395.8971
 20
272.37944
 10
404.2791
 20
272.37944
 10
404.2791
 20
260.94944
 10
395.8971
 20
260.94944
  0
LWPOLYLINE
  5
7D
100
AcDbEntity
  8
red
  6
ByLayer
 62
  256
370
   -1
100
AcDbPolyline
 90
    4
 70
    1
 43
0
 10
573.7479
 20
161.295461
 10
592.7978999999999
 20
161.295461
 10
592.7978999999999
 20
155.580461
 10
573.7479
 20
155.580461
  0
LWPOLYLINE
  5
7E
100
AcDbEntity
  8
red
  6
ByLayer
 62
  256
370
   -1
100
AcDbPolyline
 90
    4
 70
    1
 43
0
 10
573.7479
 20
129.628011
 10
592.7978999999999
 20
129.628011
 10
592.7978999999999
 20
123.913011
 10
573.7479
 20
123.913011
  0
LWPOLYLINE
  5
7F
100
AcDbEntity
  8
red
  6
ByLayer
 62
  256
370
   -1
100
AcDbPolyline
 90
    4
 70
    1
 43
0
 10
448.87388
 20
133.627876
 10
457.2558799999999
 20
133.627876
 10
457.2558799999999
 20
127.912876
 10
448.87388
 20
127.912876
  0
LWPOLYLINE
  5
80
100
AcDbEntity
  8
red
  6
ByLayer
 62
  256
370
   -1
100
AcDbPolyline
 90
    4
 70
    1
 43
0
 10
471.8151599999999
 20
133.627876
 10
480.19462
 20
133.627876
 10
480.19462
 20
127.912876
 10
471.8151599999999
 20
127.912876
  0
LWPOLYLINE
  5
81
100
AcDbEntity
  8
red
  6
ByLayer
 62
  256
370
   -1
100
AcDbPolyline
 90
    4
 70
    1
 43
0
 10
448.87388
 20
157.296358
 10
457.2558799999999
 20
157.296358
 10
457.2558799999999
 20
151.581358
 10
448.87388
 20
151.581358
  0
LWPOLYLINE
  5
82
100
AcDbEntity
  8
red
  6
ByLayer
 62
  256
370
   -1
100
AcDbPolyline
 90
    4
 70
    1
 43
0
 10
457.46162
 20
146.778726
 10
474.60662
 20
146.778726
 10
474.60662
 20
138.429238
 10
457.46162
 20
138.429238
  0
LWPOLYLINE
  5
83
100
AcDbEntity
  8
red
  6
ByLayer
 62
  256
370
   -1
100
AcDbPolyline
 90
    4
 70
    1
 43
0
 10
471.8151599999999
 20
157.296358
 10
480.19462
 20
157.296358
 10
480.19462
 20
151.581358
 10
471.8151599999999
 20
151.581358
  0
LINE
  5
84
100
AcDbEntity
  8
red
  6
ByLayer
 62
  256
370
   -1
100
AcDbLine
 10
457.77404
 20
166.820088
 11
547.40556
 21
166.820088
  0
LINE
  5
85
100
AcDbEntity
  8
red
  6
ByLayer
 62
  256
370
   -1
100
AcDbLine
 10
547.40556
 20
166.820088
 11
547.40556
 21
161.105088
  0
LINE
  5
86
100
AcDbEntity
  8
red
  6
ByLayer
 62
  256
370
   -1
100
AcDbLine
 10
547.40556
 20
161.105088
 11
514.0578999999999
 21
161.105088
  0
LINE
  5
87
100
AcDbEntity
  8
red
  6
ByLayer
 62
  256
370
   -1
100
AcDbLine
 10
514.0578999999999
 20
161.105088
 11
514.0578999999999
 21
155.390088
  0
LINE
  5
88
100
AcDbEntity
  8
red
  6
ByLayer
 62
  256
370
   -1
100
AcDbLine
 10
514.0578999999999
 20
155.390088
 11
495.0079
 21
155.390088
  0
LINE
  5
89
100
AcDbEntity
  8
red
  6
ByLayer
 62
  256
370
   -1
100
AcDbLine
 10
495.0079
 20
155.390088
 11
495.0079
 21
161.105088
  0
LINE
  5
8A
100
AcDbEntity
  8
red
  6
ByLayer
 62
  256
370
   -1
100
AcDbLine
 10
495.0079
 20
161.105088
 11
457.77404
 21
161.105088
  0
LINE
  5
8B
100
AcDbEntity
  8
red
  6
ByLayer
 62
  256
370
   -1
100
AcDbLine
 10
457.77404
 20
161.105088
 11
457.77404
 21
166.820088
  0
LINE
  5
8C
100
AcDbEntity
  8
red
  6
ByLayer
 62
  256
370
   -1
100
AcDbLine
 10
457.77404
 20
118.388384
 11
547.40556
 21
118.388384
  0
LINE
  5
8D
100
AcDbEntity
  8
red
  6
ByLayer
 62
  256
370
   -1
100
AcDbLine
 10
547.40556
 20
118.388384
 11
547.40556
 21
124.103384
  0
LINE
  5
8E
100
AcDbEntity
  8
red
  6
ByLayer
 62
  256
370
   -1
100
AcDbLine
 10
547.40556
 20
124.103384
 11
514.0578999999999
 21
124.103384
  0
LINE
  5
8F
100
AcDbEntity
  8
red
  6
ByLayer
 62
  256
370
   -1
100
AcDbLine
 10
514.0578999999999
 20
124.103384
 11
514.0578999999999
 21
129.818384
  0
LINE
  5
90
100
AcDbEntity
  8
red
  6
ByLayer
 62
  256
370
   -1
100
AcDbLine
 10
514.0578999999999
 20
129.818384
 11
495.0078999999999
 21
129.818384
  0
LINE
  5
91
100
AcDbEntity
  8
red
  6
ByLayer
 62
  256
370
   -1
100
AcDbLine
 10
495.0078999999999
 20
129.818384
 11
495.0078999999999
 21
124.103384
  0
LINE
  5
92
100
AcDbEntity
  8
red
  6
ByLayer
 62
  256
370
   -1
100
AcDbLine
 10
495.0078999999999
 20
124.103384
 11
457.77404
 21
124.103384
  0
LINE
  5
93
100
AcDbEntity
  8
red
  6
ByLayer
 62
  256
370
   -1
100
AcDbLine
 10
457.77404
 20
124.103384
 11
457.77404
 21
118.388384
  0
LINE
  5
94
100
AcDbEntity
  8
green
  6
ByLayer
 62
  256
370
   -1
100
AcDbLine
 10
495.0078999999999
 20
129.818384
 11
514.0578999999999
 21
129.818384
  0
LINE
  5
95
100
AcDbEntity
  8
green
  6
ByLayer
 62
  256
370
   -1
100
AcDbLine
 10
514.0578999999999
 20
129.818384
 11
514.0578999999999
 21
124.103384
  0
LINE
  5
96
100
AcDbEntity
  8
green
  6
ByLayer
 62
  256
370
   -1
100
AcDbLine
 10
514.0578999999999
 20
124.103384
 11
547.40556
 21
124.103384
  0
LINE
  5
97
100
AcDbEntity
  8
green
  6
ByLayer
 62
  256
370
   -1
100
AcDbLine
 10
547.40556
 20
124.103384
 11
547.40556
 21
118.388384
  0
LINE
  5
98
100
AcDbEntity
  8
green
  6
ByLayer
 62
  256
370
   -1
100
AcDbLine
 10
547.40556
 20
118.388384
 11
457.77404
 21
118.388384
  0
LINE
  5
99
100
AcDbEntity
  8
green
  6
ByLayer
 62
  256
370
   -1
100
AcDbLine
 10
457.77404
 20
118.388384
 11
457.77404
 21
124.103384
  0
LINE
  5
9A
100
AcDbEntity
  8
green
  6
ByLayer
 62
  256
370
   -1
100
AcDbLine
 10
457.77404
 20
124.103384
 11
495.0078999999999
 21
124.103384
  0
LINE
  5
9B
100
AcDbEntity
  8
green
  6
ByLayer
 62
  256
370
   -1
100
AcDbLine
 10
495.0078999999999
 20
124.103384
 11
495.0078999999999
 21
129.818384
  0
LINE
  5
9C
100
AcDbEntity
  8
green
  6
ByLayer
 62
  256
370
   -1
100
AcDbLine
 10
514.0578999999999
 20
155.390088
 11
514.0578999999999
 21
161.105088
  0
LINE
  5
9D
100
AcDbEntity
  8
green
  6
ByLayer
 62
  256
370
   -1
100
AcDbLine
 10
514.0578999999999
 20
161.105088
 11
547.40556
 21
161.105088
  0
LINE
  5
9E
100
AcDbEntity
  8
green
  6
ByLayer
 62
  256
370
   -1
100
AcDbLine
 10
547.40556
 20
161.105088
 11
547.40556
 21
166.820088
  0
LINE
  5
9F
100
AcDbEntity
  8
green
  6
ByLayer
 62
  256
370
   -1
100
AcDbLine
 10
547.40556
 20
166.820088
 11
457.77404
 21
166.820088
  0
LINE
  5
A0
100
AcDbEntity
  8
green
  6
ByLayer
 62
  256
370
   -1
100
AcDbLine
 10
457.77404
 20
166.820088
 11
457.77404
 21
161.105088
  0
LINE
  5
A1
100
AcDbEntity
  8
green
  6
ByLayer
 62
  256
370
   -1
100
AcDbLine
 10
457.77404
 20
161.105088
 11
495.0079
 21
161.105088
  0
LINE
  5
A2
100
AcDbEntity
  8
green
  6
ByLayer
 62
  256
370
   -1
100
AcDbLine
 10
495.0079
 20
161.105088
 11
495.0079
 21
155.390088
  0
LINE
  5
A3
100
AcDbEntity
  8
green
  6
ByLayer
 62
  256
370
   -1
100
AcDbLine
 10
495.0079
 20
155.390088
 11
514.0578999999999
 21
155.390088
  0
LWPOLYLINE
  5
A4
100
AcDbEntity
  8
blue
  6
ByLayer
 62
    5
370
   -1
100
AcDbPolyline
 90
   24
 70
    1
 43
0
 10
297.133964
 20
305.0782312
 10
292.396102
 20
308.5935912
 10
288.043304
 20
305.4929878
 10
288.043304
 20
306.9261574
 10
290.37477
 20
308.5756588
 10
290.494658
 20
308.662476
 10
291.42506
 20
309.2715934
 10
291.490846
 20
309.3074074
 10
291.408296
 20
309.3584106
 10
290.5454579999999
 20
309.956479
 10
290.455796
 20
310.0253638
 10
288.043304
 20
311.8554084
 10
288.043304
 20
313.1645244
 10
292.328792
 20
309.9702712
 10
297.133964
 20
313.4126062
 10
297.133964
 20
311.9242932
 10
293.891654
 20
309.6353722
 10
293.844664
 20
309.6036984
 10
293.337426
 20
309.272965
 10
293.283832
 20
309.2384972
 10
293.365366
 20
309.188891
 10
293.9343259999999
 20
308.8264838
 10
293.966076
 20
308.8044366
 10
297.133964
 20
306.522399
  0
LWPOLYLINE
  5
A5
100
AcDbEntity
  8
red
  6
ByLayer
 62
    1
370
   -1
100
AcDbPolyline
 90
   42
 70
    1
 43
0
 10
265.451782
 20
316.1741704
 10
265.195242
 20
316.1741704
 10
264.430448
 20
316.0708178
 10
263.478202
 20
315.7745522
 10
262.615364
 20
315.3046268
 10
261.8632699999999
 20
314.6831396
 10
261.2402079999999
 20
313.9307154
 10
260.770308
 20
313.0680806
 10
260.474144
 20
312.11586
 10
260.370766
 20
311.3510406
 10
260.370766
 20
311.0947546
 10
260.370766
 20
311.0947546
 10
260.60216
 20
310.7543438
 10
261.2402079999999
 20
309.853101
 10
262.18966
 20
308.579799
 10
263.362632
 20
307.1204674
 10
264.66616
 20
305.6611104
 10
266.00982
 20
304.3878084
 10
267.300902
 20
303.4865656
 10
268.163486
 20
303.144834
 10
268.451268
 20
303.144834
 10
318.19158
 20
303.144834
 10
318.4786
 20
303.144834
 10
319.3422
 20
303.4865656
 10
320.63252
 20
304.3878084
 10
321.97618
 20
305.6611104
 10
323.2792000000001
 20
307.1204674
 10
324.45014
 20
308.579799
 10
325.4026399999999
 20
309.853101
 10
326.0376399999999
 20
310.7543438
 10
326.2713199999999
 20
311.0947546
 10
326.2713199999999
 20
311.0947546
 10
326.2713199999999
 20
311.3510406
 10
326.16718
 20
312.11586
 10
325.87
 20
313.0680806
 10
325.4001
 20
313.9307154
 10
324.7778
 20
314.6831396
 10
324.0259600000001
 20
315.3046268
 10
323.1649
 20
315.7745522
 10
322.2124
 20
316.0708178
 10
321.44786
 20
316.1741704
 10
321.19132
 20
316.1741704
  0
LWPOLYLINE
  5
A6
100
AcDbEntity
  8
red
  6
ByLayer
 62
    1
370
   -1
100
AcDbPolyline
 90
   24
 70
    1
 43
0
 10
274.659536
 20
312.2853796
 10
274.8317479999999
 20
312.2853796
 10
275.351432
 20
312.1461622
 10
275.9165819999999
 20
311.764451
 10
276.29682
 20
311.1994534
 10
276.437282
 20
310.6799472
 10
276.437282
 20
310.5063128
 10
276.437282
 20
310.33405
 10
276.29682
 20
309.8159154
 10
275.9165819999999
 20
309.2495462
 10
275.351432
 20
308.8692066
 10
274.8317479999999
 20
308.7286176
 10
274.659536
 20
308.7286176
 10
274.486054
 20
308.7286176
 10
273.96637
 20
308.8692066
 10
273.401474
 20
309.2495462
 10
273.021236
 20
309.8159154
 10
272.882044
 20
310.33405
 10
272.882044
 20
310.5063128
 10
272.882044
 20
310.6799472
 10
273.021236
 20
311.1994534
 10
273.401474
 20
311.764451
 10
273.96637
 20
312.1461622
 10
274.486054
 20
312.2853796
  0
LWPOLYLINE
  5
A7
100
AcDbEntity
  8
red
  6
ByLayer
 62
    1
370
   -1
100
AcDbPolyline
 90
   24
 70
    1
 43
0
 10
311.99906
 20
312.2853796
 10
312.171018
 20
312.2853796
 10
312.690702
 20
312.1461622
 10
313.25636
 20
311.764451
 10
313.6373599999999
 20
311.1994534
 10
313.77706
 20
310.6799472
 10
313.77706
 20
310.5063128
 10
313.77706
 20
310.33405
 10
313.6373599999999
 20
309.8159154
 10
313.25636
 20
309.2495462
 10
312.690702
 20
308.8692066
 10
312.171018
 20
308.7286176
 10
311.99906
 20
308.7286176
 10
311.825324
 20
308.7286176
 10
311.3071639999999
 20
308.8692066
 10
310.742014
 20
309.2495462
 10
310.3602519999999
 20
309.8159154
 10
310.221314
 20
310.33405
 10
310.221314
 20
310.5063128
 10
310.221314
 20
310.6799472
 10
310.3602519999999
 20
311.1994534
 10
310.742014
 20
311.764451
 10
311.3071639999999
 20
312.1461622
 10
311.825324
 20
312.2853796
  0
LINE
  5
A8
100
AcDbEntity
  8
red
  6
ByLayer
 62
  256
370
   -1
100
AcDbLine
 10
46.73226999999997
 20
73.660628
 11
8.267730000000036
 21
73.660628
  0
LINE
  5
A9
100
AcDbEntity
  8
red
  6
ByLayer
 62
  256
370
   -1
100
AcDbLine
 10
8.267730000000036
 20
70.10386600000001
 11
46.73226999999997
 21
70.10386600000001
  0
LINE
  5
AA
100
AcDbEntity
  8
red
  6
ByLayer
 62
  256
370
   -1
100
AcDbLine
 10
46.73226999999997
 20
41.9105518
 11
8.267730000000029
 21
41.91055179999999
  0
LINE
  5
AB
100
AcDbEntity
  8
red
  6
ByLayer
 62
  256
370
   -1
100
AcDbLine
 10
8.267730000000029
 20
38.3537898
 11
46.73226999999997
 21
38.3537898
  0
ARC
  5
AC
100
AcDbEntity
  8
red
  6
ByLayer
 62
  256
370
   -1
100
AcDbCircle
 10
8.267730000000036
 20
71.88224700000001
 40
1.778380999999996
100
AcDbArc
 50
90
 51
270
  0
ARC
  5
AD
100
AcDbEntity
  8
red
  6
ByLayer
 62
  256
370
   -1
100
AcDbCircle
 10
8.267730000000038
 20
40.13217080000001
 40
1.778381000000009
100
AcDbArc
 50
90.00000976475373
 51
269.9999999999997
  0
ARC
  5
AE
100
AcDbEntity
  8
red
  6
ByLayer
 62
  256
370
   -1
100
AcDbCircle
 10
46.73226999999996
 20
40.1321708
 40
1.778381
100
AcDbArc
 50
270.0000000000002
 51
90
  0
ARC
  5
AF
100
AcDbEntity
  8
red
  6
ByLayer
 62
  256
370
   -1
100
AcDbCircle
 10
46.73226999999997
 20
71.88224700000001
 40
1.778380999999996
100
AcDbArc
 50
270
 51
90
  0
LINE
  5
B0
100
AcDbEntity
  8
red
  6
ByLayer
 62
  256
370
   -1
100
AcDbLine
 10
45.60000000000001
 20
88.41249999999999
 11
45.60000000000001
 21
82.87580800000001
  0
LINE
  5
B1
100
AcDbEntity
  8
red
  6
ByLayer
 62
  256
370
   -1
100
AcDbLine
 10
45.60000000000001
 20
82.87580800000001
 11
46.88270000000004
 21
82.87580800000001
  0
LINE
  5
B2
100
AcDbEntity
  8
red
  6
ByLayer
 62
  256
370
   -1
100
AcDbLine
 10
46.88270000000004
 20
82.87580800000001
 11
46.88270000000004
 21
81.288308
  0
LINE
  5
B3
100
AcDbEntity
  8
red
  6
ByLayer
 62
  256
370
   -1
100
AcDbLine
 10
46.88270000000004
 20
81.288308
 11
45.60000000000001
 21
81.288308
  0
LINE
  5
B4
100
AcDbEntity
  8
red
  6
ByLayer
 62
  256
370
   -1
100
AcDbLine
 10
45.60000000000001
 20
81.288308
 11
45.60000000000001
 21
78.29110800000001
  0
LINE
  5
B5
100
AcDbEntity
  8
red
  6
ByLayer
 62
  256
370
   -1
100
AcDbLine
 10
45.60000000000001
 20
78.29110800000001
 11
43.40036000000002
 21
78.29110800000001
  0
LINE
  5
B6
100
AcDbEntity
  8
red
  6
ByLayer
 62
  256
370
   -1
100
AcDbLine
 10
43.40036000000002
 20
78.29110800000001
 11
43.40036000000002
 21
81.288308
  0
LINE
  5
B7
100
AcDbEntity
  8
red
  6
ByLayer
 62
  256
370
   -1
100
AcDbLine
 10
43.40036000000002
 20
81.288308
 11
42.1202
 21
81.288308
  0
LINE
  5
B8
100
AcDbEntity
  8
red
  6
ByLayer
 62
  256
370
   -1
100
AcDbLine
 10
42.1202
 20
81.288308
 11
42.1202
 21
82.87580800000001
  0
LINE
  5
B9
100
AcDbEntity
  8
red
  6
ByLayer
 62
  256
370
   -1
100
AcDbLine
 10
42.1202
 20
82.87580800000001
 11
43.40036000000002
 21
82.87580800000001
  0
LINE
  5
BA
100
AcDbEntity
  8
red
  6
ByLayer
 62
  256
370
   -1
100
AcDbLine
 10
43.40036000000002
 20
82.87580800000001
 11
43.40036000000002
 21
88.41249999999999
  0
LINE
  5
BB
100
AcDbEntity
  8
red
  6
ByLayer
 62
  256
370
   -1
100
AcDbLine
 10
43.40036000000002
 20
88.41249999999999
 11
11.59963999999999
 21
88.41249999999999
  0
LINE
  5
BC
100
AcDbEntity
  8
red
  6
ByLayer
 62
  256
370
   -1
100
AcDbLine
 10
11.59963999999999
 20
88.41249999999999
 11
11.59963999999999
 21
82.87580800000001
  0
LINE
  5
BD
100
AcDbEntity
  8
red
  6
ByLayer
 62
  256
370
   -1
100
AcDbLine
 10
11.59963999999999
 20
82.87580800000001
 11
12.88234000000003
 21
82.87580800000001
  0
LINE
  5
BE
100
AcDbEntity
  8
red
  6
ByLayer
 62
  256
370
   -1
100
AcDbLine
 10
12.88234000000003
 20
82.87580800000001
 11
12.88234000000003
 21
81.288308
  0
LINE
  5
BF
100
AcDbEntity
  8
red
  6
ByLayer
 62
  256
370
   -1
100
AcDbLine
 10
12.88234000000003
 20
81.288308
 11
11.59963999999999
 21
81.288308
  0
LINE
  5
C0
100
AcDbEntity
  8
red
  6
ByLayer
 62
  256
370
   -1
100
AcDbLine
 10
11.59963999999999
 20
81.288308
 11
11.59963999999999
 21
78.29110800000001
  0
LINE
  5
C1
100
AcDbEntity
  8
red
  6
ByLayer
 62
  256
370
   -1
100
AcDbLine
 10
11.59963999999999
 20
78.29110800000001
 11
9.400000000000004
 21
78.29110800000001
  0
LINE
  5
C2
100
AcDbEntity
  8
red
  6
ByLayer
 62
  256
370
   -1
100
AcDbLine
 10
9.400000000000004
 20
78.29110800000001
 11
9.400000000000004
 21
81.288308
  0
LINE
  5
C3
100
AcDbEntity
  8
red
  6
ByLayer
 62
  256
370
   -1
100
AcDbLine
 10
9.400000000000004
 20
81.288308
 11
8.11983999999998
 21
81.288308
  0
LINE
  5
C4
100
AcDbEntity
  8
red
  6
ByLayer
 62
  256
370
   -1
100
AcDbLine
 10
8.11983999999998
 20
81.288308
 11
8.11983999999998
 21
82.87580800000001
  0
LINE
  5
C5
100
AcDbEntity
  8
red
  6
ByLayer
 62
  256
370
   -1
100
AcDbLine
 10
8.11983999999998
 20
82.87580800000001
 11
9.400000000000004
 21
82.87580800000001
  0
LINE
  5
C6
100
AcDbEntity
  8
red
  6
ByLayer
 62
  256
370
   -1
100
AcDbLine
 10
9.400000000000004
 20
82.87580800000001
 11
9.400000000000004
 21
88.41249999999999
  0
LINE
  5
C7
100
AcDbEntity
  8
red
  6
ByLayer
 62
  256
370
   -1
100
AcDbLine
 10
9.400000000000004
 20
88.41249999999999
 11
7.400000000000004
 21
88.41249999999999
  0
LINE
  5
C8
100
AcDbEntity
  8
red
  6
ByLayer
 62
  256
370
   -1
100
AcDbLine
 10
45.60000000000001
 20
88.41249999999999
 11
47.60000000000001
 21
88.41249999999999
  0
LINE
  5
C9
100
AcDbEntity
  8
red
  6
ByLayer
 62
  256
370
   -1
100
AcDbLine
 10
47.60000000000001
 20
88.41249999999999
 11
47.60000000000001
 21
90
  0
LINE
  5
CA
100
AcDbEntity
  8
red
  6
ByLayer
 62
  256
370
   -1
100
AcDbLine
 10
7.400000000000004
 20
90
 11
7.400000000000004
 21
88.41249999999999
  0
LINE
  5
CB
100
AcDbEntity
  8
red
  6
ByLayer
 62
  256
370
   -1
100
AcDbLine
 10
50.00000000000001
 20
90
 11
47.60000000000001
 21
90
  0
ARC
  5
CC
100
AcDbEntity
  8
red
  6
ByLayer
 62
  256
370
   -1
100
AcDbCircle
 10
50.00000000000001
 20
85
 40
5
100
AcDbArc
 50
0
 51
90
  0
LINE
  5
CD
100
AcDbEntity
  8
red
  6
ByLayer
 62
  256
370
   -1
100
AcDbLine
 10
5.000000000000004
 20
90
 11
7.400000000000004
 21
90
  0
ARC
  5
CE
100
AcDbEntity
  8
red
  6
ByLayer
 62
  256
370
   -1
100
AcDbCircle
 10
5.000000000000004
 20
85
 40
5
100
AcDbArc
 50
90
 51
180
  0
ARC
  5
CF
100
AcDbEntity
  8
red
  6
ByLayer
 62
  256
370
   -1
100
AcDbCircle
 10
5.000000000000001
 20
35
 40
5
100
AcDbArc
 50
180
 51
270
  0
LINE
  5
D0
100
AcDbEntity
  8
red
  6
ByLayer
 62
  256
370
   -1
100
AcDbLine
 10
5.000000000000001
 20
30
 11
50.00000000000001
 21
30
  0
ARC
  5
D1
100
AcDbEntity
  8
red
  6
ByLayer
 62
  256
370
   -1
100
AcDbCircle
 10
50.00000000000001
 20
35
 40
5
100
AcDbArc
 50
270
 51
0
  0
LWPOLYLINE
  5
D2
100
AcDbEntity
  8
red
  6
ByLayer
 62
  256
370
   -1
100
AcDbPolyline
 90
    4
 70
    1
 43
0
 10
24.91250000000001
 20
66.52932399999999
 10
30.62749999999987
 20
66.52932399999999
 10
30.62749999999987
 20
58.908562
 10
24.91250000000001
 20
58.908562
  0
LWPOLYLINE
  5
D3
100
AcDbEntity
  8
red
  6
ByLayer
 62
  256
370
   -1
100
AcDbPolyline
 90
    4
 70
    1
 43
0
 10
24.91250000000001
 20
53.8291716
 10
30.62749999999987
 20
53.8291716
 10
30.62749999999987
 20
46.2086128
 10
24.91250000000001
 20
46.2086128
  0
LINE
  5
D4
100
AcDbEntity
  8
red
  6
ByLayer
 62
  256
370
   -1
100
AcDbLine
 10
2.489474319620908e-15
 20
70.65620097736225
 11
3.367778697655221e-15
 21
85
  0
ARC
  5
D5
100
AcDbEntity
  8
red
  6
ByLayer
 62
  256
370
   -1
100
AcDbCircle
 10
5.000000000000003
 20
70.65620097736225
 40
5
100
AcDbArc
 50
180
 51
229.1650467439254
  0
LINE
  5
D6
100
AcDbEntity
  8
red
  6
ByLayer
 62
  256
370
   -1
100
AcDbLine
 10
55.00000000000001
 20
70.62685606160335
 11
55.00000000000001
 21
85
  0
ARC
  5
D7
100
AcDbEntity
  8
red
  6
ByLayer
 62
  256
370
   -1
100
AcDbCircle
 10
50.00000000000001
 20
70.62685606160335
 40
5
100
AcDbArc
 50
311.3923340113257
 51
0
  0
LINE
  5
D8
100
AcDbEntity
  8
red
  6
ByLayer
 62
  256
370
   -1
100
AcDbLine
 10
8.881784197001252e-16
 20
35
 11
1.049934821189847e-15
 21
42.08153262263778
  0
ARC
  5
D9
100
AcDbEntity
  8
red
  6
ByLayer
 62
  256
370
   -1
100
AcDbCircle
 10
4.999999999999993
 20
42.08153262263778
 40
5
100
AcDbArc
 50
130.8349532560746
 51
180
  0
LINE
  5
DA
100
AcDbEntity
  8
red
  6
ByLayer
 62
  256
370
   -1
100
AcDbLine
 10
55.00000000000001
 20
42.11087753839666
 11
55.00000000000001
 21
35
  0
ARC
  5
DB
100
AcDbEntity
  8
red
  6
ByLayer
 62
  256
370
   -1
100
AcDbCircle
 10
50
 20
42.11087753839666
 40
5
100
AcDbArc
 50
0
 51
48.60766598867438
  0
LINE
  5
DC
100
AcDbEntity
  8
red
  6
ByLayer
 62
  256
370
   -1
100
AcDbLine
 10
45.64081949812653
 20
52.6178690785517
 11
53.30605748493423
 21
45.86187525984497
  0
LINE
  5
DD
100
AcDbEntity
  8
red
  6
ByLayer
 62
  256
370
   -1
100
AcDbLine
 10
53.30605748493424
 20
66.87585834015505
 11
45.64081949812652
 21
60.11986452144829
  0
ARC
  5
DE
100
AcDbEntity
  8
red
  6
ByLayer
 62
  256
370
   -1
100
AcDbCircle
 10
48.94687698306075
 20
56.36886679999999
 40
5
100
AcDbArc
 50
131.3923340113257
 51
228.6076659886744
  0
LINE
  5
DF
100
AcDbEntity
  8
red
  6
ByLayer
 62
  256
370
   -1
100
AcDbLine
 10
9.507775179382879
 20
52.58588532017247
 11
1.730588566227555
 21
45.8645141024653
  0
LINE
  5
E0
100
AcDbEntity
  8
red
  6
ByLayer
 62
  256
370
   -1
100
AcDbLine
 10
1.730588566227548
 20
66.87321949753471
 11
9.507775179382893
 21
60.15184827982752
  0
ARC
  5
E1
100
AcDbEntity
  8
red
  6
ByLayer
 62
  256
370
   -1
100
AcDbCircle
 10
6.238363745610442
 20
56.36886679999999
 40
5
100
AcDbArc
 50
310.8349532560746
 51
49.1650467439254
  0
LWPOLYLINE
  5
E2
100
AcDbEntity
  8
red
  6
ByLayer
 62
    1
370
   -1
100
AcDbPolyline
 90
    6
 70
    1
 43
0
 10
234.66854
 20
52.057761
 10
236.95708
 20
48.089011
 10
234.66854
 20
44.118737
 10
230.0813
 20
44.118737
 10
227.79022
 20
48.089011
 10
230.0813
 20
52.057761
  0
LWPOLYLINE
  5
E3
100
AcDbEntity
  8
red
  6
ByLayer
 62
    1
370
   -1
100
AcDbPolyline
 90
   24
 70
    1
 43
0
 10
240
 20
39.049151
 10
240
 20
40.95084900000001
 10
233.9675
 20
40.95084900000001
 10
233.9675
 20
39.049151
 10
229.1542
 20
39.049151
 10
229.1542
 20
33.714643
 10
220.7721999999999
 20
33.714643
 10
220.7721999999999
 20
39.049151
 10
217.4702
 20
39.049151
 10
217.4702
 20
57.12887099999999
 10
220.7721999999999
 20
57.12887099999999
 10
220.7721999999999
 20
62.46337899999999
 10
229.1542
 20
62.46337899999999
 10
229.1542
 20
57.12887099999999
 10
233.9675
 20
57.119473
 10
233.9675
 20
55.217521
 10
240
 20
55.217521
 10
240
 20
57.119473
 10
246.9799199999999
 20
57.12887099999999
 10
246.9799199999999
 20
52.24495899999999
 10
252.31392
 20
52.24495899999999
 10
252.31392
 20
43.894455
 10
246.9799199999999
 20
43.894455
 10
246.9799199999999
 20
39.049151
  0
LWPOLYLINE
  5
E4
100
AcDbEntity
  8
red
  6
ByLayer
 62
    1
370
   -1
100
AcDbPolyline
 90
   24
 70
    1
 43
0
 10
235.6845399999999
 20
22.52492700000001
 10
235.6845399999999
 20
22.698917
 10
235.82678
 20
23.21682300000001
 10
236.20778
 20
23.781973
 10
236.77166
 20
24.163481
 10
237.28982
 20
24.30267300000001
 10
237.4650799999999
 20
24.30267300000001
 10
237.63526
 20
24.30267300000001
 10
238.1534199999999
 20
24.163481
 10
238.72238
 20
23.781973
 10
239.10338
 20
23.21682300000001
 10
239.24054
 20
22.698917
 10
239.24054
 20
22.52492700000001
 10
239.24054
 20
22.352715
 10
239.10338
 20
21.833285
 10
238.72238
 20
21.26838900000001
 10
238.1534199999999
 20
20.886627
 10
237.63526
 20
20.745911
 10
237.4650799999999
 20
20.745911
 10
237.28982
 20
20.745911
 10
236.77166
 20
20.886627
 10
236.20778
 20
21.26838900000001
 10
235.82678
 20
21.833285
 10
235.6845399999999
 20
22.352715
  0
LWPOLYLINE
  5
E5
100
AcDbEntity
  8
red
  6
ByLayer
 62
    1
370
   -1
100
AcDbPolyline
 90
   24
 70
    1
 43
0
 10
229.84254
 20
31.564787
 10
229.84254
 20
29.66334299999999
 10
235.8724999999999
 20
29.66334299999999
 10
235.8724999999999
 20
31.564787
 10
240.68326
 20
31.564787
 10
240.68326
 20
36.899295
 10
249.06526
 20
36.899295
 10
249.06526
 20
31.564787
 10
252.3672599999999
 20
31.564787
 10
252.3672599999999
 20
13.48506699999999
 10
249.06526
 20
13.48506699999999
 10
249.06526
 20
8.150813000000003
 10
240.68326
 20
8.150813000000003
 10
240.68326
 20
13.48506699999999
 10
235.8724999999999
 20
13.494719
 10
235.8724999999999
 20
15.396417
 10
229.84254
 20
15.396417
 10
229.84254
 20
13.494719
 10
222.85754
 20
13.48506699999999
 10
222.85754
 20
18.368979
 10
217.5235399999999
 20
18.368979
 10
217.5235399999999
 20
26.718467
 10
222.85754
 20
26.718467
 10
222.85754
 20
31.564787
  0
LWPOLYLINE
  5
E6
100
AcDbEntity
  8
red
  6
ByLayer
 62
  256
370
   -1
100
AcDbPolyline
 90
    4
 70
    1
 43
0
 10
269.48432
 20
79.59682199999999
 10
282.1843199999999
 20
79.59682199999999
 10
282.1843199999999
 20
73.88182199999999
 10
269.48432
 20
73.88182199999999
  0
LWPOLYLINE
  5
E7
100
AcDbEntity
  8
red
  6
ByLayer
 62
  256
370
   -1
100
AcDbPolyline
 90
    4
 70
    1
 43
0
 10
294.8843199999999
 20
79.59682199999999
 10
307.5843199999999
 20
79.59682199999999
 10
307.5843199999999
 20
73.88182199999999
 10
294.8843199999999
 20
73.88182199999999
  0
LWPOLYLINE
  5
E8
100
AcDbEntity
  8
red
  6
ByLayer
 62
  256
370
   -1
100
AcDbPolyline
 90
    4
 70
    1
 43
0
 10
294.63032
 20
-2.699089099999997
 10
307.33032
 20
-2.699089099999997
 10
307.33032
 20
-8.414089099999996
 10
294.63032
 20
-8.414089099999996
  0
LWPOLYLINE
  5
E9
100
AcDbEntity
  8
red
  6
ByLayer
 62
  256
370
   -1
100
AcDbPolyline
 90
    4
 70
    1
 43
0
 10
269.2303199999999
 20
-2.699089099999997
 10
281.93032
 20
-2.699089099999997
 10
281.93032
 20
-8.414089099999996
 10
269.2303199999999
 20
-8.414089099999996
  0
LWPOLYLINE
  5
EA
100
AcDbEntity
  8
red
  6
ByLayer
 62
  256
370
   -1
100
AcDbPolyline
 90
    4
 70
    1
 43
0
 10
187.61758
 20
-2.699089099999997
 10
200.31758
 20
-2.699089099999997
 10
200.31758
 20
-8.414089099999996
 10
187.61758
 20
-8.414089099999996
  0
LWPOLYLINE
  5
EB
100
AcDbEntity
  8
red
  6
ByLayer
 62
  256
370
   -1
100
AcDbPolyline
 90
    4
 70
    1
 43
0
 10
162.21758
 20
-2.699089099999997
 10
174.91758
 20
-2.699089099999997
 10
174.91758
 20
-8.414089099999996
 10
162.21758
 20
-8.414089099999996
  0
LWPOLYLINE
  5
EC
100
AcDbEntity
  8
red
  6
ByLayer
 62
  256
370
   -1
100
AcDbPolyline
 90
    4
 70
    1
 43
0
 10
187.87158
 20
79.59682199999999
 10
200.57158
 20
79.59682199999999
 10
200.57158
 20
73.88182199999999
 10
187.87158
 20
73.88182199999999
  0
LWPOLYLINE
  5
ED
100
AcDbEntity
  8
red
  6
ByLayer
 62
  256
370
   -1
100
AcDbPolyline
 90
    4
 70
    1
 43
0
 10
162.47158
 20
79.59682199999999
 10
175.17158
 20
79.59682199999999
 10
175.17158
 20
73.88182199999999
 10
162.47158
 20
73.88182199999999
  0
LINE
  5
EE
100
AcDbEntity
  8
red
  6
ByLayer
 62
    1
370
   -1
100
AcDbLine
 10
221.9405999999999
 20
-13.3039066
 11
248.1025999999999
 21
-5.990662399999996
  0
LINE
  5
EF
100
AcDbEntity
  8
red
  6
ByLayer
 62
    1
370
   -1
100
AcDbLine
 10
248.1025999999999
 20
-5.990662399999996
 11
248.1025999999999
 21
5.021253600000001
  0
LINE
  5
F0
100
AcDbEntity
  8
red
  6
ByLayer
 62
    1
370
   -1
100
AcDbLine
 10
248.1025999999999
 20
5.021253600000001
 11
248.1025999999999
 21
5.225190200000004
  0
LINE
  5
F1
100
AcDbEntity
  8
red
  6
ByLayer
 62
    1
370
   -1
100
AcDbLine
 10
248.1025999999999
 20
5.225190200000004
 11
247.98576
 21
5.837050800000004
  0
LINE
  5
F2
100
AcDbEntity
  8
red
  6
ByLayer
 62
    1
370
   -1
100
AcDbLine
 10
247.98576
 20
5.837050800000004
 11
247.66826
 21
6.501260800000004
  0
LINE
  5
F3
100
AcDbEntity
  8
red
  6
ByLayer
 62
    1
370
   -1
100
AcDbLine
 10
247.66826
 20
6.501260800000004
 11
247.20344
 21
6.949139000000002
  0
LINE
  5
F4
100
AcDbEntity
  8
red
  6
ByLayer
 62
    1
370
   -1
100
AcDbLine
 10
247.20344
 20
6.949139000000002
 11
246.77164
 21
7.113223000000001
  0
LINE
  5
F5
100
AcDbEntity
  8
red
  6
ByLayer
 62
    1
370
   -1
100
AcDbLine
 10
246.77164
 20
7.113223000000001
 11
246.6319399999999
 21
7.113223000000001
  0
LINE
  5
F6
100
AcDbEntity
  8
red
  6
ByLayer
 62
    1
370
   -1
100
AcDbLine
 10
246.6319399999999
 20
7.113223000000001
 11
246.4871599999999
 21
7.113223000000001
  0
LINE
  5
F7
100
AcDbEntity
  8
red
  6
ByLayer
 62
    1
370
   -1
100
AcDbLine
 10
246.4871599999999
 20
7.113223000000001
 11
246.05536
 21
6.949139000000002
  0
LINE
  5
F8
100
AcDbEntity
  8
red
  6
ByLayer
 62
    1
370
   -1
100
AcDbLine
 10
246.05536
 20
6.949139000000002
 11
245.5905399999999
 21
6.501260800000004
  0
LINE
  5
F9
100
AcDbEntity
  8
red
  6
ByLayer
 62
    1
370
   -1
100
AcDbLine
 10
245.5905399999999
 20
6.501260800000004
 11
245.27304
 21
5.837050800000004
  0
LINE
  5
FA
100
AcDbEntity
  8
red
  6
ByLayer
 62
    1
370
   -1
100
AcDbLine
 10
245.27304
 20
5.837050800000004
 11
245.16128
 21
5.225190200000004
  0
LINE
  5
FB
100
AcDbEntity
  8
red
  6
ByLayer
 62
    1
370
   -1
100
AcDbLine
 10
245.16128
 20
5.225190200000004
 11
245.16128
 21
5.021253600000001
  0
LINE
  5
FC
100
AcDbEntity
  8
red
  6
ByLayer
 62
    1
370
   -1
100
AcDbLine
 10
245.16128
 20
5.021253600000001
 11
245.16128
 21
5.225190200000004
  0
LINE
  5
FD
100
AcDbEntity
  8
red
  6
ByLayer
 62
    1
370
   -1
100
AcDbLine
 10
245.16128
 20
5.225190200000004
 11
245.04444
 21
5.837050800000004
  0
LINE
  5
FE
100
AcDbEntity
  8
red
  6
ByLayer
 62
    1
370
   -1
100
AcDbLine
 10
245.04444
 20
5.837050800000004
 11
244.72948
 21
6.501260800000004
  0
LINE
  5
FF
100
AcDbEntity
  8
red
  6
ByLayer
 62
    1
370
   -1
100
AcDbLine
 10
244.72948
 20
6.501260800000004
 11
244.25958
 21
6.949139000000002
  0
LINE
  5
100
100
AcDbEntity
  8
red
  6
ByLayer
 62
    1
370
   -1
100
AcDbLine
 10
244.25958
 20
6.949139000000002
 11
243.83032
 21
7.113223000000001
  0
LINE
  5
101
100
AcDbEntity
  8
red
  6
ByLayer
 62
    1
370
   -1
100
AcDbLine
 10
243.83032
 20
7.113223000000001
 11
243.68808
 21
7.113223000000001
  0
LINE
  5
102
100
AcDbEntity
  8
red
  6
ByLayer
 62
    1
370
   -1
100
AcDbLine
 10
243.68808
 20
7.113223000000001
 11
243.5458399999999
 21
7.113223000000001
  0
LINE
  5
103
100
AcDbEntity
  8
red
  6
ByLayer
 62
    1
370
   -1
100
AcDbLine
 10
243.5458399999999
 20
7.113223000000001
 11
243.1140399999999
 21
6.949139000000002
  0
LINE
  5
104
100
AcDbEntity
  8
red
  6
ByLayer
 62
    1
370
   -1
100
AcDbLine
 10
243.1140399999999
 20
6.949139000000002
 11
242.64922
 21
6.501260800000004
  0
LINE
  5
105
100
AcDbEntity
  8
red
  6
ByLayer
 62
    1
370
   -1
100
AcDbLine
 10
242.64922
 20
6.501260800000004
 11
242.33172
 21
5.837050800000004
  0
LINE
  5
106
100
AcDbEntity
  8
red
  6
ByLayer
 62
    1
370
   -1
100
AcDbLine
 10
242.33172
 20
5.837050800000004
 11
242.2174199999999
 21
5.225190200000004
  0
LINE
  5
107
100
AcDbEntity
  8
red
  6
ByLayer
 62
    1
370
   -1
100
AcDbLine
 10
242.2174199999999
 20
5.225190200000004
 11
242.2174199999999
 21
5.021253600000001
  0
LINE
  5
108
100
AcDbEntity
  8
red
  6
ByLayer
 62
    1
370
   -1
100
AcDbLine
 10
242.2174199999999
 20
5.021253600000001
 11
242.2174199999999
 21
5.225190200000004
  0
LINE
  5
109
100
AcDbEntity
  8
red
  6
ByLayer
 62
    1
370
   -1
100
AcDbLine
 10
242.2174199999999
 20
5.225190200000004
 11
242.10058
 21
5.837050800000004
  0
LINE
  5
10A
100
AcDbEntity
  8
red
  6
ByLayer
 62
    1
370
   -1
100
AcDbLine
 10
242.10058
 20
5.837050800000004
 11
241.7881599999999
 21
6.501260800000004
  0
LINE
  5
10B
100
AcDbEntity
  8
red
  6
ByLayer
 62
    1
370
   -1
100
AcDbLine
 10
241.7881599999999
 20
6.501260800000004
 11
241.31826
 21
6.949139000000002
  0
LINE
  5
10C
100
AcDbEntity
  8
red
  6
ByLayer
 62
    1
370
   -1
100
AcDbLine
 10
241.31826
 20
6.949139000000002
 11
240.889
 21
7.113223000000001
  0
LINE
  5
10D
100
AcDbEntity
  8
red
  6
ByLayer
 62
    1
370
   -1
100
AcDbLine
 10
240.889
 20
7.113223000000001
 11
240.7467599999999
 21
7.113223000000001
  0
LINE
  5
10E
100
AcDbEntity
  8
red
  6
ByLayer
 62
    1
370
   -1
100
AcDbLine
 10
240.7467599999999
 20
7.113223000000001
 11
240.6019799999999
 21
7.113223000000001
  0
LINE
  5
10F
100
AcDbEntity
  8
red
  6
ByLayer
 62
    1
370
   -1
100
AcDbLine
 10
240.6019799999999
 20
7.113223000000001
 11
240.1727199999999
 21
6.949139000000002
  0
LINE
  5
110
100
AcDbEntity
  8
red
  6
ByLayer
 62
    1
370
   -1
100
AcDbLine
 10
240.1727199999999
 20
6.949139000000002
 11
239.7053599999999
 21
6.501260800000004
  0
LINE
  5
111
100
AcDbEntity
  8
red
  6
ByLayer
 62
    1
370
   -1
100
AcDbLine
 10
239.7053599999999
 20
6.501260800000004
 11
239.38786
 21
5.837050800000004
  0
LINE
  5
112
100
AcDbEntity
  8
red
  6
ByLayer
 62
    1
370
   -1
100
AcDbLine
 10
239.38786
 20
5.837050800000004
 11
239.2760999999999
 21
5.225190200000004
  0
LINE
  5
113
100
AcDbEntity
  8
red
  6
ByLayer
 62
    1
370
   -1
100
AcDbLine
 10
239.2760999999999
 20
5.225190200000004
 11
239.2760999999999
 21
5.021253600000001
  0
LINE
  5
114
100
AcDbEntity
  8
red
  6
ByLayer
 62
    1
370
   -1
100
AcDbLine
 10
239.2760999999999
 20
5.021253600000001
 11
239.2760999999999
 21
5.225190200000004
  0
LINE
  5
115
100
AcDbEntity
  8
red
  6
ByLayer
 62
    1
370
   -1
100
AcDbLine
 10
239.2760999999999
 20
5.225190200000004
 11
239.15926
 21
5.837050800000004
  0
LINE
  5
116
100
AcDbEntity
  8
red
  6
ByLayer
 62
    1
370
   -1
100
AcDbLine
 10
239.15926
 20
5.837050800000004
 11
238.8443
 21
6.501260800000004
  0
LINE
  5
117
100
AcDbEntity
  8
red
  6
ByLayer
 62
    1
370
   -1
100
AcDbLine
 10
238.8443
 20
6.501260800000004
 11
238.37694
 21
6.949139000000002
  0
LINE
  5
118
100
AcDbEntity
  8
red
  6
ByLayer
 62
    1
370
   -1
100
AcDbLine
 10
238.37694
 20
6.949139000000002
 11
237.94514
 21
7.113223000000001
  0
LINE
  5
119
100
AcDbEntity
  8
red
  6
ByLayer
 62
    1
370
   -1
100
AcDbLine
 10
237.94514
 20
7.113223000000001
 11
237.80544
 21
7.113223000000001
  0
LINE
  5
11A
100
AcDbEntity
  8
red
  6
ByLayer
 62
    1
370
   -1
100
AcDbLine
 10
237.80544
 20
7.113223000000001
 11
237.66066
 21
7.113223000000001
  0
LINE
  5
11B
100
AcDbEntity
  8
red
  6
ByLayer
 62
    1
370
   -1
100
AcDbLine
 10
237.66066
 20
7.113223000000001
 11
237.2339399999999
 21
6.949139000000002
  0
LINE
  5
11C
100
AcDbEntity
  8
red
  6
ByLayer
 62
    1
370
   -1
100
AcDbLine
 10
237.2339399999999
 20
6.949139000000002
 11
236.76404
 21
6.501260800000004
  0
LINE
  5
11D
100
AcDbEntity
  8
red
  6
ByLayer
 62
    1
370
   -1
100
AcDbLine
 10
236.76404
 20
6.501260800000004
 11
236.44654
 21
5.837050800000004
  0
LINE
  5
11E
100
AcDbEntity
  8
red
  6
ByLayer
 62
    1
370
   -1
100
AcDbLine
 10
236.44654
 20
5.837050800000004
 11
236.33478
 21
5.225190200000004
  0
LINE
  5
11F
100
AcDbEntity
  8
red
  6
ByLayer
 62
    1
370
   -1
100
AcDbLine
 10
236.33478
 20
5.225190200000004
 11
236.33478
 21
5.021253600000001
  0
LINE
  5
120
100
AcDbEntity
  8
red
  6
ByLayer
 62
    1
370
   -1
100
AcDbLine
 10
236.33478
 20
5.021253600000001
 11
236.33478
 21
5.225190200000004
  0
LINE
  5
121
100
AcDbEntity
  8
red
  6
ByLayer
 62
    1
370
   -1
100
AcDbLine
 10
236.33478
 20
5.225190200000004
 11
236.2179399999999
 21
5.837050800000004
  0
LINE
  5
122
100
AcDbEntity
  8
red
  6
ByLayer
 62
    1
370
   -1
100
AcDbLine
 10
236.2179399999999
 20
5.837050800000004
 11
235.90298
 21
6.501260800000004
  0
LINE
  5
123
100
AcDbEntity
  8
red
  6
ByLayer
 62
    1
370
   -1
100
AcDbLine
 10
235.90298
 20
6.501260800000004
 11
235.43308
 21
6.949139000000002
  0
LINE
  5
124
100
AcDbEntity
  8
red
  6
ByLayer
 62
    1
370
   -1
100
AcDbLine
 10
235.43308
 20
6.949139000000002
 11
235.00382
 21
7.113223000000001
  0
LINE
  5
125
100
AcDbEntity
  8
red
  6
ByLayer
 62
    1
370
   -1
100
AcDbLine
 10
235.00382
 20
7.113223000000001
 11
234.8615799999999
 21
7.113223000000001
  0
LINE
  5
126
100
AcDbEntity
  8
red
  6
ByLayer
 62
    1
370
   -1
100
AcDbLine
 10
234.8615799999999
 20
7.113223000000001
 11
234.71934
 21
7.113223000000001
  0
LINE
  5
127
100
AcDbEntity
  8
red
  6
ByLayer
 62
    1
370
   -1
100
AcDbLine
 10
234.71934
 20
7.113223000000001
 11
234.2900799999999
 21
6.949139000000002
  0
LINE
  5
128
100
AcDbEntity
  8
red
  6
ByLayer
 62
    1
370
   -1
100
AcDbLine
 10
234.2900799999999
 20
6.949139000000002
 11
233.8227199999999
 21
6.501260800000004
  0
LINE
  5
129
100
AcDbEntity
  8
red
  6
ByLayer
 62
    1
370
   -1
100
AcDbLine
 10
233.8227199999999
 20
6.501260800000004
 11
233.50522
 21
5.837050800000004
  0
LINE
  5
12A
100
AcDbEntity
  8
red
  6
ByLayer
 62
    1
370
   -1
100
AcDbLine
 10
233.50522
 20
5.837050800000004
 11
233.3909199999999
 21
5.225190200000004
  0
LINE
  5
12B
100
AcDbEntity
  8
red
  6
ByLayer
 62
    1
370
   -1
100
AcDbLine
 10
233.3909199999999
 20
5.225190200000004
 11
233.3909199999999
 21
5.021253600000001
  0
LINE
  5
12C
100
AcDbEntity
  8
red
  6
ByLayer
 62
    1
370
   -1
100
AcDbLine
 10
233.3909199999999
 20
5.021253600000001
 11
233.3909199999999
 21
5.225190200000004
  0
LINE
  5
12D
100
AcDbEntity
  8
red
  6
ByLayer
 62
    1
370
   -1
100
AcDbLine
 10
233.3909199999999
 20
5.225190200000004
 11
233.27408
 21
5.837050800000004
  0
LINE
  5
12E
100
AcDbEntity
  8
red
  6
ByLayer
 62
    1
370
   -1
100
AcDbLine
 10
233.27408
 20
5.837050800000004
 11
232.9616599999999
 21
6.501260800000004
  0
LINE
  5
12F
100
AcDbEntity
  8
red
  6
ByLayer
 62
    1
370
   -1
100
AcDbLine
 10
232.9616599999999
 20
6.501260800000004
 11
232.49176
 21
6.949139000000002
  0
LINE
  5
130
100
AcDbEntity
  8
red
  6
ByLayer
 62
    1
370
   -1
100
AcDbLine
 10
232.49176
 20
6.949139000000002
 11
232.0625
 21
7.113223000000001
  0
LINE
  5
131
100
AcDbEntity
  8
red
  6
ByLayer
 62
    1
370
   -1
100
AcDbLine
 10
232.0625
 20
7.113223000000001
 11
231.9202599999999
 21
7.113223000000001
  0
LINE
  5
132
100
AcDbEntity
  8
red
  6
ByLayer
 62
    1
370
   -1
100
AcDbLine
 10
231.9202599999999
 20
7.113223000000001
 11
231.77548
 21
7.113223000000001
  0
LINE
  5
133
100
AcDbEntity
  8
red
  6
ByLayer
 62
    1
370
   -1
100
AcDbLine
 10
231.77548
 20
7.113223000000001
 11
231.3487599999999
 21
6.949139000000002
  0
LINE
  5
134
100
AcDbEntity
  8
red
  6
ByLayer
 62
    1
370
   -1
100
AcDbLine
 10
231.3487599999999
 20
6.949139000000002
 11
230.8788599999999
 21
6.501260800000004
  0
LINE
  5
135
100
AcDbEntity
  8
red
  6
ByLayer
 62
    1
370
   -1
100
AcDbLine
 10
230.8788599999999
 20
6.501260800000004
 11
230.56136
 21
5.837050800000004
  0
LINE
  5
136
100
AcDbEntity
  8
red
  6
ByLayer
 62
    1
370
   -1
100
AcDbLine
 10
230.56136
 20
5.837050800000004
 11
230.4496
 21
5.225190200000004
  0
LINE
  5
137
100
AcDbEntity
  8
red
  6
ByLayer
 62
    1
370
   -1
100
AcDbLine
 10
230.4496
 20
5.225190200000004
 11
230.4496
 21
5.021253600000001
  0
LINE
  5
138
100
AcDbEntity
  8
red
  6
ByLayer
 62
    1
370
   -1
100
AcDbLine
 10
230.4496
 20
5.021253600000001
 11
228.2905999999999
 21
5.746093400000003
  0
LINE
  5
139
100
AcDbEntity
  8
red
  6
ByLayer
 62
    1
370
   -1
100
AcDbLine
 10
228.2905999999999
 20
5.746093400000003
 11
216.6066
 21
5.746093400000003
  0
LINE
  5
13A
100
AcDbEntity
  8
red
  6
ByLayer
 62
    1
370
   -1
100
AcDbLine
 10
216.6066
 20
5.746093400000003
 11
216.6066
 21
65.435687
  0
LINE
  5
13B
100
AcDbEntity
  8
red
  6
ByLayer
 62
    1
370
   -1
100
AcDbLine
 10
216.6066
 20
65.435687
 11
220.94238
 21
65.435687
  0
LINE
  5
13C
100
AcDbEntity
  8
red
  6
ByLayer
 62
    1
370
   -1
100
AcDbLine
 10
220.94238
 20
65.435687
 11
220.94238
 21
84.485687
  0
LINE
  5
13D
100
AcDbEntity
  8
red
  6
ByLayer
 62
    1
370
   -1
100
AcDbLine
 10
220.94238
 20
84.485687
 11
216.6066
 21
84.485687
  0
LINE
  5
13E
100
AcDbEntity
  8
red
  6
ByLayer
 62
    1
370
   -1
100
AcDbLine
 10
216.6066
 20
84.485687
 11
216.6066
 21
89.486693
  0
LINE
  5
13F
100
AcDbEntity
  8
red
  6
ByLayer
 62
    1
370
   -1
100
AcDbLine
 10
216.6066
 20
89.486693
 11
210.17532
 21
89.486693
  0
LINE
  5
140
100
AcDbEntity
  8
red
  6
ByLayer
 62
    1
370
   -1
100
AcDbLine
 10
210.17532
 20
89.486693
 11
204.2418799999999
 21
84.485687
  0
LINE
  5
141
100
AcDbEntity
  8
red
  6
ByLayer
 62
    1
370
   -1
100
AcDbLine
 10
204.2418799999999
 20
84.485687
 11
159.91888
 21
84.485687
  0
LINE
  5
142
100
AcDbEntity
  8
red
  6
ByLayer
 62
    1
370
   -1
100
AcDbLine
 10
159.91888
 20
-13.3039066
 11
204.2418799999999
 21
-13.3039066
  0
LINE
  5
143
100
AcDbEntity
  8
red
  6
ByLayer
 62
    1
370
   -1
100
AcDbLine
 10
204.2418799999999
 20
-13.3039066
 11
210.17532
 21
-18.303428224
  0
LINE
  5
144
100
AcDbEntity
  8
red
  6
ByLayer
 62
    1
370
   -1
100
AcDbLine
 10
210.17532
 20
-18.303428224
 11
216.6066
 21
-18.303428224
  0
LINE
  5
145
100
AcDbEntity
  8
red
  6
ByLayer
 62
    1
370
   -1
100
AcDbLine
 10
216.6066
 20
-18.303428224
 11
216.6066
 21
-13.3039066
  0
LINE
  5
146
100
AcDbEntity
  8
red
  6
ByLayer
 62
    1
370
   -1
100
AcDbLine
 10
216.6066
 20
-13.3039066
 11
221.9405999999999
 21
-13.3039066
  0
LINE
  5
147
100
AcDbEntity
  8
red
  6
ByLayer
 62
    1
370
   -1
100
AcDbLine
 10
247.86384
 20
84.485687
 11
221.70438
 21
77.174043
  0
LINE
  5
148
100
AcDbEntity
  8
red
  6
ByLayer
 62
    1
370
   -1
100
AcDbLine
 10
221.70438
 20
77.174043
 11
221.70438
 21
66.16085700000001
  0
LINE
  5
149
100
AcDbEntity
  8
red
  6
ByLayer
 62
    1
370
   -1
100
AcDbLine
 10
221.70438
 20
66.16085700000001
 11
221.70438
 21
65.95816499999999
  0
LINE
  5
14A
100
AcDbEntity
  8
red
  6
ByLayer
 62
    1
370
   -1
100
AcDbLine
 10
221.70438
 20
65.95816499999999
 11
221.81614
 21
65.347549
  0
LINE
  5
14B
100
AcDbEntity
  8
red
  6
ByLayer
 62
    1
370
   -1
100
AcDbLine
 10
221.81614
 20
65.347549
 11
222.1310999999999
 21
64.681815
  0
LINE
  5
14C
100
AcDbEntity
  8
red
  6
ByLayer
 62
    1
370
   -1
100
AcDbLine
 10
222.1310999999999
 20
64.681815
 11
222.601
 21
64.234267
  0
LINE
  5
14D
100
AcDbEntity
  8
red
  6
ByLayer
 62
    1
370
   -1
100
AcDbLine
 10
222.601
 20
64.234267
 11
223.03026
 21
64.068659
  0
LINE
  5
14E
100
AcDbEntity
  8
red
  6
ByLayer
 62
    1
370
   -1
100
AcDbLine
 10
223.03026
 20
64.068659
 11
223.1725
 21
64.068659
  0
LINE
  5
14F
100
AcDbEntity
  8
red
  6
ByLayer
 62
    1
370
   -1
100
AcDbLine
 10
223.1725
 20
64.068659
 11
223.31728
 21
64.068659
  0
LINE
  5
150
100
AcDbEntity
  8
red
  6
ByLayer
 62
    1
370
   -1
100
AcDbLine
 10
223.31728
 20
64.068659
 11
223.744
 21
64.234267
  0
LINE
  5
151
100
AcDbEntity
  8
red
  6
ByLayer
 62
    1
370
   -1
100
AcDbLine
 10
223.744
 20
64.234267
 11
224.21136
 21
64.681815
  0
LINE
  5
152
100
AcDbEntity
  8
red
  6
ByLayer
 62
    1
370
   -1
100
AcDbLine
 10
224.21136
 20
64.681815
 11
224.52886
 21
65.347549
  0
LINE
  5
153
100
AcDbEntity
  8
red
  6
ByLayer
 62
    1
370
   -1
100
AcDbLine
 10
224.52886
 20
65.347549
 11
224.6456999999999
 21
65.95816499999999
  0
LINE
  5
154
100
AcDbEntity
  8
red
  6
ByLayer
 62
    1
370
   -1
100
AcDbLine
 10
224.6456999999999
 20
65.95816499999999
 11
224.6456999999999
 21
66.16085700000001
  0
LINE
  5
155
100
AcDbEntity
  8
red
  6
ByLayer
 62
    1
370
   -1
100
AcDbLine
 10
224.6456999999999
 20
66.16085700000001
 11
224.6456999999999
 21
65.95816499999999
  0
LINE
  5
156
100
AcDbEntity
  8
red
  6
ByLayer
 62
    1
370
   -1
100
AcDbLine
 10
224.6456999999999
 20
65.95816499999999
 11
224.7599999999999
 21
65.347549
  0
LINE
  5
157
100
AcDbEntity
  8
red
  6
ByLayer
 62
    1
370
   -1
100
AcDbLine
 10
224.7599999999999
 20
65.347549
 11
225.07242
 21
64.681815
  0
LINE
  5
158
100
AcDbEntity
  8
red
  6
ByLayer
 62
    1
370
   -1
100
AcDbLine
 10
225.07242
 20
64.681815
 11
225.54232
 21
64.234267
  0
LINE
  5
159
100
AcDbEntity
  8
red
  6
ByLayer
 62
    1
370
   -1
100
AcDbLine
 10
225.54232
 20
64.234267
 11
225.97158
 21
64.068659
  0
LINE
  5
15A
100
AcDbEntity
  8
red
  6
ByLayer
 62
    1
370
   -1
100
AcDbLine
 10
225.97158
 20
64.068659
 11
226.11382
 21
64.068659
  0
LINE
  5
15B
100
AcDbEntity
  8
red
  6
ByLayer
 62
    1
370
   -1
100
AcDbLine
 10
226.11382
 20
64.068659
 11
226.2585999999999
 21
64.068659
  0
LINE
  5
15C
100
AcDbEntity
  8
red
  6
ByLayer
 62
    1
370
   -1
100
AcDbLine
 10
226.2585999999999
 20
64.068659
 11
226.68532
 21
64.234267
  0
LINE
  5
15D
100
AcDbEntity
  8
red
  6
ByLayer
 62
    1
370
   -1
100
AcDbLine
 10
226.68532
 20
64.234267
 11
227.1552199999999
 21
64.681815
  0
LINE
  5
15E
100
AcDbEntity
  8
red
  6
ByLayer
 62
    1
370
   -1
100
AcDbLine
 10
227.1552199999999
 20
64.681815
 11
227.4727199999999
 21
65.347549
  0
LINE
  5
15F
100
AcDbEntity
  8
red
  6
ByLayer
 62
    1
370
   -1
100
AcDbLine
 10
227.4727199999999
 20
65.347549
 11
227.5895599999999
 21
65.95816499999999
  0
LINE
  5
160
100
AcDbEntity
  8
red
  6
ByLayer
 62
    1
370
   -1
100
AcDbLine
 10
227.5895599999999
 20
65.95816499999999
 11
227.5895599999999
 21
66.16085700000001
  0
LINE
  5
161
100
AcDbEntity
  8
red
  6
ByLayer
 62
    1
370
   -1
100
AcDbLine
 10
227.5895599999999
 20
66.16085700000001
 11
227.5895599999999
 21
65.95816499999999
  0
LINE
  5
162
100
AcDbEntity
  8
red
  6
ByLayer
 62
    1
370
   -1
100
AcDbLine
 10
227.5895599999999
 20
65.95816499999999
 11
227.70132
 21
65.347549
  0
LINE
  5
163
100
AcDbEntity
  8
red
  6
ByLayer
 62
    1
370
   -1
100
AcDbLine
 10
227.70132
 20
65.347549
 11
228.0162799999999
 21
64.681815
  0
LINE
  5
164
100
AcDbEntity
  8
red
  6
ByLayer
 62
    1
370
   -1
100
AcDbLine
 10
228.0162799999999
 20
64.681815
 11
228.4836399999999
 21
64.234267
  0
LINE
  5
165
100
AcDbEntity
  8
red
  6
ByLayer
 62
    1
370
   -1
100
AcDbLine
 10
228.4836399999999
 20
64.234267
 11
228.91544
 21
64.068659
  0
LINE
  5
166
100
AcDbEntity
  8
red
  6
ByLayer
 62
    1
370
   -1
100
AcDbLine
 10
228.91544
 20
64.068659
 11
229.06022
 21
64.068659
  0
LINE
  5
167
100
AcDbEntity
  8
red
  6
ByLayer
 62
    1
370
   -1
100
AcDbLine
 10
229.06022
 20
64.068659
 11
229.19992
 21
64.068659
  0
LINE
  5
168
100
AcDbEntity
  8
red
  6
ByLayer
 62
    1
370
   -1
100
AcDbLine
 10
229.19992
 20
64.068659
 11
229.63172
 21
64.234267
  0
LINE
  5
169
100
AcDbEntity
  8
red
  6
ByLayer
 62
    1
370
   -1
100
AcDbLine
 10
229.63172
 20
64.234267
 11
230.0965399999999
 21
64.681815
  0
LINE
  5
16A
100
AcDbEntity
  8
red
  6
ByLayer
 62
    1
370
   -1
100
AcDbLine
 10
230.0965399999999
 20
64.681815
 11
230.4140399999999
 21
65.347549
  0
LINE
  5
16B
100
AcDbEntity
  8
red
  6
ByLayer
 62
    1
370
   -1
100
AcDbLine
 10
230.4140399999999
 20
65.347549
 11
230.53088
 21
65.95816499999999
  0
LINE
  5
16C
100
AcDbEntity
  8
red
  6
ByLayer
 62
    1
370
   -1
100
AcDbLine
 10
230.53088
 20
65.95816499999999
 11
230.53088
 21
66.16085700000001
  0
LINE
  5
16D
100
AcDbEntity
  8
red
  6
ByLayer
 62
    1
370
   -1
100
AcDbLine
 10
230.53088
 20
66.16085700000001
 11
230.53088
 21
65.95816499999999
  0
LINE
  5
16E
100
AcDbEntity
  8
red
  6
ByLayer
 62
    1
370
   -1
100
AcDbLine
 10
230.53088
 20
65.95816499999999
 11
230.64264
 21
65.347549
  0
LINE
  5
16F
100
AcDbEntity
  8
red
  6
ByLayer
 62
    1
370
   -1
100
AcDbLine
 10
230.64264
 20
65.347549
 11
230.9576
 21
64.681815
  0
LINE
  5
170
100
AcDbEntity
  8
red
  6
ByLayer
 62
    1
370
   -1
100
AcDbLine
 10
230.9576
 20
64.681815
 11
231.4275
 21
64.234267
  0
LINE
  5
171
100
AcDbEntity
  8
red
  6
ByLayer
 62
    1
370
   -1
100
AcDbLine
 10
231.4275
 20
64.234267
 11
231.85676
 21
64.068659
  0
LINE
  5
172
100
AcDbEntity
  8
red
  6
ByLayer
 62
    1
370
   -1
100
AcDbLine
 10
231.85676
 20
64.068659
 11
231.999
 21
64.068659
  0
LINE
  5
173
100
AcDbEntity
  8
red
  6
ByLayer
 62
    1
370
   -1
100
AcDbLine
 10
231.999
 20
64.068659
 11
232.14378
 21
64.068659
  0
LINE
  5
174
100
AcDbEntity
  8
red
  6
ByLayer
 62
    1
370
   -1
100
AcDbLine
 10
232.14378
 20
64.068659
 11
232.5705
 21
64.234267
  0
LINE
  5
175
100
AcDbEntity
  8
red
  6
ByLayer
 62
    1
370
   -1
100
AcDbLine
 10
232.5705
 20
64.234267
 11
233.03786
 21
64.681815
  0
LINE
  5
176
100
AcDbEntity
  8
red
  6
ByLayer
 62
    1
370
   -1
100
AcDbLine
 10
233.03786
 20
64.681815
 11
233.35536
 21
65.347549
  0
LINE
  5
177
100
AcDbEntity
  8
red
  6
ByLayer
 62
    1
370
   -1
100
AcDbLine
 10
233.35536
 20
65.347549
 11
233.46966
 21
65.95816499999999
  0
LINE
  5
178
100
AcDbEntity
  8
red
  6
ByLayer
 62
    1
370
   -1
100
AcDbLine
 10
233.46966
 20
65.95816499999999
 11
233.46966
 21
66.16085700000001
  0
LINE
  5
179
100
AcDbEntity
  8
red
  6
ByLayer
 62
    1
370
   -1
100
AcDbLine
 10
233.46966
 20
66.16085700000001
 11
233.46966
 21
65.95816499999999
  0
LINE
  5
17A
100
AcDbEntity
  8
red
  6
ByLayer
 62
    1
370
   -1
100
AcDbLine
 10
233.46966
 20
65.95816499999999
 11
233.5864999999999
 21
65.347549
  0
LINE
  5
17B
100
AcDbEntity
  8
red
  6
ByLayer
 62
    1
370
   -1
100
AcDbLine
 10
233.5864999999999
 20
65.347549
 11
233.8989199999999
 21
64.681815
  0
LINE
  5
17C
100
AcDbEntity
  8
red
  6
ByLayer
 62
    1
370
   -1
100
AcDbLine
 10
233.8989199999999
 20
64.681815
 11
234.3688199999999
 21
64.234267
  0
LINE
  5
17D
100
AcDbEntity
  8
red
  6
ByLayer
 62
    1
370
   -1
100
AcDbLine
 10
234.3688199999999
 20
64.234267
 11
234.79808
 21
64.068659
  0
LINE
  5
17E
100
AcDbEntity
  8
red
  6
ByLayer
 62
    1
370
   -1
100
AcDbLine
 10
234.79808
 20
64.068659
 11
234.9403199999999
 21
64.068659
  0
LINE
  5
17F
100
AcDbEntity
  8
red
  6
ByLayer
 62
    1
370
   -1
100
AcDbLine
 10
234.9403199999999
 20
64.068659
 11
235.0851
 21
64.068659
  0
LINE
  5
180
100
AcDbEntity
  8
red
  6
ByLayer
 62
    1
370
   -1
100
AcDbLine
 10
235.0851
 20
64.068659
 11
235.51182
 21
64.234267
  0
LINE
  5
181
100
AcDbEntity
  8
red
  6
ByLayer
 62
    1
370
   -1
100
AcDbLine
 10
235.51182
 20
64.234267
 11
235.9817199999999
 21
64.681815
  0
LINE
  5
182
100
AcDbEntity
  8
red
  6
ByLayer
 62
    1
370
   -1
100
AcDbLine
 10
235.9817199999999
 20
64.681815
 11
236.2992199999999
 21
65.347549
  0
LINE
  5
183
100
AcDbEntity
  8
red
  6
ByLayer
 62
    1
370
   -1
100
AcDbLine
 10
236.2992199999999
 20
65.347549
 11
236.4109799999999
 21
65.95816499999999
  0
LINE
  5
184
100
AcDbEntity
  8
red
  6
ByLayer
 62
    1
370
   -1
100
AcDbLine
 10
236.4109799999999
 20
65.95816499999999
 11
236.4109799999999
 21
66.16085700000001
  0
LINE
  5
185
100
AcDbEntity
  8
red
  6
ByLayer
 62
    1
370
   -1
100
AcDbLine
 10
236.4109799999999
 20
66.16085700000001
 11
236.4109799999999
 21
65.95816499999999
  0
LINE
  5
186
100
AcDbEntity
  8
red
  6
ByLayer
 62
    1
370
   -1
100
AcDbLine
 10
236.4109799999999
 20
65.95816499999999
 11
236.52782
 21
65.347549
  0
LINE
  5
187
100
AcDbEntity
  8
red
  6
ByLayer
 62
    1
370
   -1
100
AcDbLine
 10
236.52782
 20
65.347549
 11
236.8427799999999
 21
64.681815
  0
LINE
  5
188
100
AcDbEntity
  8
red
  6
ByLayer
 62
    1
370
   -1
100
AcDbLine
 10
236.8427799999999
 20
64.681815
 11
237.3101399999999
 21
64.234267
  0
LINE
  5
189
100
AcDbEntity
  8
red
  6
ByLayer
 62
    1
370
   -1
100
AcDbLine
 10
237.3101399999999
 20
64.234267
 11
237.74194
 21
64.068659
  0
LINE
  5
18A
100
AcDbEntity
  8
red
  6
ByLayer
 62
    1
370
   -1
100
AcDbLine
 10
237.74194
 20
64.068659
 11
237.8816399999999
 21
64.068659
  0
LINE
  5
18B
100
AcDbEntity
  8
red
  6
ByLayer
 62
    1
370
   -1
100
AcDbLine
 10
237.8816399999999
 20
64.068659
 11
238.02642
 21
64.068659
  0
LINE
  5
18C
100
AcDbEntity
  8
red
  6
ByLayer
 62
    1
370
   -1
100
AcDbLine
 10
238.02642
 20
64.068659
 11
238.45314
 21
64.234267
  0
LINE
  5
18D
100
AcDbEntity
  8
red
  6
ByLayer
 62
    1
370
   -1
100
AcDbLine
 10
238.45314
 20
64.234267
 11
238.92304
 21
64.681815
  0
LINE
  5
18E
100
AcDbEntity
  8
red
  6
ByLayer
 62
    1
370
   -1
100
AcDbLine
 10
238.92304
 20
64.681815
 11
239.24054
 21
65.347549
  0
LINE
  5
18F
100
AcDbEntity
  8
red
  6
ByLayer
 62
    1
370
   -1
100
AcDbLine
 10
239.24054
 20
65.347549
 11
239.35484
 21
65.95816499999999
  0
LINE
  5
190
100
AcDbEntity
  8
red
  6
ByLayer
 62
    1
370
   -1
100
AcDbLine
 10
239.35484
 20
65.95816499999999
 11
239.35484
 21
66.16085700000001
  0
LINE
  5
191
100
AcDbEntity
  8
red
  6
ByLayer
 62
    1
370
   -1
100
AcDbLine
 10
239.35484
 20
66.16085700000001
 11
241.51384
 21
65.435687
  0
LINE
  5
192
100
AcDbEntity
  8
red
  6
ByLayer
 62
    1
370
   -1
100
AcDbLine
 10
241.51384
 20
65.435687
 11
253.19784
 21
65.435687
  0
LINE
  5
193
100
AcDbEntity
  8
red
  6
ByLayer
 62
    1
370
   -1
100
AcDbLine
 10
253.19784
 20
65.435687
 11
253.19784
 21
5.746093400000003
  0
LINE
  5
194
100
AcDbEntity
  8
red
  6
ByLayer
 62
    1
370
   -1
100
AcDbLine
 10
253.19784
 20
5.746093400000003
 11
248.8646
 21
5.746093400000003
  0
LINE
  5
195
100
AcDbEntity
  8
red
  6
ByLayer
 62
    1
370
   -1
100
AcDbLine
 10
248.8646
 20
5.746093400000003
 11
248.8646
 21
-13.3039066
  0
LINE
  5
196
100
AcDbEntity
  8
red
  6
ByLayer
 62
    1
370
   -1
100
AcDbLine
 10
248.8646
 20
-13.3039066
 11
253.19784
 21
-13.3039066
  0
LINE
  5
197
100
AcDbEntity
  8
red
  6
ByLayer
 62
    1
370
   -1
100
AcDbLine
 10
253.19784
 20
-13.3039066
 11
253.19784
 21
-18.303428224
  0
LINE
  5
198
100
AcDbEntity
  8
red
  6
ByLayer
 62
    1
370
   -1
100
AcDbLine
 10
253.19784
 20
-18.303428224
 11
259.6265799999999
 21
-18.303428224
  0
LINE
  5
199
100
AcDbEntity
  8
red
  6
ByLayer
 62
    1
370
   -1
100
AcDbLine
 10
259.6265799999999
 20
-18.303428224
 11
265.5625599999999
 21
-13.3039066
  0
LINE
  5
19A
100
AcDbEntity
  8
red
  6
ByLayer
 62
    1
370
   -1
100
AcDbLine
 10
265.5625599999999
 20
-13.3039066
 11
309.88556
 21
-13.3039066
  0
LINE
  5
19B
100
AcDbEntity
  8
red
  6
ByLayer
 62
    1
370
   -1
100
AcDbLine
 10
309.88556
 20
84.485687
 11
265.5625599999999
 21
84.485687
  0
LINE
  5
19C
100
AcDbEntity
  8
red
  6
ByLayer
 62
    1
370
   -1
100
AcDbLine
 10
265.5625599999999
 20
84.485687
 11
259.6265799999999
 21
89.486693
  0
LINE
  5
19D
100
AcDbEntity
  8
red
  6
ByLayer
 62
    1
370
   -1
100
AcDbLine
 10
259.6265799999999
 20
89.486693
 11
253.20038
 21
89.486693
  0
LINE
  5
19E
100
AcDbEntity
  8
red
  6
ByLayer
 62
    1
370
   -1
100
AcDbLine
 10
253.20038
 20
89.486693
 11
253.19784
 21
84.485687
  0
LINE
  5
19F
100
AcDbEntity
  8
red
  6
ByLayer
 62
    1
370
   -1
100
AcDbLine
 10
253.19784
 20
84.485687
 11
247.86384
 21
84.485687
  0
LINE
  5
1A0
100
AcDbEntity
  8
red
  6
ByLayer
 62
    1
370
   -1
100
AcDbLine
 10
113.72898
 20
51.466449
 11
113.72898
 21
19.71644899999999
  0
LINE
  5
1A1
100
AcDbEntity
  8
red
  6
ByLayer
 62
    1
370
   -1
100
AcDbLine
 10
356.0779999999999
 20
19.71644899999999
 11
356.0779999999999
 21
51.466449
  0
LINE
  5
1A2
100
AcDbEntity
  8
red
  6
ByLayer
 62
  256
370
   -1
100
AcDbLine
 10
356.0779999999999
 20
19.71644899999999
 11
309.88556
 21
-13.3039066
  0
LINE
  5
1A3
100
AcDbEntity
  8
red
  6
ByLayer
 62
  256
370
   -1
100
AcDbLine
 10
356.0779999999999
 20
51.466449
 11
309.88556
 21
84.485687
  0
LINE
  5
1A4
100
AcDbEntity
  8
red
  6
ByLayer
 62
  256
370
   -1
100
AcDbLine
 10
159.91888
 20
84.485687
 11
113.72898
 21
51.466449
  0
LINE
  5
1A5
100
AcDbEntity
  8
red
  6
ByLayer
 62
  256
370
   -1
100
AcDbLine
 10
113.72898
 20
19.71644899999999
 11
159.91888
 21
-13.3039066
  0
LINE
  5
1A6
100
AcDbEntity
  8
red
  6
ByLayer
 62
  256
370
   -1
100
AcDbLine
 10
200.37854
 20
46.65594299999999
 11
121.42898
 21
46.65594299999999
  0
LINE
  5
1A7
100
AcDbEntity
  8
red
  6
ByLayer
 62
  256
370
   -1
100
AcDbLine
 10
121.42898
 20
43.100705
 11
200.37854
 21
43.100705
  0
LINE
  5
1A8
100
AcDbEntity
  8
red
  6
ByLayer
 62
  256
370
   -1
100
AcDbLine
 10
200.37854
 20
28.081177
 11
121.42898
 21
28.081177
  0
LINE
  5
1A9
100
AcDbEntity
  8
red
  6
ByLayer
 62
  256
370
   -1
100
AcDbLine
 10
121.42898
 20
24.52441499999999
 11
200.37854
 21
24.52441499999999
  0
LINE
  5
1AA
100
AcDbEntity
  8
red
  6
ByLayer
 62
  256
370
   -1
100
AcDbLine
 10
269.4233599999999
 20
46.657467
 11
348.378
 21
46.657467
  0
LINE
  5
1AB
100
AcDbEntity
  8
red
  6
ByLayer
 62
  256
370
   -1
100
AcDbLine
 10
348.378
 20
43.102229
 11
269.4233599999999
 21
43.102229
  0
LINE
  5
1AC
100
AcDbEntity
  8
red
  6
ByLayer
 62
  256
370
   -1
100
AcDbLine
 10
269.4233599999999
 20
28.082701
 11
348.378
 21
28.082701
  0
LINE
  5
1AD
100
AcDbEntity
  8
red
  6
ByLayer
 62
  256
370
   -1
100
AcDbLine
 10
348.378
 20
24.525939
 11
269.4233599999999
 21
24.525939
  0
ARC
  5
1AE
100
AcDbEntity
  8
red
  6
ByLayer
 62
  256
370
   -1
100
AcDbCircle
 10
200.3873967985714
 20
44.878324
 40
1.777641063893922
100
AcDbArc
 50
269.7145322034008
 51
90.28546779659925
  0
ARC
  5
1AF
100
AcDbEntity
  8
red
  6
ByLayer
 62
  256
370
   -1
100
AcDbCircle
 10
200.3855980478818
 20
26.30191894053273
 40
1.779272058516956
100
AcDbArc
 50
272.5545125611336
 51
90.22728250796229
  0
ARC
  5
1B0
100
AcDbEntity
  8
red
  6
ByLayer
 62
  256
370
   -1
100
AcDbCircle
 10
269.441676749814
 20
26.30432
 40
1.778475325801499
100
AcDbArc
 50
90.59010715397037
 51
269.4098928460297
  0
ARC
  5
1B1
100
AcDbEntity
  8
red
  6
ByLayer
 62
  256
370
   -1
100
AcDbCircle
 10
269.4208631799999
 20
44.879848
 40
1.777620753499211
100
AcDbArc
 50
89.9195231632153
 51
270.0804768367847
  0
ARC
  5
1B2
100
AcDbEntity
  8
red
  6
ByLayer
 62
  256
370
   -1
100
AcDbCircle
 10
121.4201232014286
 20
44.878324
 40
1.777641063893922
100
AcDbArc
 50
89.71453220340075
 51
270.2854677965992
  0
ARC
  5
1B3
100
AcDbEntity
  8
red
  6
ByLayer
 62
  256
370
   -1
100
AcDbCircle
 10
121.4219219521183
 20
26.30191894053273
 40
1.779272058516956
100
AcDbArc
 50
89.7727174920377
 51
267.4454874388664
  0
ARC
  5
1B4
100
AcDbEntity
  8
red
  6
ByLayer
 62
  256
370
   -1
100
AcDbCircle
 10
348.359683250186
 20
26.30432
 40
1.778475325801499
100
AcDbArc
 50
270.5901071539703
 51
89.40989284602965
  0
ARC
  5
1B5
100
AcDbEntity
  8
red
  6
ByLayer
 62
  256
370
   -1
100
AcDbCircle
 10
348.38049682
 20
44.879848
 40
1.777620753499211
100
AcDbArc
 50
269.9195231632153
 51
90.0804768367847
  0
LWPOLYLINE
  5
1B6
100
AcDbEntity
  8
red
  6
ByLayer
 62
    1
370
   -1
100
AcDbPolyline
 90
    5
 70
    0
 43
0
 10
56.33421200000001
 20
227.75327
 10
61.43427800000001
 20
227.75327
 10
61.43427800000001
 20
230.92827
 10
66.76853200000002
 20
230.92827
 10
66.76853200000002
 20
215.05327
  0
LINE
  5
1B7
100
AcDbEntity
  8
red
  6
ByLayer
 62
    1
370
   -1
100
AcDbLine
 10
66.76853200000002
 20
189.652
 11
66.76853200000002
 21
202.352
  0
LINE
  5
1B8
100
AcDbEntity
  8
red
  6
ByLayer
 62
    1
370
   -1
100
AcDbLine
 10
56.33421200000001
 20
215.05327
 11
66.76853200000002
 21
215.05327
  0
LINE
  5
1B9
100
AcDbEntity
  8
red
  6
ByLayer
 62
    1
370
   -1
100
AcDbLine
 10
66.76853200000002
 20
215.05327
 11
66.76853200000002
 21
227.75327
  0
LINE
  5
1BA
100
AcDbEntity
  8
red
  6
ByLayer
 62
    1
370
   -1
100
AcDbLine
 10
56.33421200000001
 20
202.352
 11
61.43427800000001
 21
202.352
  0
LINE
  5
1BB
100
AcDbEntity
  8
red
  6
ByLayer
 62
    1
370
   -1
100
AcDbLine
 10
61.43427800000001
 20
202.352
 11
61.43427800000001
 21
205.527
  0
LINE
  5
1BC
100
AcDbEntity
  8
red
  6
ByLayer
 62
    1
370
   -1
100
AcDbLine
 10
61.43427800000001
 20
205.527
 11
66.76853200000002
 21
205.527
  0
LINE
  5
1BD
100
AcDbEntity
  8
red
  6
ByLayer
 62
    1
370
   -1
100
AcDbLine
 10
66.76853200000002
 20
205.527
 11
66.76853200000002
 21
189.459214
  0
LINE
  5
1BE
100
AcDbEntity
  8
red
  6
ByLayer
 62
    1
370
   -1
100
AcDbLine
 10
66.76853200000002
 20
250.10527
 11
66.76853200000002
 21
240.45327
  0
LINE
  5
1BF
100
AcDbEntity
  8
red
  6
ByLayer
 62
    1
370
   -1
100
AcDbLine
 10
66.76853200000002
 20
240.45327
 11
56.33421200000001
 21
240.45327
  0
LINE
  5
1C0
100
AcDbEntity
  8
red
  6
ByLayer
 62
    1
370
   -1
100
AcDbLine
 10
105.767516
 20
189.459214
 11
105.767516
 21
205.527
  0
LINE
  5
1C1
100
AcDbEntity
  8
red
  6
ByLayer
 62
    1
370
   -1
100
AcDbLine
 10
105.767516
 20
205.527
 11
111.10177
 21
205.527
  0
LINE
  5
1C2
100
AcDbEntity
  8
red
  6
ByLayer
 62
    1
370
   -1
100
AcDbLine
 10
111.10177
 20
205.527
 11
111.10177
 21
202.352
  0
LINE
  5
1C3
100
AcDbEntity
  8
red
  6
ByLayer
 62
    1
370
   -1
100
AcDbLine
 10
111.10177
 20
202.352
 11
116.20336
 21
202.352
  0
LINE
  5
1C4
100
AcDbEntity
  8
red
  6
ByLayer
 62
    1
370
   -1
100
AcDbLine
 10
116.20336
 20
202.352
 11
116.20336
 21
215.05327
  0
LINE
  5
1C5
100
AcDbEntity
  8
red
  6
ByLayer
 62
    1
370
   -1
100
AcDbLine
 10
116.20336
 20
215.05327
 11
105.767516
 21
215.05327
  0
LINE
  5
1C6
100
AcDbEntity
  8
red
  6
ByLayer
 62
    1
370
   -1
100
AcDbLine
 10
105.767516
 20
215.05327
 11
105.767516
 21
230.92827
  0
LINE
  5
1C7
100
AcDbEntity
  8
red
  6
ByLayer
 62
    1
370
   -1
100
AcDbLine
 10
105.767516
 20
230.92827
 11
111.10177
 21
230.92827
  0
LINE
  5
1C8
100
AcDbEntity
  8
red
  6
ByLayer
 62
    1
370
   -1
100
AcDbLine
 10
111.10177
 20
230.92827
 11
111.10177
 21
227.75327
  0
LINE
  5
1C9
100
AcDbEntity
  8
red
  6
ByLayer
 62
    1
370
   -1
100
AcDbLine
 10
111.10177
 20
227.75327
 11
116.20336
 21
227.75327
  0
LINE
  5
1CA
100
AcDbEntity
  8
red
  6
ByLayer
 62
    1
370
   -1
100
AcDbLine
 10
116.20336
 20
227.75327
 11
116.20336
 21
240.45327
  0
LINE
  5
1CB
100
AcDbEntity
  8
red
  6
ByLayer
 62
    1
370
   -1
100
AcDbLine
 10
116.20336
 20
240.45327
 11
105.767516
 21
240.45327
  0
LINE
  5
1CC
100
AcDbEntity
  8
red
  6
ByLayer
 62
    1
370
   -1
100
AcDbLine
 10
105.767516
 20
240.45327
 11
105.767516
 21
250.10527
  0
LINE
  5
1CD
100
AcDbEntity
  8
green
  6
ByLayer
 62
    3
370
   -1
100
AcDbLine
 10
85.48037000000001
 20
189.241536
 11
85.48037000000001
 21
198.133822
  0
LINE
  5
1CE
100
AcDbEntity
  8
green
  6
ByLayer
 62
    3
370
   -1
100
AcDbLine
 10
85.48037000000001
 20
198.133822
 11
83.28936600000002
 21
198.133822
  0
LINE
  5
1CF
100
AcDbEntity
  8
green
  6
ByLayer
 62
    3
370
   -1
100
AcDbLine
 10
83.28936600000002
 20
198.133822
 11
83.28936600000002
 21
201.308822
  0
LINE
  5
1D0
100
AcDbEntity
  8
green
  6
ByLayer
 62
    3
370
   -1
100
AcDbLine
 10
83.28936600000002
 20
201.308822
 11
85.48037000000001
 21
201.308822
  0
LINE
  5
1D1
100
AcDbEntity
  8
green
  6
ByLayer
 62
    3
370
   -1
100
AcDbLine
 10
85.48037000000001
 20
201.308822
 11
85.48037000000001
 21
205.143968
  0
LINE
  5
1D2
100
AcDbEntity
  8
green
  6
ByLayer
 62
    3
370
   -1
100
AcDbLine
 10
85.48037000000001
 20
205.143968
 11
89.037132
 21
205.143968
  0
LINE
  5
1D3
100
AcDbEntity
  8
green
  6
ByLayer
 62
    3
370
   -1
100
AcDbLine
 10
89.037132
 20
205.143968
 11
89.037132
 21
201.308822
  0
LINE
  5
1D4
100
AcDbEntity
  8
green
  6
ByLayer
 62
    3
370
   -1
100
AcDbLine
 10
89.037132
 20
201.308822
 11
91.22686600000002
 21
201.308822
  0
LINE
  5
1D5
100
AcDbEntity
  8
green
  6
ByLayer
 62
    3
370
   -1
100
AcDbLine
 10
91.22686600000002
 20
201.308822
 11
91.22686600000002
 21
198.133822
  0
LINE
  5
1D6
100
AcDbEntity
  8
green
  6
ByLayer
 62
    3
370
   -1
100
AcDbLine
 10
91.22686600000002
 20
198.133822
 11
89.037132
 21
198.133822
  0
LINE
  5
1D7
100
AcDbEntity
  8
green
  6
ByLayer
 62
    3
370
   -1
100
AcDbLine
 10
89.037132
 20
198.133822
 11
89.037132
 21
189.241536
  0
LINE
  5
1D8
100
AcDbEntity
  8
green
  6
ByLayer
 62
  256
370
   -1
100
AcDbLine
 10
51.200872
 20
217.08019
 11
46.700872
 21
217.08019
  0
LINE
  5
1D9
100
AcDbEntity
  8
green
  6
ByLayer
 62
  256
370
   -1
100
AcDbLine
 10
51.200872
 20
189.179306
 11
46.700872
 21
189.179306
  0
LINE
  5
1DA
100
AcDbEntity
  8
green
  6
ByLayer
 62
  256
370
   -1
100
AcDbLine
 10
72.89145600000001
 20
240.92571
 11
77.39145600000001
 21
240.92571
  0
LINE
  5
1DB
100
AcDbEntity
  8
green
  6
ByLayer
 62
  256
370
   -1
100
AcDbLine
 10
72.89145600000001
 20
213.02381
 11
77.39145600000001
 21
213.02381
  0
LINE
  5
1DC
100
AcDbEntity
  8
red
  6
ByLayer
 62
  256
370
   -1
100
AcDbLine
 10
66.76853200000002
 20
250.10527
 11
105.767516
 21
250.10527
  0
LWPOLYLINE
  5
1DD
100
AcDbEntity
  8
green
  6
ByLayer
 62
    3
370
   -1
100
AcDbPolyline
 90
   12
 70
    0
 43
0
 10
38.61170400000002
 20
240.45327
 10
38.61170400000002
 20
231.55819
 10
40.80296200000002
 20
231.55819
 10
40.80296200000002
 20
228.38319
 10
38.61170400000002
 20
228.38319
 10
38.61170400000002
 20
224.5503299999999
 10
35.05519600000001
 20
224.5503299999999
 10
35.05519600000001
 20
228.38319
 10
32.86546200000002
 20
228.38319
 10
32.86546200000002
 20
231.55819
 10
35.05519600000001
 20
231.55819
 10
35.05519600000001
 20
240.45327
  0
LINE
  5
1DE
100
AcDbEntity
  8
red
  6
ByLayer
 62
    1
370
   -1
100
AcDbLine
 10
56.33421200000001
 20
183.175
 11
56.33421200000001
 21
192.827
  0
LINE
  5
1DF
100
AcDbEntity
  8
red
  6
ByLayer
 62
    1
370
   -1
100
AcDbLine
 10
56.33421200000001
 20
192.827
 11
66.76853200000002
 21
192.827
  0
LINE
  5
1E0
100
AcDbEntity
  8
red
  6
ByLayer
 62
    1
370
   -1
100
AcDbLine
 10
56.33421200000001
 20
202.352
 11
56.33421200000001
 21
218.22827
  0
LINE
  5
1E1
100
AcDbEntity
  8
red
  6
ByLayer
 62
    1
370
   -1
100
AcDbLine
 10
56.33421200000001
 20
227.75327
 11
56.33421200000001
 21
243.82131
  0
LINE
  5
1E2
100
AcDbEntity
  8
red
  6
ByLayer
 62
    1
370
   -1
100
AcDbLine
 10
17.33421200000001
 20
243.82131
 11
17.33421200000001
 21
227.75327
  0
LINE
  5
1E3
100
AcDbEntity
  8
red
  6
ByLayer
 62
    1
370
   -1
100
AcDbLine
 10
17.33421200000001
 20
227.75327
 11
11.99970400000001
 21
227.75327
  0
LINE
  5
1E4
100
AcDbEntity
  8
red
  6
ByLayer
 62
    1
370
   -1
100
AcDbLine
 10
11.99970400000001
 20
227.75327
 11
11.99970400000001
 21
230.92827
  0
LINE
  5
1E5
100
AcDbEntity
  8
red
  6
ByLayer
 62
    1
370
   -1
100
AcDbLine
 10
11.99970400000001
 20
230.92827
 11
6.899384000000026
 21
230.92827
  0
LINE
  5
1E6
100
AcDbEntity
  8
red
  6
ByLayer
 62
    1
370
   -1
100
AcDbLine
 10
6.899384000000026
 20
230.92827
 11
6.899384000000026
 21
218.22827
  0
LINE
  5
1E7
100
AcDbEntity
  8
red
  6
ByLayer
 62
    1
370
   -1
100
AcDbLine
 10
6.899384000000026
 20
218.22827
 11
17.33421200000001
 21
218.22827
  0
LINE
  5
1E8
100
AcDbEntity
  8
red
  6
ByLayer
 62
    1
370
   -1
100
AcDbLine
 10
17.33421200000001
 20
218.22827
 11
17.33421200000001
 21
202.352
  0
LINE
  5
1E9
100
AcDbEntity
  8
red
  6
ByLayer
 62
    1
370
   -1
100
AcDbLine
 10
17.33421200000001
 20
202.352
 11
11.99970400000001
 21
202.352
  0
LINE
  5
1EA
100
AcDbEntity
  8
red
  6
ByLayer
 62
    1
370
   -1
100
AcDbLine
 10
11.99970400000001
 20
202.352
 11
11.99970400000001
 21
205.527
  0
LINE
  5
1EB
100
AcDbEntity
  8
red
  6
ByLayer
 62
    1
370
   -1
100
AcDbLine
 10
11.99970400000001
 20
205.527
 11
6.899384000000026
 21
205.527
  0
LINE
  5
1EC
100
AcDbEntity
  8
red
  6
ByLayer
 62
    1
370
   -1
100
AcDbLine
 10
6.899384000000026
 20
205.527
 11
6.899384000000026
 21
192.827
  0
LINE
  5
1ED
100
AcDbEntity
  8
red
  6
ByLayer
 62
    1
370
   -1
100
AcDbLine
 10
6.899384000000026
 20
192.827
 11
17.33421200000001
 21
192.827
  0
LINE
  5
1EE
100
AcDbEntity
  8
red
  6
ByLayer
 62
    1
370
   -1
100
AcDbLine
 10
17.33421200000001
 20
192.827
 11
17.33421200000001
 21
183.175
  0
LINE
  5
1EF
100
AcDbEntity
  8
red
  6
ByLayer
 62
    1
370
   -1
100
AcDbLine
 10
46.700872
 20
220.25519
 11
46.700872
 21
192.354306
  0
LINE
  5
1F0
100
AcDbEntity
  8
red
  6
ByLayer
 62
  256
370
   -1
100
AcDbLine
 10
56.33421200000001
 20
183.175
 11
17.33421200000001
 21
183.175
  0
LINE
  5
1F1
100
AcDbEntity
  8
red
  6
ByLayer
 62
  256
370
   -1
100
AcDbLine
 10
56.33421200000001
 20
218.22827
 11
66.76853200000002
 21
218.22827
  0
LINE
  5
1F2
100
AcDbEntity
  8
red
  6
ByLayer
 62
    1
370
   -1
100
AcDbLine
 10
26.96602800000002
 20
220.25519
 11
26.96602800000002
 21
192.354306
  0
LINE
  5
1F3
100
AcDbEntity
  8
green
  6
ByLayer
 62
  256
370
   -1
100
AcDbLine
 10
56.33421200000001
 20
243.82131
 11
17.33421200000001
 21
243.82131
  0
LINE
  5
1F4
100
AcDbEntity
  8
green
  6
ByLayer
 62
  256
370
   -1
100
AcDbLine
 10
66.76853200000002
 20
189.459214
 11
105.767516
 21
189.459214
  0
LINE
  5
1F5
100
AcDbEntity
  8
red
  6
ByLayer
 62
    1
370
   -1
100
AcDbLine
 10
84.48964300000002
 20
189.459214
 11
84.48964300000002
 21
198.3515
  0
LINE
  5
1F6
100
AcDbEntity
  8
red
  6
ByLayer
 62
    1
370
   -1
100
AcDbLine
 10
84.48964300000002
 20
198.3515
 11
82.29863900000002
 21
198.3515
  0
LINE
  5
1F7
100
AcDbEntity
  8
red
  6
ByLayer
 62
    1
370
   -1
100
AcDbLine
 10
82.29863900000002
 20
198.3515
 11
82.29863900000002
 21
201.5265
  0
LINE
  5
1F8
100
AcDbEntity
  8
red
  6
ByLayer
 62
    1
370
   -1
100
AcDbLine
 10
82.29863900000002
 20
201.5265
 11
84.48964300000002
 21
201.5265
  0
LINE
  5
1F9
100
AcDbEntity
  8
red
  6
ByLayer
 62
    1
370
   -1
100
AcDbLine
 10
84.48964300000002
 20
201.5265
 11
84.48964300000002
 21
205.361646
  0
LINE
  5
1FA
100
AcDbEntity
  8
red
  6
ByLayer
 62
    1
370
   -1
100
AcDbLine
 10
84.48964300000002
 20
205.361646
 11
88.04640500000001
 21
205.361646
  0
LINE
  5
1FB
100
AcDbEntity
  8
red
  6
ByLayer
 62
    1
370
   -1
100
AcDbLine
 10
88.04640500000001
 20
205.361646
 11
88.04640500000001
 21
201.5265
  0
LINE
  5
1FC
100
AcDbEntity
  8
red
  6
ByLayer
 62
    1
370
   -1
100
AcDbLine
 10
88.04640500000001
 20
201.5265
 11
90.23613900000002
 21
201.5265
  0
LINE
  5
1FD
100
AcDbEntity
  8
red
  6
ByLayer
 62
    1
370
   -1
100
AcDbLine
 10
90.23613900000002
 20
201.5265
 11
90.23613900000002
 21
198.3515
  0
LINE
  5
1FE
100
AcDbEntity
  8
red
  6
ByLayer
 62
    1
370
   -1
100
AcDbLine
 10
90.23613900000002
 20
198.3515
 11
88.04640500000001
 21
198.3515
  0
LINE
  5
1FF
100
AcDbEntity
  8
red
  6
ByLayer
 62
    1
370
   -1
100
AcDbLine
 10
88.04640500000001
 20
198.3515
 11
88.04640500000001
 21
189.459214
  0
LINE
  5
200
100
AcDbEntity
  8
red
  6
ByLayer
 62
    1
370
   -1
100
AcDbLine
 10
38.61246600000001
 20
243.82131
 11
38.61246600000001
 21
234.92623
  0
LINE
  5
201
100
AcDbEntity
  8
red
  6
ByLayer
 62
    1
370
   -1
100
AcDbLine
 10
38.61246600000001
 20
234.92623
 11
40.80372400000002
 21
234.92623
  0
LINE
  5
202
100
AcDbEntity
  8
red
  6
ByLayer
 62
    1
370
   -1
100
AcDbLine
 10
40.80372400000002
 20
234.92623
 11
40.80372400000002
 21
231.75123
  0
LINE
  5
203
100
AcDbEntity
  8
red
  6
ByLayer
 62
    1
370
   -1
100
AcDbLine
 10
40.80372400000002
 20
231.75123
 11
38.61246600000001
 21
231.75123
  0
LINE
  5
204
100
AcDbEntity
  8
red
  6
ByLayer
 62
    1
370
   -1
100
AcDbLine
 10
38.61246600000001
 20
231.75123
 11
38.61246600000001
 21
227.9183699999999
  0
LINE
  5
205
100
AcDbEntity
  8
red
  6
ByLayer
 62
    1
370
   -1
100
AcDbLine
 10
38.61246600000001
 20
227.9183699999999
 11
35.055958
 21
227.9183699999999
  0
LINE
  5
206
100
AcDbEntity
  8
red
  6
ByLayer
 62
    1
370
   -1
100
AcDbLine
 10
35.055958
 20
227.9183699999999
 11
35.055958
 21
231.75123
  0
LINE
  5
207
100
AcDbEntity
  8
red
  6
ByLayer
 62
    1
370
   -1
100
AcDbLine
 10
35.055958
 20
231.75123
 11
32.86622400000002
 21
231.75123
  0
LINE
  5
208
100
AcDbEntity
  8
red
  6
ByLayer
 62
    1
370
   -1
100
AcDbLine
 10
32.86622400000002
 20
231.75123
 11
32.86622400000002
 21
234.92623
  0
LINE
  5
209
100
AcDbEntity
  8
red
  6
ByLayer
 62
    1
370
   -1
100
AcDbLine
 10
32.86622400000002
 20
234.92623
 11
35.055958
 21
234.92623
  0
LINE
  5
20A
100
AcDbEntity
  8
red
  6
ByLayer
 62
    1
370
   -1
100
AcDbLine
 10
35.055958
 20
234.92623
 11
35.055958
 21
243.82131
  0
LINE
  5
20B
100
AcDbEntity
  8
red
  6
ByLayer
 62
  256
370
   -1
100
AcDbLine
 10
17.33421200000001
 20
243.82131
 11
35.055958
 21
243.82131
  0
LINE
  5
20C
100
AcDbEntity
  8
red
  6
ByLayer
 62
  256
370
   -1
100
AcDbLine
 10
38.61246600000001
 20
243.82131
 11
56.33421200000001
 21
243.82131
  0
LINE
  5
20D
100
AcDbEntity
  8
red
  6
ByLayer
 62
  256
370
   -1
100
AcDbLine
 10
66.76853200000002
 20
189.459214
 11
84.48964300000002
 21
189.459214
  0
LINE
  5
20E
100
AcDbEntity
  8
red
  6
ByLayer
 62
  256
370
   -1
100
AcDbLine
 10
88.04640500000001
 20
189.459214
 11
105.767516
 21
189.459214
  0
LINE
  5
20F
100
AcDbEntity
  8
red
  6
ByLayer
 62
  256
370
   -1
100
AcDbLine
 10
46.700872
 20
220.25519
 11
26.96602800000002
 21
220.25519
  0
LINE
  5
210
100
AcDbEntity
  8
red
  6
ByLayer
 62
  256
370
   -1
100
AcDbLine
 10
26.96602800000002
 20
192.354306
 11
46.700872
 21
192.354306
  0
LINE
  5
211
100
AcDbEntity
  8
red
  6
ByLayer
 62
    1
370
   -1
100
AcDbLine
 10
96.135446
 20
240.92571
 11
96.135446
 21
213.024826
  0
LINE
  5
212
100
AcDbEntity
  8
red
  6
ByLayer
 62
    1
370
   -1
100
AcDbLine
 10
76.40060200000002
 20
240.92571
 11
76.40060200000002
 21
213.024826
  0
LINE
  5
213
100
AcDbEntity
  8
red
  6
ByLayer
 62
  256
370
   -1
100
AcDbLine
 10
96.135446
 20
240.92571
 11
76.40060200000002
 21
240.92571
  0
LINE
  5
214
100
AcDbEntity
  8
red
  6
ByLayer
 62
  256
370
   -1
100
AcDbLine
 10
76.40060200000002
 20
213.024826
 11
96.135446
 21
213.024826
  0
ENDSEC
  0
SECTION
  2
OBJECTS
  0
DICTIONARY
  5
C
330
0
100
AcDbDictionary
281
    1
  3
ACAD_GROUP
350
D
  0
DICTIONARY
  5
D
330
C
100
AcDbDictionary
281
    1
  0
ENDSEC
  0
EOF
